<svg xmlns="http://www.w3.org/2000/svg" width="19.276" height="19.275" viewBox="0 0 19.276 19.275">
  <g id="Grupo_1149" data-name="Grupo 1149" transform="translate(-451.189 -1338.691)">
    <g id="Grupo_1082" data-name="Grupo 1082">
      <path id="Trazado_1163" data-name="Trazado 1163" d="M465.9,1342.24a1.133,1.133,0,1,0,1.133,1.133,1.133,1.133,0,0,0-1.133-1.133Z" fill="#fff"/>
      <path id="Trazado_1164" data-name="Trazado 1164" d="M460.86,1351.545a3.216,3.216,0,1,1,3.216-3.216,3.22,3.22,0,0,1-3.216,3.216Zm0-8.237a5.021,5.021,0,1,0,5.021,5.021,5.026,5.026,0,0,0-5.021-5.021Z" fill="#fff"/>
      <path id="Trazado_1165" data-name="Trazado 1165" d="M468.647,1352.161a3.988,3.988,0,0,1-3.988,3.987H457a3.988,3.988,0,0,1-3.989-3.987V1344.5a3.988,3.988,0,0,1,3.989-3.987h7.663a3.988,3.988,0,0,1,3.988,3.987v7.665Zm-3.988-13.47H457a5.806,5.806,0,0,0-5.807,5.8v7.665a5.806,5.806,0,0,0,5.807,5.8h7.663a5.805,5.805,0,0,0,5.806-5.8V1344.5a5.805,5.805,0,0,0-5.806-5.8Z" fill="#fff"/>
    </g>
  </g>
</svg>
