<svg xmlns="http://www.w3.org/2000/svg" width="18.84" height="15.492" viewBox="0 0 18.84 15.492">
  <g id="Grupo_1154" data-name="Grupo 1154" transform="translate(-575.469 -1340.583)">
    <path id="Trazado_1161" data-name="Trazado 1161" d="M594.238,1342.425a7.738,7.738,0,0,1-1.9.544c.307-.051.759-.607.94-.831a3.5,3.5,0,0,0,.633-1.154l0-.1-.1.008a9.676,9.676,0,0,1-2.261.865.149.149,0,0,1-.155-.041,1.9,1.9,0,0,0-.2-.2,3.945,3.945,0,0,0-2.841-.922l.014-.005h-.079l.028.008a3.95,3.95,0,0,0-1.625.5,4.019,4.019,0,0,0-1.959,4.141c.013.091,0,.1-.078.091a12.069,12.069,0,0,1-7.767-3.954c-.091-.1-.14-.1-.215.008a3.939,3.939,0,0,0,.672,4.654c.152.144.308.288.477.42a3.964,3.964,0,0,1-1.5-.42c-.09-.058-.136-.025-.144.078a2.437,2.437,0,0,0,.024.446,3.988,3.988,0,0,0,2.455,3.175,2.415,2.415,0,0,0,.5.152,4.473,4.473,0,0,1-1.47.046c-.107-.021-.148.032-.107.135a4.136,4.136,0,0,0,3.089,2.587c.14.024.28.024.42.057l-.024.025a4.915,4.915,0,0,1-2.11,1.118,7.554,7.554,0,0,1-3.2.41c-.172-.025-.208-.024-.255,0s-.006.071.05.115c.218.144.44.272.667.4a10.588,10.588,0,0,0,2.141.856,11.089,11.089,0,0,0,11.876-3.655,12.021,12.021,0,0,0,2.263-7.411c0-.122.144-.19.229-.254a7.436,7.436,0,0,0,1.5-1.567.454.454,0,0,0,.093-.3v-.017c0-.049.006-.035-.07,0Z" fill="#fff"/>
  </g>
</svg>
