<svg xmlns="http://www.w3.org/2000/svg" xmlns:xlink="http://www.w3.org/1999/xlink" width="177.437" height="73.599" viewBox="0 0 177.437 73.599">
  <defs>
    <linearGradient id="linear-gradient" x1="0.5" y1="1.738" x2="0.5" y2="-0.008" gradientUnits="objectBoundingBox">
      <stop offset="0" stop-color="#4f6abd"/>
      <stop offset="1" stop-color="#66d5ff"/>
    </linearGradient>
    <linearGradient id="linear-gradient-2" x1="0.5" y1="10.58" x2="0.5" y2="-1.341" xlink:href="#linear-gradient"/>
    <linearGradient id="linear-gradient-3" x1="0.5" y1="14.34" x2="0.5" y2="-2.26" xlink:href="#linear-gradient"/>
    <linearGradient id="linear-gradient-4" x1="0.5" y1="13.731" x2="0.5" y2="-2.139" xlink:href="#linear-gradient"/>
    <linearGradient id="linear-gradient-5" x1="0.5" y1="10.567" x2="0.5" y2="-1.338" xlink:href="#linear-gradient"/>
    <linearGradient id="linear-gradient-6" x1="0.499" y1="10.097" x2="0.499" y2="-1.223" xlink:href="#linear-gradient"/>
    <linearGradient id="linear-gradient-8" x1="0.5" y1="9.938" x2="0.5" y2="-1.204" xlink:href="#linear-gradient"/>
    <linearGradient id="linear-gradient-9" x1="0.5" y1="10.097" x2="0.5" y2="-1.223" xlink:href="#linear-gradient"/>
    <linearGradient id="linear-gradient-10" x1="0.5" y1="13.766" x2="0.5" y2="-2.145" xlink:href="#linear-gradient"/>
    <linearGradient id="linear-gradient-11" x1="0.5" y1="13.738" x2="0.5" y2="-2.14" xlink:href="#linear-gradient"/>
    <linearGradient id="linear-gradient-12" x1="0.501" y1="14.045" x2="0.501" y2="-2.188" xlink:href="#linear-gradient"/>
    <linearGradient id="linear-gradient-13" x1="0.417" y1="-0.799" x2="0.612" y2="3.079" xlink:href="#linear-gradient"/>
    <linearGradient id="linear-gradient-14" x1="0.345" y1="-0.854" x2="0.765" y2="2.814" xlink:href="#linear-gradient"/>
  </defs>
  <g id="buttons-05" transform="translate(-162.88 -107.98)">
    <path id="Trazado_1290" data-name="Trazado 1290" d="M337.364,181.579H165.833a2.957,2.957,0,0,1-2.953-2.953V110.934a2.958,2.958,0,0,1,2.953-2.954H337.364a2.958,2.958,0,0,1,2.953,2.954v67.692a2.957,2.957,0,0,1-2.953,2.953Zm-171.531-71.6a.955.955,0,0,0-.953.954v67.692a.955.955,0,0,0,.953.953H337.364a.955.955,0,0,0,.953-.953V110.934a.955.955,0,0,0-.953-.954Z" fill="url(#linear-gradient)"/>
    <path id="Trazado_1291" data-name="Trazado 1291" d="M242.965,132.277l-1.119,3.39h-1.438l3.663-10.783h1.678l3.681,10.783h-1.488l-1.151-3.39Zm3.535-1.087-1.055-3.1c-.237-.7-.4-1.347-.56-1.97h-.032c-.159.641-.337,1.3-.541,1.952l-1.056,3.121Z" fill="url(#linear-gradient-2)"/>
    <path id="Trazado_1292" data-name="Trazado 1292" d="M251.164,127.923l1.519,4.354a19.762,19.762,0,0,1,.624,1.984h.05c.172-.642.4-1.283.655-1.984l1.5-4.354h1.474l-3.039,7.744H252.6l-2.944-7.744Z" fill="url(#linear-gradient-3)"/>
    <path id="Trazado_1293" data-name="Trazado 1293" d="M262.533,135.667l-.113-.974h-.046a2.894,2.894,0,0,1-2.37,1.151,2.207,2.207,0,0,1-2.366-2.225c0-1.87,1.665-2.893,4.654-2.88v-.159a1.6,1.6,0,0,0-1.761-1.792,3.848,3.848,0,0,0-2.015.577l-.319-.928a4.835,4.835,0,0,1,2.544-.687c2.366,0,2.943,1.615,2.943,3.167v2.893a10.9,10.9,0,0,0,.128,1.857Zm-.209-3.949c-1.533-.032-3.28.236-3.28,1.742a1.246,1.246,0,0,0,1.328,1.342,1.929,1.929,0,0,0,1.875-1.3,1.525,1.525,0,0,0,.077-.446Z" fill="url(#linear-gradient-4)"/>
    <path id="Trazado_1294" data-name="Trazado 1294" d="M267.515,125.748a.871.871,0,1,1-1.742,0,.856.856,0,0,1,.878-.878.834.834,0,0,1,.864.878Zm-1.565,9.919v-7.744h1.406v7.744Z" fill="url(#linear-gradient-5)"/>
    <path id="Trazado_1295" data-name="Trazado 1295" d="M269.69,124.311h1.41v11.356h-1.41Z" fill="url(#linear-gradient-6)"/>
    <path id="Trazado_1296" data-name="Trazado 1296" d="M277.748,135.667l-.114-.974h-.046a2.893,2.893,0,0,1-2.37,1.151,2.207,2.207,0,0,1-2.366-2.225c0-1.87,1.665-2.893,4.654-2.88v-.159a1.6,1.6,0,0,0-1.76-1.792,3.849,3.849,0,0,0-2.016.577l-.318-.928a4.828,4.828,0,0,1,2.543-.687c2.366,0,2.944,1.615,2.944,3.167v2.893a10.909,10.909,0,0,0,.127,1.857Zm-.21-3.949c-1.533-.032-3.28.236-3.28,1.742a1.246,1.246,0,0,0,1.328,1.342,1.929,1.929,0,0,0,1.875-1.3,1.525,1.525,0,0,0,.077-.446Z" fill="url(#linear-gradient-4)"/>
    <path id="Trazado_1297" data-name="Trazado 1297" d="M281.105,135.667c.032-.528.064-1.311.064-2v-9.358h1.392v4.863h.032a2.879,2.879,0,0,1,2.639-1.424c1.915,0,3.276,1.6,3.262,3.949,0,2.767-1.743,4.145-3.471,4.145a2.764,2.764,0,0,1-2.594-1.456h-.045l-.064,1.279Zm1.456-3.1a2.588,2.588,0,0,0,.064.509,2.168,2.168,0,0,0,2.111,1.652c1.469,0,2.348-1.2,2.348-2.976,0-1.551-.8-2.88-2.3-2.88a2.241,2.241,0,0,0-2.142,1.729,2.776,2.776,0,0,0-.078.574Z" fill="url(#linear-gradient-8)"/>
    <path id="Trazado_1298" data-name="Trazado 1298" d="M290.264,124.311h1.406v11.356h-1.406Z" fill="url(#linear-gradient-9)"/>
    <path id="Trazado_1299" data-name="Trazado 1299" d="M294.818,132.05a2.48,2.48,0,0,0,2.657,2.689,5.107,5.107,0,0,0,2.143-.4l.237,1.01a6.291,6.291,0,0,1-2.576.478,3.591,3.591,0,0,1-3.8-3.9c0-2.334,1.374-4.172,3.631-4.172,2.525,0,3.2,2.221,3.2,3.645a4.767,4.767,0,0,1-.05.655Zm4.127-1.006a2.007,2.007,0,0,0-1.952-2.288,2.337,2.337,0,0,0-2.161,2.288Z" fill="url(#linear-gradient-10)"/>
    <path id="Trazado_1300" data-name="Trazado 1300" d="M312.435,131.731a3.784,3.784,0,0,1-3.854,4.113,3.682,3.682,0,0,1-3.708-3.985,3.777,3.777,0,0,1,3.835-4.109,3.664,3.664,0,0,1,3.727,3.981Zm-6.143.082c0,1.693.979,2.976,2.353,2.976,1.346,0,2.352-1.265,2.352-3.008,0-1.315-.655-2.975-2.32-2.975S306.292,130.339,306.292,131.813Z" fill="url(#linear-gradient-11)"/>
    <path id="Trazado_1301" data-name="Trazado 1301" d="M314.2,130.021c0-.8-.018-1.456-.063-2.1h1.246l.078,1.283h.032a2.852,2.852,0,0,1,2.561-1.456c1.069,0,2.734.637,2.734,3.294v4.623h-1.4V131.2c0-1.247-.465-2.289-1.793-2.289a2.067,2.067,0,0,0-1.984,2.1v4.655H314.2Z" fill="url(#linear-gradient-12)"/>
    <text id="Desktop" transform="translate(240.466 161.264)" fill="#66c1ff" font-size="20.103" font-family="Helvetica"><tspan x="0" y="0" letter-spacing="0.004em">D</tspan><tspan y="0">esk</tspan><tspan y="0" letter-spacing="-0.006em">t</tspan><tspan y="0">op</tspan></text>
    <path id="Trazado_1302" data-name="Trazado 1302" d="M220.867,158.271H205.7v-7h-3.583v7H187.838a1.014,1.014,0,0,0-.954,1.065v.869a1.015,1.015,0,0,0,.954,1.066h33.029a1.015,1.015,0,0,0,.954-1.066v-.869A1.014,1.014,0,0,0,220.867,158.271Z" fill="url(#linear-gradient-13)"/>
    <path id="Trazado_1303" data-name="Trazado 1303" d="M224.45,123.271H183.359a1.014,1.014,0,0,0-.954,1.065v25.869a1.015,1.015,0,0,0,.954,1.066H224.45a1.016,1.016,0,0,0,.955-1.066V124.336a1.015,1.015,0,0,0-.955-1.065Zm-20.545,26a1.006,1.006,0,1,1,.9-1,.952.952,0,0,1-.9,1Zm18.394-3H185.51a.921.921,0,0,1-.866-.967V126.237a.92.92,0,0,1,.866-.966H222.3a.919.919,0,0,1,.866.966V145.3a.92.92,0,0,1-.866.971Z" fill="url(#linear-gradient-14)"/>
  </g>
</svg>
