<svg xmlns="http://www.w3.org/2000/svg" xmlns:xlink="http://www.w3.org/1999/xlink" width="237.437" height="73.6" viewBox="0 0 237.437 73.6">
  <defs>
    <linearGradient id="linear-gradient" x1="0.5" y1="1.738" x2="0.5" y2="-0.008" gradientUnits="objectBoundingBox">
      <stop offset="0" stop-color="#4f6abd"/>
      <stop offset="1" stop-color="#66d5ff"/>
    </linearGradient>
    <linearGradient id="linear-gradient-2" x1="0.5" y1="10.58" x2="0.5" y2="-1.341" xlink:href="#linear-gradient"/>
    <linearGradient id="linear-gradient-3" x1="0.5" y1="14.342" x2="0.5" y2="-2.26" xlink:href="#linear-gradient"/>
    <linearGradient id="linear-gradient-4" x1="0.5" y1="13.731" x2="0.5" y2="-2.139" xlink:href="#linear-gradient"/>
    <linearGradient id="linear-gradient-5" x1="0.5" y1="10.568" x2="0.5" y2="-1.338" xlink:href="#linear-gradient"/>
    <linearGradient id="linear-gradient-6" x1="0.5" y1="10.097" x2="0.5" y2="-1.223" xlink:href="#linear-gradient"/>
    <linearGradient id="linear-gradient-7" x1="0.5" y1="13.731" x2="0.5" y2="-2.139" xlink:href="#linear-gradient"/>
    <linearGradient id="linear-gradient-8" x1="0.5" y1="9.937" x2="0.5" y2="-1.204" xlink:href="#linear-gradient"/>
    <linearGradient id="linear-gradient-9" x1="0.499" y1="10.097" x2="0.499" y2="-1.223" xlink:href="#linear-gradient"/>
    <linearGradient id="linear-gradient-10" x1="0.5" y1="13.766" x2="0.5" y2="-2.145" xlink:href="#linear-gradient"/>
    <linearGradient id="linear-gradient-11" x1="0.5" y1="13.738" x2="0.5" y2="-2.14" xlink:href="#linear-gradient"/>
    <linearGradient id="linear-gradient-12" x1="0.5" y1="14.045" x2="0.5" y2="-2.188" xlink:href="#linear-gradient"/>
    <linearGradient id="linear-gradient-13" x1="0.5" y1="11.196" x2="0.5" y2="-1.51" xlink:href="#linear-gradient"/>
    <linearGradient id="linear-gradient-14" x1="0.5" y1="10.097" x2="0.5" y2="-1.223" xlink:href="#linear-gradient"/>
    <linearGradient id="linear-gradient-16" x1="0.5" y1="5.018" x2="0.5" y2="-1.967" xlink:href="#linear-gradient"/>
    <linearGradient id="linear-gradient-17" x1="0.5" y1="6.46" x2="0.5" y2="-3.044" xlink:href="#linear-gradient"/>
    <linearGradient id="linear-gradient-18" x1="0.5" y1="6.46" x2="0.5" y2="-3.044" xlink:href="#linear-gradient"/>
    <linearGradient id="linear-gradient-19" x1="0.5" y1="4.64" x2="0.5" y2="-2.186" xlink:href="#linear-gradient"/>
    <linearGradient id="linear-gradient-20" x1="0.5" y1="4.907" x2="0.5" y2="-1.867" xlink:href="#linear-gradient"/>
    <linearGradient id="linear-gradient-21" x1="0.5" y1="6.471" x2="0.5" y2="-3.049" xlink:href="#linear-gradient"/>
    <linearGradient id="linear-gradient-22" x1="0.5" y1="5.08" x2="0.5" y2="-1.994" xlink:href="#linear-gradient"/>
    <linearGradient id="linear-gradient-24" x1="0.5" y1="6.455" x2="0.5" y2="-3.042" xlink:href="#linear-gradient"/>
    <linearGradient id="linear-gradient-25" x1="0.5" y1="4.621" x2="0.5" y2="-2.2" xlink:href="#linear-gradient"/>
    <linearGradient id="linear-gradient-26" x1="0.5" y1="7.124" x2="0.5" y2="-2.294" xlink:href="#linear-gradient"/>
    <linearGradient id="linear-gradient-27" x1="0.5" y1="4.865" x2="0.5" y2="-0.578" xlink:href="#linear-gradient"/>
    <linearGradient id="linear-gradient-28" x1="0.5" y1="3.822" x2="0.5" y2="-1.702" xlink:href="#linear-gradient"/>
    <linearGradient id="linear-gradient-29" x1="0.5" y1="2.389" x2="0.5" y2="-0.306" xlink:href="#linear-gradient"/>
  </defs>
  <g id="Grupo_1037" data-name="Grupo 1037" transform="translate(-1286.682 -5031)">
    <path id="Trazado_1334" data-name="Trazado 1334" d="M490.166,73.6H258.635a2.957,2.957,0,0,1-2.953-2.953V2.953A2.957,2.957,0,0,1,258.635,0H490.166a2.956,2.956,0,0,1,2.953,2.953V70.646A2.957,2.957,0,0,1,490.166,73.6ZM258.635,2a.955.955,0,0,0-.953.953V70.646a.955.955,0,0,0,.953.953H490.166a.954.954,0,0,0,.953-.953V2.953A.954.954,0,0,0,490.166,2Z" transform="translate(1031 5031)" fill="url(#linear-gradient)"/>
    <path id="Trazado_1335" data-name="Trazado 1335" d="M338.5,21.258l-1.119,3.389h-1.438L339.6,13.864h1.679l3.681,10.783h-1.488l-1.151-3.389Zm3.535-1.088-1.056-3.1c-.236-.7-.4-1.346-.559-1.97h-.032c-.159.642-.337,1.3-.541,1.952l-1.056,3.121Z" transform="translate(1031 5031)" fill="url(#linear-gradient-2)"/>
    <path id="Trazado_1336" data-name="Trazado 1336" d="M346.694,16.9l1.52,4.354a19.478,19.478,0,0,1,.623,1.983h.05c.173-.641.4-1.283.656-1.983l1.5-4.354h1.474l-3.039,7.743h-1.342L345.193,16.9Z" transform="translate(1031 5031)" fill="url(#linear-gradient-3)"/>
    <path id="Trazado_1337" data-name="Trazado 1337" d="M358.064,24.647l-.114-.973H357.9a2.894,2.894,0,0,1-2.37,1.151,2.207,2.207,0,0,1-2.366-2.225c0-1.87,1.665-2.894,4.654-2.88v-.159a1.6,1.6,0,0,0-1.761-1.793,3.837,3.837,0,0,0-2.015.578l-.319-.928a4.835,4.835,0,0,1,2.544-.687c2.365,0,2.943,1.615,2.943,3.166v2.894a10.9,10.9,0,0,0,.128,1.856Zm-.209-3.949c-1.533-.032-3.28.237-3.28,1.743a1.246,1.246,0,0,0,1.328,1.342,1.928,1.928,0,0,0,1.875-1.3,1.519,1.519,0,0,0,.077-.446Z" transform="translate(1031 5031)" fill="url(#linear-gradient-4)"/>
    <path id="Trazado_1338" data-name="Trazado 1338" d="M363.046,14.729a.871.871,0,1,1-1.742,0,.856.856,0,0,1,.878-.878.835.835,0,0,1,.864.878Zm-1.565,9.918V16.9h1.406v7.743Z" transform="translate(1031 5031)" fill="url(#linear-gradient-5)"/>
    <path id="Trazado_1339" data-name="Trazado 1339" d="M365.221,13.291h1.406V24.647h-1.406Z" transform="translate(1031 5031)" fill="url(#linear-gradient-6)"/>
    <path id="Trazado_1340" data-name="Trazado 1340" d="M373.278,24.647l-.113-.973h-.046a2.894,2.894,0,0,1-2.37,1.151,2.208,2.208,0,0,1-2.366-2.225c0-1.87,1.665-2.894,4.654-2.88v-.159a1.6,1.6,0,0,0-1.76-1.793,3.84,3.84,0,0,0-2.016.578l-.318-.928a4.828,4.828,0,0,1,2.543-.687c2.366,0,2.943,1.615,2.943,3.166v2.894a10.892,10.892,0,0,0,.128,1.856Zm-.209-3.949c-1.533-.032-3.28.237-3.28,1.743a1.246,1.246,0,0,0,1.328,1.342,1.928,1.928,0,0,0,1.875-1.3,1.519,1.519,0,0,0,.077-.446Z" transform="translate(1031 5031)" fill="url(#linear-gradient-7)"/>
    <path id="Trazado_1341" data-name="Trazado 1341" d="M376.636,24.647c.032-.528.064-1.31.064-2V13.291h1.392v4.864h.032a2.878,2.878,0,0,1,2.639-1.424c1.915,0,3.275,1.6,3.262,3.949,0,2.766-1.743,4.145-3.472,4.145a2.765,2.765,0,0,1-2.593-1.456h-.045l-.064,1.278Zm1.456-3.1a2.588,2.588,0,0,0,.064.51,2.169,2.169,0,0,0,2.111,1.651c1.469,0,2.347-1.2,2.347-2.975,0-1.552-.8-2.88-2.3-2.88a2.242,2.242,0,0,0-2.143,1.729,2.83,2.83,0,0,0-.077.573Z" transform="translate(1031 5031)" fill="url(#linear-gradient-8)"/>
    <path id="Trazado_1342" data-name="Trazado 1342" d="M385.8,13.291h1.4V24.647h-1.4Z" transform="translate(1031 5031)" fill="url(#linear-gradient-9)"/>
    <path id="Trazado_1343" data-name="Trazado 1343" d="M390.349,21.03a2.48,2.48,0,0,0,2.657,2.689,5.113,5.113,0,0,0,2.143-.4l.236,1.01a6.286,6.286,0,0,1-2.575.477,3.591,3.591,0,0,1-3.8-3.9c0-2.334,1.374-4.172,3.63-4.172,2.526,0,3.2,2.22,3.2,3.644a4.772,4.772,0,0,1-.05.655Zm4.127-1a2.007,2.007,0,0,0-1.952-2.289,2.338,2.338,0,0,0-2.161,2.289Z" transform="translate(1031 5031)" fill="url(#linear-gradient-10)"/>
    <path id="Trazado_1344" data-name="Trazado 1344" d="M407.965,20.712a3.784,3.784,0,0,1-3.853,4.113,3.682,3.682,0,0,1-3.708-3.986,3.776,3.776,0,0,1,3.835-4.108,3.664,3.664,0,0,1,3.726,3.981Zm-6.142.082c0,1.692.978,2.975,2.353,2.975,1.346,0,2.352-1.265,2.352-3.007,0-1.315-.655-2.976-2.321-2.976S401.823,19.32,401.823,20.794Z" transform="translate(1031 5031)" fill="url(#linear-gradient-11)"/>
    <path id="Trazado_1345" data-name="Trazado 1345" d="M409.735,19c0-.8-.018-1.456-.063-2.1h1.246L411,18.187h.031a2.854,2.854,0,0,1,2.562-1.456c1.069,0,2.734.637,2.734,3.294v4.622h-1.406V20.184c0-1.247-.464-2.289-1.792-2.289a2.068,2.068,0,0,0-1.984,2.1v4.654h-1.406Z" transform="translate(1031 5031)" fill="url(#linear-gradient-12)"/>
    <path id="Trazado_1346" data-name="Trazado 1346" d="M423.689,14.683V16.9H425.7v1.073h-2.016V22.15c0,.96.273,1.5,1.056,1.5a3.321,3.321,0,0,0,.819-.1l.063,1.055a3.421,3.421,0,0,1-1.251.191,1.957,1.957,0,0,1-1.519-.591,2.881,2.881,0,0,1-.542-2.016V17.977h-1.2V16.9h1.2V15.052Z" transform="translate(1031 5031)" fill="url(#linear-gradient-13)"/>
    <path id="Trazado_1347" data-name="Trazado 1347" d="M427.288,13.291h1.406v4.832h.032a2.591,2.591,0,0,1,1.01-.992,2.873,2.873,0,0,1,1.437-.4c1.038,0,2.7.637,2.7,3.307v4.609h-1.4V20.2c0-1.251-.464-2.307-1.792-2.307a2.027,2.027,0,0,0-1.889,1.411,1.753,1.753,0,0,0-.095.669v4.672h-1.406Z" transform="translate(1031 5031)" fill="url(#linear-gradient-14)"/>
    <path id="Trazado_1348" data-name="Trazado 1348" d="M436.938,21.03a2.48,2.48,0,0,0,2.657,2.689,5.109,5.109,0,0,0,2.143-.4l.237,1.01a6.3,6.3,0,0,1-2.576.477,3.591,3.591,0,0,1-3.8-3.9c0-2.334,1.374-4.172,3.63-4.172,2.526,0,3.2,2.22,3.2,3.644a4.772,4.772,0,0,1-.05.655Zm4.127-1a2.007,2.007,0,0,0-1.952-2.289,2.338,2.338,0,0,0-2.161,2.289Z" transform="translate(1031 5031)" fill="url(#linear-gradient-10)"/>
    <path id="Trazado_1349" data-name="Trazado 1349" d="M349.907,53.006a16.814,16.814,0,0,1-5.533.987,9.258,9.258,0,0,1-6.733-2.38,9.257,9.257,0,0,1-2.512-6.706c.023-5.373,3.713-9.3,9.755-9.3a11.177,11.177,0,0,1,4.49.828l-.559,1.9a9.371,9.371,0,0,0-3.986-.773c-4.381,0-7.243,2.725-7.243,7.243,0,4.572,2.752,7.27,6.952,7.27a7.542,7.542,0,0,0,3.1-.482V46.217h-3.662V44.343h5.933Z" transform="translate(1031 5031)" fill="url(#linear-gradient-16)"/>
    <path id="Trazado_1350" data-name="Trazado 1350" d="M365.2,47.232c0,4.782-3.313,6.87-6.443,6.87-3.5,0-6.2-2.566-6.2-6.656,0-4.331,2.834-6.87,6.415-6.87C362.691,40.576,365.2,43.274,365.2,47.232Zm-10.264.132c0,2.834,1.628,4.973,3.93,4.973,2.243,0,3.927-2.111,3.927-5.028,0-2.188-1.1-4.968-3.872-4.968s-3.982,2.566-3.982,5.023Z" transform="translate(1031 5031)" fill="url(#linear-gradient-17)"/>
    <path id="Trazado_1351" data-name="Trazado 1351" d="M379.857,47.232c0,4.782-3.312,6.87-6.442,6.87-3.5,0-6.2-2.566-6.2-6.656,0-4.331,2.834-6.87,6.415-6.87C377.346,40.576,379.857,43.274,379.857,47.232Zm-10.264.132c0,2.834,1.633,4.973,3.931,4.973,2.243,0,3.926-2.111,3.926-5.028,0-2.188-1.091-4.968-3.876-4.968S369.593,44.907,369.593,47.364Z" transform="translate(1031 5031)" fill="url(#linear-gradient-18)"/>
    <path id="Trazado_1352" data-name="Trazado 1352" d="M393.952,40.867c-.054.937-.109,1.979-.109,3.558v7.511c0,2.967-.587,4.782-1.843,5.906a6.849,6.849,0,0,1-4.7,1.551,8.339,8.339,0,0,1-4.3-1.069l.587-1.792a7.289,7.289,0,0,0,3.8,1.014c2.4,0,4.168-1.256,4.168-4.513V51.586H391.5a4.606,4.606,0,0,1-4.113,2.166c-3.212,0-5.51-2.726-5.51-6.306,0-4.386,2.862-6.87,5.828-6.87a4.3,4.3,0,0,1,4.036,2.243h.055l.1-1.952Zm-2.434,5.109a3.44,3.44,0,0,0-3.421-3.558c-2.243,0-3.849,1.9-3.849,4.891,0,2.539,1.283,4.655,3.822,4.655a3.44,3.44,0,0,0,3.262-2.407,4.135,4.135,0,0,0,.186-1.256Z" transform="translate(1031 5031)" fill="url(#linear-gradient-19)"/>
    <path id="Trazado_1353" data-name="Trazado 1353" d="M397.729,34.829h2.352V53.806h-2.352Z" transform="translate(1031 5031)" fill="url(#linear-gradient-20)"/>
    <path id="Trazado_1354" data-name="Trazado 1354" d="M405.336,47.764c.05,3.181,2.083,4.491,4.436,4.491a8.439,8.439,0,0,0,3.58-.669l.4,1.683a10.384,10.384,0,0,1-4.3.806c-3.985,0-6.365-2.621-6.365-6.525s2.3-6.974,6.069-6.974c4.223,0,5.346,3.712,5.346,6.092a8.548,8.548,0,0,1-.082,1.1Zm6.892-1.683c.028-1.5-.614-3.822-3.257-3.822-2.38,0-3.421,2.193-3.608,3.822Z" transform="translate(1031 5031)" fill="url(#linear-gradient-21)"/>
    <path id="Trazado_1355" data-name="Trazado 1355" d="M423.139,36a27.033,27.033,0,0,1,4.463-.345,7.388,7.388,0,0,1,5.05,1.5,4.853,4.853,0,0,1,1.579,3.768,5.291,5.291,0,0,1-1.392,3.849,7.463,7.463,0,0,1-5.5,1.979,8.062,8.062,0,0,1-1.87-.16v7.216h-2.325Zm2.325,8.69a7.844,7.844,0,0,0,1.924.187c2.8,0,4.513-1.365,4.513-3.849,0-2.38-1.683-3.531-4.249-3.531a9.836,9.836,0,0,0-2.188.187Z" transform="translate(1031 5031)" fill="url(#linear-gradient-22)"/>
    <path id="Trazado_1356" data-name="Trazado 1356" d="M437.129,34.829h2.352V53.806h-2.352Z" transform="translate(1031 5031)" fill="url(#linear-gradient-20)"/>
    <path id="Trazado_1357" data-name="Trazado 1357" d="M450.587,53.806l-.186-1.628h-.078a4.831,4.831,0,0,1-3.958,1.924,3.685,3.685,0,0,1-3.954-3.717c0-3.126,2.78-4.836,7.776-4.814v-.264a2.665,2.665,0,0,0-2.939-2.993,6.445,6.445,0,0,0-3.367.96l-.537-1.552a8.067,8.067,0,0,1,4.249-1.146c3.959,0,4.919,2.7,4.919,5.291V50.7a18.382,18.382,0,0,0,.213,3.1Zm-.346-6.6c-2.566-.055-5.478.4-5.478,2.912a2.082,2.082,0,0,0,2.216,2.247,3.224,3.224,0,0,0,3.13-2.166,2.531,2.531,0,0,0,.132-.75Z" transform="translate(1031 5031)" fill="url(#linear-gradient-24)"/>
    <path id="Trazado_1358" data-name="Trazado 1358" d="M456.934,40.867l2.834,7.648c.292.855.615,1.87.828,2.643h.051c.241-.773.509-1.76.832-2.7l2.566-7.593h2.484L463,50.089c-1.688,4.441-2.834,6.711-4.44,8.1a6.335,6.335,0,0,1-2.885,1.52l-.591-1.975a6.311,6.311,0,0,0,2.061-1.151,7.158,7.158,0,0,0,1.979-2.62,1.746,1.746,0,0,0,.186-.56,2.049,2.049,0,0,0-.159-.614l-4.786-11.925Z" transform="translate(1031 5031)" fill="url(#linear-gradient-25)"/>
    <path id="Trazado_1359" data-name="Trazado 1359" d="M313.333,35.885l-8.97-5.176-7.377,7.132,6.742,6.517,9.605-5.544a1.691,1.691,0,0,0,0-2.929Z" transform="translate(1031 5031)" fill="url(#linear-gradient-26)"/>
    <path id="Trazado_1360" data-name="Trazado 1360" d="M302.841,29.83l-9.872-5.7L271.337,13.046,295.77,36.665Z" transform="translate(1031 5031)" fill="url(#linear-gradient-27)"/>
    <path id="Trazado_1361" data-name="Trazado 1361" d="M271.7,62.287l21.311-11.739,9.2-5.311-6.436-6.221Z" transform="translate(1031 5031)" fill="url(#linear-gradient-28)"/>
    <path id="Trazado_1362" data-name="Trazado 1362" d="M269.893,14l-.023,47.7L294.554,37.84Z" transform="translate(1031 5031)" fill="url(#linear-gradient-29)"/>
  </g>
</svg>
