<svg xmlns="http://www.w3.org/2000/svg" xmlns:xlink="http://www.w3.org/1999/xlink" width="216.936" height="235.183" viewBox="0 0 216.936 235.183">
  <defs>
    <linearGradient id="linear-gradient" x1="0.5" y1="11.833" x2="0.5" y2="0.126" gradientUnits="objectBoundingBox">
      <stop offset="0" stop-color="#4f6abd"/>
      <stop offset="1" stop-color="#66d5ff"/>
    </linearGradient>
    <linearGradient id="linear-gradient-2" x1="0.5" y1="8.175" x2="0.5" y2="-0.719" xlink:href="#linear-gradient"/>
    <linearGradient id="linear-gradient-3" x1="0.5" y1="8.146" x2="0.5" y2="-0.716" xlink:href="#linear-gradient"/>
    <linearGradient id="linear-gradient-4" x1="0.5" y1="5.747" x2="0.5" y2="-5.961" xlink:href="#linear-gradient"/>
    <linearGradient id="linear-gradient-5" x1="0.5" y1="3.551" x2="0.5" y2="-5.343" xlink:href="#linear-gradient"/>
    <linearGradient id="linear-gradient-6" x1="0.5" y1="3.539" x2="0.5" y2="-5.324" xlink:href="#linear-gradient"/>
    <linearGradient id="linear-gradient-10" x1="0.5" y1="2.39" x2="0.5" y2="-0.358" xlink:href="#linear-gradient"/>
    <linearGradient id="linear-gradient-11" x1="0.5" y1="5.31" x2="0.5" y2="-9.725" xlink:href="#linear-gradient"/>
    <linearGradient id="linear-gradient-12" x1="0.5" y1="2.399" x2="0.5" y2="-0.362" xlink:href="#linear-gradient"/>
    <linearGradient id="linear-gradient-13" x1="0.5" y1="7.224" x2="0.5" y2="-3.133" xlink:href="#linear-gradient"/>
    <linearGradient id="linear-gradient-14" x1="0.5" y1="7.203" x2="0.5" y2="-6.271" xlink:href="#linear-gradient"/>
    <linearGradient id="linear-gradient-15" x1="0.5" y1="4.365" x2="0.5" y2="-2.969" xlink:href="#linear-gradient"/>
    <linearGradient id="linear-gradient-16" x1="0.5" y1="4.445" x2="0.5" y2="-3.024" xlink:href="#linear-gradient"/>
    <linearGradient id="linear-gradient-17" x1="0.5" y1="7.351" x2="0.5" y2="-1.597" xlink:href="#linear-gradient"/>
    <linearGradient id="linear-gradient-18" x1="0.5" y1="21.948" x2="0.5" y2="-4.732" xlink:href="#linear-gradient"/>
    <linearGradient id="linear-gradient-19" x1="0.5" y1="7.187" x2="0.5" y2="-6.744" xlink:href="#linear-gradient"/>
    <linearGradient id="linear-gradient-20" x1="0.5" y1="9.624" x2="0.5" y2="-10.041" xlink:href="#linear-gradient"/>
  </defs>
  <g id="Grupo_1038" data-name="Grupo 1038" transform="translate(-868.579 -3655.583)">
    <g id="Grupo_949" data-name="Grupo 949">
      <g id="Grupo_943" data-name="Grupo 943">
        <path id="Trazado_1130" data-name="Trazado 1130" d="M975.324,3683.318a13.868,13.868,0,1,1,13.868-13.867A13.883,13.883,0,0,1,975.324,3683.318Zm0-21.158a7.291,7.291,0,1,0,7.291,7.291A7.3,7.3,0,0,0,975.324,3662.16Z" fill="url(#linear-gradient)"/>
        <path id="Trazado_1131" data-name="Trazado 1131" d="M953.228,3721.826a3.34,3.34,0,0,1-.579-.051,3.288,3.288,0,0,1-2.663-3.812L953.3,3699.3A15.885,15.885,0,0,1,965,3686.384l3.7-.959a3.288,3.288,0,1,1,1.652,6.366l-3.694.959a9.309,9.309,0,0,0-6.865,7.591l-.012.07-3.317,18.7A3.29,3.29,0,0,1,953.228,3721.826Z" fill="url(#linear-gradient-2)"/>
        <path id="Trazado_1132" data-name="Trazado 1132" d="M997.983,3721.957a3.29,3.29,0,0,1-3.234-2.715l-3.341-18.831-.012-.071a9.308,9.308,0,0,0-6.864-7.59l-3.7-.959a3.289,3.289,0,0,1,1.653-6.366l3.694.959A15.882,15.882,0,0,1,997.89,3699.3l3.335,18.8a3.288,3.288,0,0,1-2.663,3.812A3.373,3.373,0,0,1,997.983,3721.957Z" fill="url(#linear-gradient-3)"/>
      </g>
      <g id="Grupo_944" data-name="Grupo 944">
        <path id="Trazado_1133" data-name="Trazado 1133" d="M1059.564,3852.128a13.867,13.867,0,1,1,13.868-13.868A13.883,13.883,0,0,1,1059.564,3852.128Zm0-21.158a7.291,7.291,0,1,0,7.291,7.29A7.3,7.3,0,0,0,1059.564,3830.97Z" fill="url(#linear-gradient-4)"/>
        <path id="Trazado_1134" data-name="Trazado 1134" d="M1037.467,3890.636a3.3,3.3,0,0,1-3.242-3.864l3.312-18.667a15.882,15.882,0,0,1,11.706-12.911l3.694-.96a3.289,3.289,0,0,1,1.653,6.366l-3.695.959a9.312,9.312,0,0,0-6.865,7.591c0,.024-.007.047-.011.071l-3.318,18.7A3.29,3.29,0,0,1,1037.467,3890.636Z" fill="url(#linear-gradient-5)"/>
        <path id="Trazado_1135" data-name="Trazado 1135" d="M1082.223,3890.766a3.289,3.289,0,0,1-3.234-2.714l-3.341-18.831-.012-.071a9.31,9.31,0,0,0-6.865-7.591l-3.694-.959a3.289,3.289,0,0,1,1.652-6.366l3.695.96a15.882,15.882,0,0,1,11.706,12.911l3.334,18.8a3.29,3.29,0,0,1-3.241,3.863Z" fill="url(#linear-gradient-6)"/>
      </g>
      <g id="Grupo_945" data-name="Grupo 945">
        <path id="Trazado_1136" data-name="Trazado 1136" d="M893.969,3852.128a13.867,13.867,0,1,1,13.868-13.868A13.883,13.883,0,0,1,893.969,3852.128Zm0-21.158a7.291,7.291,0,1,0,7.291,7.29A7.3,7.3,0,0,0,893.969,3830.97Z" fill="url(#linear-gradient-4)"/>
        <path id="Trazado_1137" data-name="Trazado 1137" d="M871.872,3890.636a3.3,3.3,0,0,1-3.242-3.864l3.312-18.667a15.88,15.88,0,0,1,11.7-12.911l3.7-.96a3.289,3.289,0,0,1,1.653,6.366l-3.7.959a9.31,9.31,0,0,0-6.865,7.591c0,.024-.007.047-.012.071l-3.317,18.7A3.29,3.29,0,0,1,871.872,3890.636Z" fill="url(#linear-gradient-5)"/>
        <path id="Trazado_1138" data-name="Trazado 1138" d="M916.627,3890.766a3.289,3.289,0,0,1-3.234-2.714l-3.341-18.831c0-.024-.008-.048-.011-.071a9.312,9.312,0,0,0-6.865-7.591l-3.7-.959a3.289,3.289,0,0,1,1.653-6.366l3.7.96a15.881,15.881,0,0,1,11.705,12.911l3.335,18.8a3.29,3.29,0,0,1-3.242,3.863Z" fill="url(#linear-gradient-6)"/>
      </g>
      <g id="Grupo_946" data-name="Grupo 946">
        <path id="Trazado_1139" data-name="Trazado 1139" d="M885.383,3819.56a3.289,3.289,0,0,1-3.2-2.526,96.477,96.477,0,0,1-2.623-22.385,95.049,95.049,0,0,1,20.635-59.486,96.546,96.546,0,0,1,51.889-33.654,3.289,3.289,0,1,1,1.606,6.378,89.931,89.931,0,0,0-48.334,31.353,88.54,88.54,0,0,0-19.22,55.409,89.88,89.88,0,0,0,2.444,20.858,3.294,3.294,0,0,1-3.2,4.053Z" fill="url(#linear-gradient-10)"/>
        <path id="Trazado_1140" data-name="Trazado 1140" d="M975.6,3890.691a95.667,95.667,0,0,1-52.418-15.553,3.288,3.288,0,0,1,3.594-5.508,89.527,89.527,0,0,0,97.65,0,3.289,3.289,0,0,1,3.594,5.509A95.674,95.674,0,0,1,975.6,3890.691Z" fill="url(#linear-gradient-11)"/>
        <path id="Trazado_1141" data-name="Trazado 1141" d="M1065.909,3819.22a3.292,3.292,0,0,1-3.205-4.04,89.595,89.595,0,0,0-64.387-107.088,3.289,3.289,0,1,1,1.665-6.363,96.172,96.172,0,0,1,69.125,114.954A3.29,3.29,0,0,1,1065.909,3819.22Z" fill="url(#linear-gradient-12)"/>
      </g>
      <g id="Grupo_948" data-name="Grupo 948">
        <g id="Grupo_947" data-name="Grupo 947">
          <path id="Trazado_1142" data-name="Trazado 1142" d="M975.733,3788.644a15.676,15.676,0,1,1,15.676-15.676A15.693,15.693,0,0,1,975.733,3788.644Zm0-25.912a10.236,10.236,0,1,0,10.236,10.236A10.248,10.248,0,0,0,975.733,3762.732Z" fill="url(#linear-gradient-13)"/>
          <path id="Trazado_1143" data-name="Trazado 1143" d="M961.129,3834.295a2.648,2.648,0,0,1-.344-.022,2.721,2.721,0,0,1-2.359-3.038l2.349-18.658a2.72,2.72,0,0,1,5.4.68l-2.349,18.657A2.721,2.721,0,0,1,961.129,3834.295Zm29.21-.289a2.721,2.721,0,0,1-2.686-2.311l-2.8-18.369a2.72,2.72,0,0,1,5.379-.818l2.795,18.369a2.721,2.721,0,0,1-2.693,3.129Z" fill="url(#linear-gradient-14)"/>
          <path id="Trazado_1144" data-name="Trazado 1144" d="M949.747,3834.808a2.726,2.726,0,0,1-2.709-3l2.6-25.083c0-.046.01-.091.017-.136a18.143,18.143,0,0,1,13.379-14.793l4.525-1.175a2.72,2.72,0,1,1,1.367,5.265l-4.524,1.175a12.708,12.708,0,0,0-9.361,10.3l-2.592,25.011A2.72,2.72,0,0,1,949.747,3834.808Z" fill="url(#linear-gradient-15)"/>
          <path id="Trazado_1145" data-name="Trazado 1145" d="M1001.464,3834.006a2.721,2.721,0,0,1-2.7-2.446l-2.45-24.207a12.707,12.707,0,0,0-9.36-10.293l-4.525-1.175a2.72,2.72,0,1,1,1.368-5.265l4.524,1.175a18.145,18.145,0,0,1,13.38,14.793c.007.047.013.1.018.143l2.457,24.281a2.719,2.719,0,0,1-2.432,2.98C1001.648,3834,1001.555,3834.006,1001.464,3834.006Z" fill="url(#linear-gradient-16)"/>
        </g>
      </g>
    </g>
    <g id="Grupo_950" data-name="Grupo 950">
      <path id="Trazado_1146" data-name="Trazado 1146" d="M975.325,3753.321a2.622,2.622,0,0,1-2.623-2.622v-31.046a2.622,2.622,0,0,1,5.245,0V3750.7A2.622,2.622,0,0,1,975.325,3753.321Z" fill="url(#linear-gradient-17)"/>
      <path id="Trazado_1147" data-name="Trazado 1147" d="M982.25,3728.833a2.614,2.614,0,0,1-1.854-.768l-5.071-5.071-5.072,5.071a2.623,2.623,0,0,1-3.709-3.709l6.926-6.926a2.625,2.625,0,0,1,3.709,0l6.926,6.926a2.623,2.623,0,0,1-1.855,4.477Z" fill="url(#linear-gradient-18)"/>
    </g>
    <g id="Grupo_951" data-name="Grupo 951">
      <path id="Trazado_1148" data-name="Trazado 1148" d="M941.075,3817.354a2.622,2.622,0,0,1-.607,3.659l-25.25,18.062a2.623,2.623,0,1,1-3.052-4.266l25.251-18.062A2.621,2.621,0,0,1,941.075,3817.354Z" fill="url(#linear-gradient-19)"/>
      <path id="Trazado_1149" data-name="Trazado 1149" d="M917.129,3825.968a2.621,2.621,0,0,1,.454,1.956L916.409,3835l7.075,1.174a2.622,2.622,0,1,1-.859,5.174l-9.662-1.6a2.623,2.623,0,0,1-2.158-3.017l1.6-9.662a2.623,2.623,0,0,1,4.72-1.1Z" fill="url(#linear-gradient-20)"/>
    </g>
    <g id="Grupo_952" data-name="Grupo 952">
      <path id="Trazado_1150" data-name="Trazado 1150" d="M1010.012,3817.354a2.623,2.623,0,0,0,.608,3.659l25.25,18.062a2.623,2.623,0,1,0,3.052-4.266l-25.251-18.062A2.623,2.623,0,0,0,1010.012,3817.354Z" fill="url(#linear-gradient-19)"/>
      <path id="Trazado_1151" data-name="Trazado 1151" d="M1033.959,3825.968a2.616,2.616,0,0,0-.454,1.956l1.174,7.075-7.075,1.174a2.622,2.622,0,1,0,.859,5.174l9.662-1.6a2.623,2.623,0,0,0,2.158-3.017l-1.6-9.662a2.623,2.623,0,0,0-4.72-1.1Z" fill="url(#linear-gradient-20)"/>
    </g>
  </g>
</svg>
