<svg xmlns="http://www.w3.org/2000/svg" xmlns:xlink="http://www.w3.org/1999/xlink" width="191.948" height="216.859" viewBox="0 0 191.948 216.859">
  <defs>
    <linearGradient id="linear-gradient" x1="0.5" y1="6.127" x2="0.5" y2="-3.033" gradientUnits="objectBoundingBox">
      <stop offset="0" stop-color="#4f6abd"/>
      <stop offset="1" stop-color="#66d5ff"/>
    </linearGradient>
    <linearGradient id="linear-gradient-2" x1="0.5" y1="2.215" x2="0.5" y2="-0.554" xlink:href="#linear-gradient"/>
    <linearGradient id="linear-gradient-3" x1="0.5" y1="2.298" x2="0.5" y2="-0.575" xlink:href="#linear-gradient"/>
    <linearGradient id="linear-gradient-4" x1="0.5" y1="5.137" x2="0.5" y2="-4.311" xlink:href="#linear-gradient"/>
    <linearGradient id="linear-gradient-5" x1="0.5" y1="1.992" x2="0.5" y2="-0.993" xlink:href="#linear-gradient"/>
    <linearGradient id="linear-gradient-6" x1="0.5" y1="3.224" x2="0.5" y2="-3.468" xlink:href="#linear-gradient"/>
    <linearGradient id="linear-gradient-9" x1="0.5" y1="5.839" x2="0.5" y2="-8.719" xlink:href="#linear-gradient"/>
    <linearGradient id="linear-gradient-10" x1="0.5" y1="7.431" x2="0.5" y2="-8.901" xlink:href="#linear-gradient"/>
    <linearGradient id="linear-gradient-11" x1="0.5" y1="5.808" x2="0.5" y2="-0.17" xlink:href="#linear-gradient"/>
    <linearGradient id="linear-gradient-12" x1="0.5" y1="16.495" x2="0.5" y2="-3.509" xlink:href="#linear-gradient"/>
    <linearGradient id="linear-gradient-13" x1="0.5" y1="24.333" x2="0.5" y2="0.006" xlink:href="#linear-gradient"/>
  </defs>
  <g id="Grupo_1036" data-name="Grupo 1036" transform="translate(-496.174 -3664.745)">
    <g id="Grupo_940" data-name="Grupo 940">
      <path id="Trazado_1117" data-name="Trazado 1117" d="M595.412,3807.8a17.724,17.724,0,1,1,17.724-17.724A17.743,17.743,0,0,1,595.412,3807.8Zm0-28.87a11.147,11.147,0,1,0,11.147,11.146A11.159,11.159,0,0,0,595.412,3778.932Z" fill="url(#linear-gradient)"/>
      <path id="Trazado_1118" data-name="Trazado 1118" d="M571.254,3847.1a3.288,3.288,0,0,1-3.286-3.223l-.511-25.716-18.249-38.41c-.035-.075-.068-.153-.1-.231a11.782,11.782,0,0,1-.342-7.381l9.931-35.245.015-.053a9.831,9.831,0,0,1,18.905,5.4l-8.241,32.026,6.17,11.685a3.288,3.288,0,0,1-5.815,3.071l-6.764-12.809a3.287,3.287,0,0,1-.277-2.355l8.569-33.3a3.26,3.26,0,0,0-1.944-3.923,3.253,3.253,0,0,0-4.3,2.074l-9.922,35.213a5.17,5.17,0,0,0,.112,3.134l18.491,38.921a3.285,3.285,0,0,1,.317,1.346l.525,26.423a3.288,3.288,0,0,1-3.222,3.353Z" fill="url(#linear-gradient-2)"/>
      <path id="Trazado_1119" data-name="Trazado 1119" d="M619.083,3842.824H619a3.288,3.288,0,0,1-3.209-3.365l.525-22.151a3.29,3.29,0,0,1,.317-1.333l18.491-38.921a5.17,5.17,0,0,0,.112-3.134l-9.922-35.213a3.255,3.255,0,0,0-6.252,1.808l8.58,33.339a3.288,3.288,0,0,1-.277,2.355l-6.764,12.809a3.288,3.288,0,0,1-5.815-3.071l6.17-11.685-8.252-32.067a9.831,9.831,0,0,1,18.916-5.357l.015.053,9.931,35.245a11.789,11.789,0,0,1-.341,7.381c-.03.078-.063.156-.1.231l-18.252,38.416-.508,21.45A3.289,3.289,0,0,1,619.083,3842.824Z" fill="url(#linear-gradient-3)"/>
      <path id="Trazado_1120" data-name="Trazado 1120" d="M643.882,3847.374a17.184,17.184,0,1,1,17.183-17.184A17.2,17.2,0,0,1,643.882,3847.374Zm0-27.791a10.607,10.607,0,1,0,10.607,10.607A10.619,10.619,0,0,0,643.882,3819.583Z" fill="url(#linear-gradient-4)"/>
      <path id="Trazado_1121" data-name="Trazado 1121" d="M667.062,3881.6H667a3.288,3.288,0,0,1-3.227-3.348l.475-25.905a3.29,3.29,0,0,1,.318-1.35l16.732-35.218a4.372,4.372,0,0,0,.089-2.632l-8.981-31.873a2.634,2.634,0,0,0-3.476-1.675,2.631,2.631,0,0,0-1.583,3.143l7.768,30.182a3.292,3.292,0,0,1-.277,2.355l-6.122,11.595a3.289,3.289,0,1,1-5.816-3.071l5.529-10.471-7.44-28.91a9.211,9.211,0,0,1,17.723-5.017l.016.054,8.989,31.9a10.983,10.983,0,0,1-.318,6.879c-.03.078-.063.155-.1.23l-16.489,34.707-.462,25.194A3.289,3.289,0,0,1,667.062,3881.6Z" fill="url(#linear-gradient-5)"/>
      <path id="Trazado_1122" data-name="Trazado 1122" d="M627.19,3881.6a3.288,3.288,0,0,1-3.289-3.288V3869.5l-8,3.722a13.256,13.256,0,0,1-15.77-3.539l-17.841-21.449a9.237,9.237,0,0,1,13.783-12.284l14.6,15.3,14.667-6.915a3.289,3.289,0,1,1,2.8,5.949l-16.812,7.926a3.29,3.29,0,0,1-3.781-.7l-16.235-17.01a2.66,2.66,0,0,0-3.97,3.538l17.841,21.449a6.676,6.676,0,0,0,7.939,1.781l12.674-5.9a3.289,3.289,0,0,1,4.676,2.982v13.973A3.288,3.288,0,0,1,627.19,3881.6Z" fill="url(#linear-gradient-6)"/>
      <path id="Trazado_1123" data-name="Trazado 1123" d="M540.416,3847.374A17.184,17.184,0,1,1,557.6,3830.19,17.2,17.2,0,0,1,540.416,3847.374Zm0-27.791a10.607,10.607,0,1,0,10.607,10.607A10.619,10.619,0,0,0,540.416,3819.583Z" fill="url(#linear-gradient-4)"/>
      <path id="Trazado_1124" data-name="Trazado 1124" d="M517.236,3881.6a3.288,3.288,0,0,1-3.287-3.228l-.462-25.194L497,3818.475c-.036-.075-.069-.152-.1-.23a10.983,10.983,0,0,1-.319-6.879l8.99-31.9.015-.054a9.211,9.211,0,0,1,17.713,5.058l-7.429,28.869,5.529,10.471a3.289,3.289,0,1,1-5.816,3.071l-6.122-11.595a3.287,3.287,0,0,1-.277-2.355l7.756-30.141a2.641,2.641,0,0,0-1.571-3.184,2.635,2.635,0,0,0-3.477,1.675l-8.98,31.872a4.357,4.357,0,0,0,.089,2.632L519.732,3851a3.288,3.288,0,0,1,.317,1.35l.476,25.905a3.289,3.289,0,0,1-3.228,3.348Z" fill="url(#linear-gradient-5)"/>
      <path id="Trazado_1125" data-name="Trazado 1125" d="M557.108,3881.6a3.288,3.288,0,0,1-3.288-3.288v-13.973a3.288,3.288,0,0,1,5.283-2.615l9.931,7.578a.934.934,0,0,0,1.063.046l15.049-9.541a3.288,3.288,0,1,1,3.521,5.555l-15.049,9.541a7.537,7.537,0,0,1-8.573-.373l-4.649-3.546v7.328A3.288,3.288,0,0,1,557.108,3881.6Z" fill="url(#linear-gradient-9)"/>
      <path id="Trazado_1126" data-name="Trazado 1126" d="M570.278,3861.677a3.289,3.289,0,0,1-2.209-.851l-14.687-13.3a3.289,3.289,0,0,1,4.416-4.875l12.938,11.721,7.727-4.31a3.288,3.288,0,0,1,3.2,5.743l-9.787,5.46A3.281,3.281,0,0,1,570.278,3861.677Z" fill="url(#linear-gradient-10)"/>
    </g>
    <g id="Grupo_941" data-name="Grupo 941">
      <path id="Trazado_1127" data-name="Trazado 1127" d="M596.867,3728.366H596.6l-.528-.007c-9.965-.123-17.988-7.043-17.885-15.425a3.288,3.288,0,0,1,3.287-3.248h.041a3.288,3.288,0,0,1,3.248,3.329c-.058,4.756,5.051,8.69,11.39,8.768l.527.006.192,0c6.252,0,11.353-3.778,11.411-8.486v-.078a7.6,7.6,0,0,0-3.032-5.91,13.36,13.36,0,0,0-8.357-2.866,19.943,19.943,0,0,1-12.465-4.371,13.642,13.642,0,0,1,.27-21.972,19.9,19.9,0,0,1,12.3-4.065c.09,0,.181,0,.272,0l.529.006a19.942,19.942,0,0,1,12.464,4.372,14.033,14.033,0,0,1,5.419,11.054,3.288,3.288,0,0,1-6.576-.082,7.6,7.6,0,0,0-3.033-5.9,13.359,13.359,0,0,0-8.356-2.864l-.529-.007a13.3,13.3,0,0,0-8.424,2.658,7.092,7.092,0,0,0-.145,11.731,13.359,13.359,0,0,0,8.357,2.865,19.944,19.944,0,0,1,12.465,4.372,14.035,14.035,0,0,1,5.419,11.054v.077C614.755,3721.692,606.709,3728.366,596.867,3728.366Z" fill="url(#linear-gradient-11)"/>
      <path id="Trazado_1128" data-name="Trazado 1128" d="M596.27,3738.017h-.041a3.29,3.29,0,0,1-3.248-3.329l.119-9.655a3.289,3.289,0,0,1,3.288-3.248h.041a3.288,3.288,0,0,1,3.247,3.329l-.119,9.655A3.288,3.288,0,0,1,596.27,3738.017Z" fill="url(#linear-gradient-12)"/>
      <path id="Trazado_1129" data-name="Trazado 1129" d="M597.009,3678.093h-.042a3.288,3.288,0,0,1-3.247-3.329l.084-6.771a3.288,3.288,0,0,1,3.287-3.248h.041a3.287,3.287,0,0,1,3.247,3.328l-.083,6.771A3.288,3.288,0,0,1,597.009,3678.093Z" fill="url(#linear-gradient-13)"/>
    </g>
  </g>
</svg>
