<svg xmlns="http://www.w3.org/2000/svg" xmlns:xlink="http://www.w3.org/1999/xlink" width="189.356" height="204.146" viewBox="0 0 189.356 204.146">
  <defs>
    <linearGradient id="linear-gradient" x1="0.551" y1="1.112" x2="0.439" y2="-0.229" gradientUnits="objectBoundingBox">
      <stop offset="0" stop-color="#4f6abd"/>
      <stop offset="1" stop-color="#66d5ff"/>
    </linearGradient>
    <linearGradient id="linear-gradient-2" x1="0.994" y1="6.4" x2="0.564" y2="1.261" xlink:href="#linear-gradient"/>
    <linearGradient id="linear-gradient-3" x1="0.987" y1="4.03" x2="0.457" y2="0.191" xlink:href="#linear-gradient"/>
    <linearGradient id="linear-gradient-4" x1="0.976" y1="3.947" x2="0.448" y2="0.123" xlink:href="#linear-gradient"/>
    <linearGradient id="linear-gradient-5" x1="0.916" y1="5.472" x2="0.486" y2="0.333" xlink:href="#linear-gradient"/>
    <linearGradient id="linear-gradient-6" x1="1.007" y1="7.228" x2="0.379" y2="-1.102" xlink:href="#linear-gradient"/>
    <linearGradient id="linear-gradient-7" x1="0.664" y1="2.342" x2="0.39" y2="-0.385" xlink:href="#linear-gradient"/>
    <linearGradient id="linear-gradient-8" x1="0.942" y1="5.778" x2="0.512" y2="0.639" xlink:href="#linear-gradient"/>
    <linearGradient id="linear-gradient-9" x1="1.035" y1="7.597" x2="0.407" y2="-0.733" xlink:href="#linear-gradient"/>
    <linearGradient id="linear-gradient-10" x1="0.681" y1="2.519" x2="0.407" y2="-0.209" xlink:href="#linear-gradient"/>
  </defs>
  <g id="Grupo_1037" data-name="Grupo 1037" transform="translate(-1232.805 -3671.102)">
    <path id="Trazado_1152" data-name="Trazado 1152" d="M1331.9,3875.248h-8.977A11.937,11.937,0,0,1,1311,3863.325a5.678,5.678,0,0,0-9.693-4.015,11.936,11.936,0,0,1-16.861,0l-6.348-6.348a11.921,11.921,0,0,1,0-16.86,5.679,5.679,0,0,0-4.015-9.694,11.937,11.937,0,0,1-11.923-11.923v-8.976a11.936,11.936,0,0,1,11.923-11.923,5.678,5.678,0,0,0,4.015-9.694,11.937,11.937,0,0,1,0-16.861l6.348-6.347a11.92,11.92,0,0,1,16.861,0,5.678,5.678,0,0,0,9.693-4.016,11.936,11.936,0,0,1,11.923-11.922h8.977a11.935,11.935,0,0,1,11.922,11.922,5.679,5.679,0,0,0,9.694,4.016,11.935,11.935,0,0,1,16.861,0l6.347,6.347a11.936,11.936,0,0,1,0,16.861,5.679,5.679,0,0,0,4.016,9.694,11.936,11.936,0,0,1,11.922,11.923v8.976a11.936,11.936,0,0,1-11.922,11.923,5.678,5.678,0,0,0-4.016,9.693,11.921,11.921,0,0,1,0,16.862l-6.347,6.347a11.936,11.936,0,0,1-16.861,0,5.679,5.679,0,0,0-9.694,4.015A11.936,11.936,0,0,1,1331.9,3875.248Zm-26.653-23.876a12.1,12.1,0,0,1,4.638.938,11.737,11.737,0,0,1,7.36,11.015,5.685,5.685,0,0,0,5.678,5.679h8.977a5.685,5.685,0,0,0,5.678-5.679,11.923,11.923,0,0,1,20.353-8.431,5.686,5.686,0,0,0,8.031,0l6.347-6.347a5.678,5.678,0,0,0,0-8.03,11.923,11.923,0,0,1,8.43-20.354,5.685,5.685,0,0,0,5.679-5.678v-8.976a5.685,5.685,0,0,0-5.678-5.679,11.922,11.922,0,0,1-8.431-20.353,5.68,5.68,0,0,0,0-8.031l-6.347-6.347a5.679,5.679,0,0,0-8.031,0,11.922,11.922,0,0,1-20.353-8.431,5.685,5.685,0,0,0-5.678-5.678h-8.977a5.685,5.685,0,0,0-5.678,5.678,11.923,11.923,0,0,1-20.354,8.431,5.678,5.678,0,0,0-8.03,0l-6.347,6.347a5.686,5.686,0,0,0,0,8.031,11.923,11.923,0,0,1-8.431,20.353,5.685,5.685,0,0,0-5.678,5.679v8.976a5.684,5.684,0,0,0,5.678,5.678,11.923,11.923,0,0,1,8.431,20.354,5.684,5.684,0,0,0,0,8.03l6.347,6.348a5.685,5.685,0,0,0,8.03,0A11.761,11.761,0,0,1,1305.25,3851.372Zm22.164-22.2A19.172,19.172,0,1,1,1346.587,3810,19.194,19.194,0,0,1,1327.414,3829.169Zm0-32.1A12.928,12.928,0,1,0,1340.342,3810,12.942,12.942,0,0,0,1327.414,3797.069Z" fill="url(#linear-gradient)"/>
    <g id="Grupo_954" data-name="Grupo 954">
      <path id="Trazado_1153" data-name="Trazado 1153" d="M1327.046,3705.152a17.025,17.025,0,1,1,17.025-17.025A17.045,17.045,0,0,1,1327.046,3705.152Zm0-27.806a10.781,10.781,0,1,0,10.78,10.781A10.793,10.793,0,0,0,1327.046,3677.346Z" fill="url(#linear-gradient-2)"/>
      <path id="Trazado_1154" data-name="Trazado 1154" d="M1298,3752.716a3.219,3.219,0,0,1-.549-.048,3.123,3.123,0,0,1-2.529-3.62l4.355-24.543a19.673,19.673,0,0,1,14.5-16l4.856-1.261a3.122,3.122,0,0,1,1.569,6.044l-4.855,1.26a13.436,13.436,0,0,0-9.906,10.953c0,.022-.007.045-.011.067l-4.36,24.576A3.123,3.123,0,0,1,1298,3752.716Z" fill="url(#linear-gradient-3)"/>
      <path id="Trazado_1155" data-name="Trazado 1155" d="M1356.824,3752.888a3.122,3.122,0,0,1-3.07-2.578l-4.391-24.747-.011-.067a13.434,13.434,0,0,0-9.906-10.953l-4.855-1.26a3.122,3.122,0,0,1,1.57-6.044l4.855,1.26a19.674,19.674,0,0,1,14.5,16l4.385,24.715a3.126,3.126,0,0,1-3.078,3.669Z" fill="url(#linear-gradient-4)"/>
    </g>
    <g id="Grupo_955" data-name="Grupo 955">
      <path id="Trazado_1156" data-name="Trazado 1156" d="M1390.218,3731.689a17.025,17.025,0,1,1,17.025-17.025A17.044,17.044,0,0,1,1390.218,3731.689Zm0-27.8a10.781,10.781,0,1,0,10.781,10.78A10.792,10.792,0,0,0,1390.218,3703.884Z" fill="url(#linear-gradient-5)"/>
      <path id="Trazado_1157" data-name="Trazado 1157" d="M1365.537,3754.678a3.17,3.17,0,0,1-.482-.037,3.123,3.123,0,0,1-2.607-3.564,19.672,19.672,0,0,1,14.507-16.04l4.855-1.261a3.122,3.122,0,0,1,1.57,6.044l-4.856,1.261a13.433,13.433,0,0,0-9.905,10.952A3.123,3.123,0,0,1,1365.537,3754.678Z" fill="url(#linear-gradient-6)"/>
      <path id="Trazado_1158" data-name="Trazado 1158" d="M1378.767,3797.831a10.019,10.019,0,0,1-4.441-19l24.582-12.637-1.661-8.962a3.122,3.122,0,0,1,6.14-1.138l2.085,11.246a3.123,3.123,0,0,1-1.643,3.346l-26.672,13.711-.054.028a3.79,3.79,0,0,0-1.76,4.977,3.77,3.77,0,0,0,5,1.831l32.915-15.941a4.73,4.73,0,0,0,2.583-5.091l-3.3-18.085c-.005-.027-.009-.055-.014-.083a13.433,13.433,0,0,0-9.905-10.952l-4.855-1.261a3.122,3.122,0,1,1,1.569-6.044l4.856,1.261a19.673,19.673,0,0,1,14.5,16l3.294,18.046a10.992,10.992,0,0,1-6,11.832l-32.937,15.952-.038.018A9.984,9.984,0,0,1,1378.767,3797.831Zm2.914-3.777h0Z" fill="url(#linear-gradient-7)"/>
    </g>
    <g id="Grupo_956" data-name="Grupo 956">
      <path id="Trazado_1159" data-name="Trazado 1159" d="M1264.747,3731.689a17.025,17.025,0,1,1,17.025-17.025A17.044,17.044,0,0,1,1264.747,3731.689Zm0-27.8a10.781,10.781,0,1,0,10.78,10.78A10.793,10.793,0,0,0,1264.747,3703.884Z" fill="url(#linear-gradient-8)"/>
      <path id="Trazado_1160" data-name="Trazado 1160" d="M1289.428,3754.678a3.123,3.123,0,0,1-3.082-2.645,13.433,13.433,0,0,0-9.9-10.952l-4.856-1.261a3.122,3.122,0,0,1,1.57-6.044l4.855,1.261a19.674,19.674,0,0,1,14.507,16.04,3.123,3.123,0,0,1-2.607,3.564A3.171,3.171,0,0,1,1289.428,3754.678Z" fill="url(#linear-gradient-9)"/>
      <path id="Trazado_1161" data-name="Trazado 1161" d="M1276.2,3797.831a9.984,9.984,0,0,1-4.237-.949l-.038-.018-32.937-15.952a10.992,10.992,0,0,1-6-11.833l3.294-18.045a19.672,19.672,0,0,1,14.5-16l4.855-1.261a3.122,3.122,0,1,1,1.569,6.044l-4.855,1.261a13.435,13.435,0,0,0-9.906,10.952c0,.028-.008.056-.014.083l-3.3,18.085a4.73,4.73,0,0,0,2.583,5.091l32.915,15.941a3.769,3.769,0,0,0,5-1.831,3.79,3.79,0,0,0-1.76-4.977l-.054-.028-26.672-13.711a3.123,3.123,0,0,1-1.643-3.346l2.085-11.246a3.122,3.122,0,0,1,6.14,1.138l-1.661,8.962,24.582,12.637a10.068,10.068,0,0,1,4.644,13.206,10.044,10.044,0,0,1-9.085,5.794Z" fill="url(#linear-gradient-10)"/>
    </g>
  </g>
</svg>
