<svg xmlns="http://www.w3.org/2000/svg" width="140.71" height="46.929" viewBox="0 0 140.71 46.929">
  <g id="Grupo_1143" data-name="Grupo 1143" transform="translate(-898.901 -973.275)">
    <g id="Grupo_1141" data-name="Grupo 1141">
      <path id="Trazado_1173" data-name="Trazado 1173" d="M912.611,973.275l-13.052,21.412,12.763-5.292.289-.133.289.133,12.763,5.292Z" fill="#fff"/>
      <path id="Trazado_1174" data-name="Trazado 1174" d="M912.611,992.7l-12.9,5.351,12.9,7.434,12.9-7.434Z" fill="#fff"/>
      <path id="Trazado_1175" data-name="Trazado 1175" d="M912.613,1009.21,898.9,1001.3l13.712,18.9,13.712-18.9Z" fill="#fff"/>
    </g>
    <g id="Grupo_1142" data-name="Grupo 1142">
      <path id="Trazado_1176" data-name="Trazado 1176" d="M953.886,996.2H947.62v5.811H954.6v1.746H945.54V987.642h8.705v1.745H947.62v5.094h6.266Z" fill="#fff"/>
      <path id="Trazado_1177" data-name="Trazado 1177" d="M959.7,988.861v3.324h3.013v1.6H959.7v6.242c0,1.435.406,2.248,1.578,2.248a4.667,4.667,0,0,0,1.22-.144l.1,1.579a5.145,5.145,0,0,1-1.866.287,2.915,2.915,0,0,1-2.272-.885,4.287,4.287,0,0,1-.813-3.013v-6.314h-1.794v-1.6h1.794v-2.774Z" fill="#fff"/>
      <path id="Trazado_1178" data-name="Trazado 1178" d="M965.082,986.78h2.1V994h.048a3.907,3.907,0,0,1,1.507-1.483,4.338,4.338,0,0,1,2.152-.6c1.555,0,4.042.956,4.042,4.95v6.888h-2.1v-6.649c0-1.865-.693-3.444-2.678-3.444a3.024,3.024,0,0,0-2.822,2.1,2.539,2.539,0,0,0-.144,1v6.984h-2.1Z" fill="#fff"/>
      <path id="Trazado_1179" data-name="Trazado 1179" d="M979.528,998.356a3.709,3.709,0,0,0,3.971,4.018,7.6,7.6,0,0,0,3.2-.6l.359,1.507a9.4,9.4,0,0,1-3.851.717c-3.563,0-5.691-2.344-5.691-5.836s2.056-6.241,5.428-6.241c3.779,0,4.784,3.324,4.784,5.452a7.9,7.9,0,0,1-.072.981Zm6.171-1.507c.024-1.339-.55-3.42-2.918-3.42-2.129,0-3.061,1.961-3.229,3.42Z" fill="#fff"/>
      <path id="Trazado_1180" data-name="Trazado 1180" d="M990.34,995.8c0-1.363-.024-2.535-.1-3.612h1.842l.071,2.272h.1a3.473,3.473,0,0,1,3.205-2.534,2.275,2.275,0,0,1,.6.071v1.985a3.166,3.166,0,0,0-.718-.071,2.952,2.952,0,0,0-2.822,2.7,5.909,5.909,0,0,0-.1.981v6.17h-2.08Z" fill="#fff"/>
      <path id="Trazado_1181" data-name="Trazado 1181" d="M999.094,998.356a3.708,3.708,0,0,0,3.97,4.018,7.607,7.607,0,0,0,3.2-.6l.358,1.507a9.39,9.39,0,0,1-3.85.717c-3.563,0-5.692-2.344-5.692-5.836s2.057-6.241,5.429-6.241c3.779,0,4.783,3.324,4.783,5.452a7.9,7.9,0,0,1-.072.981Zm6.17-1.507c.024-1.339-.55-3.42-2.918-3.42-2.128,0-3.061,1.961-3.228,3.42Z" fill="#fff"/>
      <path id="Trazado_1182" data-name="Trazado 1182" d="M1019.591,1000.6c0,1.2.024,2.248.1,3.157h-1.866l-.119-1.889h-.048a4.357,4.357,0,0,1-3.827,2.152c-1.817,0-3.993-1.005-3.993-5.07v-6.769h2.1v6.41c0,2.2.67,3.683,2.583,3.683a2.963,2.963,0,0,0,2.966-2.989v-7.1h2.1Z" fill="#fff"/>
      <path id="Trazado_1183" data-name="Trazado 1183" d="M1023.085,995.319c0-1.2-.024-2.177-.1-3.134h1.842l.095,1.866H1025a3.99,3.99,0,0,1,3.635-2.128,3.421,3.421,0,0,1,3.277,2.319h.047a4.773,4.773,0,0,1,1.292-1.506,3.95,3.95,0,0,1,2.559-.813c1.531,0,3.8,1,3.8,5.022v6.816h-2.057v-6.553c0-2.224-.813-3.564-2.511-3.564a2.725,2.725,0,0,0-2.488,1.914,3.48,3.48,0,0,0-.167,1.052v7.151h-2.057v-6.936c0-1.841-.813-3.181-2.415-3.181a3.136,3.136,0,0,0-2.774,3.133v6.984h-2.057Z" fill="#fff"/>
    </g>
  </g>
</svg>
