<svg xmlns="http://www.w3.org/2000/svg" width="186.908" height="32.778" viewBox="0 0 186.908 32.778">
  <g id="Grupo_1140" data-name="Grupo 1140" transform="translate(-649.2 -980.351)">
    <path id="Trazado_1224" data-name="Trazado 1224" d="M730.407,1002.253v-6.827a4.059,4.059,0,0,0-4.287-4.333,4.22,4.22,0,0,0-3.828,1.939,4,4,0,0,0-3.6-1.939,3.605,3.605,0,0,0-3.186,1.62v-1.365h-2.371v10.9h2.394v-6.04c0-1.893,1.047-2.894,2.667-2.894s2.371,1.024,2.371,2.871v6.063h2.38v-6.04a2.568,2.568,0,0,1,2.667-2.894c1.575,0,2.394,1.024,2.394,2.871v6.063Zm35.423-10.9h-3.873v-3.3h-2.394v3.3h-2.212v2.166h2.212v4.966c0,2.53.978,4.037,3.782,4.037a5.58,5.58,0,0,0,2.963-.842l-.683-2.03a4.375,4.375,0,0,1-2.1.614c-1.183,0-1.575-.728-1.575-1.82v-4.925h3.873Zm20.222-.273a3.213,3.213,0,0,0-2.872,1.6v-1.324h-2.349v10.9H783.2v-6.108c0-1.821.774-2.8,2.326-2.8a3.883,3.883,0,0,1,1.484.273l.728-2.234A5.061,5.061,0,0,0,786.052,991.084Zm-30.572,1.138a8.14,8.14,0,0,0-4.446-1.138c-2.758,0-4.552,1.324-4.552,3.486,0,1.78,1.32,2.872,3.76,3.213l1.115.16c1.3.182,1.916.523,1.916,1.138,0,.842-.865,1.324-2.485,1.324a5.808,5.808,0,0,1-3.641-1.138l-1.079,1.843a7.86,7.86,0,0,0,4.72,1.416c3.145,0,4.97-1.484,4.97-3.555,0-1.916-1.438-2.917-3.8-3.258l-1.115-.16c-1.024-.136-1.848-.341-1.848-1.069,0-.8.774-1.275,2.075-1.275a7.031,7.031,0,0,1,3.4.933Zm63.5-1.138a3.213,3.213,0,0,0-2.871,1.6v-1.324H813.76v10.9h2.371v-6.108c0-1.821.774-2.8,2.326-2.8a3.883,3.883,0,0,1,1.484.273l.728-2.234A5.063,5.063,0,0,0,818.98,991.084ZM788.446,996.8a5.505,5.505,0,0,0,5.812,5.721,5.708,5.708,0,0,0,3.918-1.3l-1.138-1.916a4.792,4.792,0,0,1-2.849.979,3.493,3.493,0,0,1,0-6.973,4.779,4.779,0,0,1,2.849.979l1.138-1.917a5.708,5.708,0,0,0-3.918-1.3,5.5,5.5,0,0,0-5.812,5.721Zm22.2,0v-5.462h-2.371v1.325a4.134,4.134,0,0,0-3.441-1.6,5.727,5.727,0,0,0,0,11.442,4.134,4.134,0,0,0,3.441-1.6v1.32h2.371Zm-8.821,0a3.3,3.3,0,1,1,3.3,3.486A3.266,3.266,0,0,1,801.826,996.8Zm-28.609-5.721c-3.186,0-5.425,2.326-5.425,5.721a5.374,5.374,0,0,0,5.584,5.721,6.629,6.629,0,0,0,4.47-1.529l-1.161-1.757a5.2,5.2,0,0,1-3.186,1.138,3.024,3.024,0,0,1-3.259-2.667h8.092c.023-.3.046-.592.046-.911,0-3.395-2.121-5.721-5.175-5.721Zm-.046,2.121a2.7,2.7,0,0,1,2.758,2.644h-5.648a2.8,2.8,0,0,1,2.9-2.644Zm59.463,3.6v-9.826h-2.371v5.7a4.133,4.133,0,0,0-3.441-1.6,5.727,5.727,0,0,0,0,11.442,4.132,4.132,0,0,0,3.441-1.6v1.32h2.371Zm2.772,4.442a.69.69,0,0,1,.273.055.7.7,0,0,1,.223.15.668.668,0,0,1,.15.218.682.682,0,0,1-.15.756.735.735,0,0,1-.223.15.69.69,0,0,1-.273.055.706.706,0,0,1-.655-.424.677.677,0,0,1,0-.537.69.69,0,0,1,.373-.368.707.707,0,0,1,.291-.055Zm0,1.229a.524.524,0,0,0,.21-.041.561.561,0,0,0,.168-.114.539.539,0,0,0-.168-.878.524.524,0,0,0-.21-.041.536.536,0,0,0-.5.751.531.531,0,0,0,.112.168.545.545,0,0,0,.4.155Zm.041-.865a.29.29,0,0,1,.191.055.182.182,0,0,1,.069.15.176.176,0,0,1-.055.132.263.263,0,0,1-.15.064l.209.241h-.164l-.2-.241h-.064v.241h-.137v-.637Zm-.159.118v.173h.159a.143.143,0,0,0,.087,0,.08.08,0,0,0,0-.127.161.161,0,0,0-.087,0ZM823.823,996.8a3.3,3.3,0,1,1,3.3,3.486A3.265,3.265,0,0,1,823.823,996.8Zm-80.058,0v-5.462h-2.371v1.325a4.131,4.131,0,0,0-3.427-1.584,5.727,5.727,0,0,0,0,11.442,4.135,4.135,0,0,0,3.441-1.6v1.32h2.371Zm-8.82,0a3.3,3.3,0,1,1,3.3,3.486,3.265,3.265,0,0,1-3.3-3.486Z" fill="#fff"/>
    <g id="_Group_" data-name=" Group ">
      <rect id="Rectángulo_826" data-name="Rectángulo 826" width="14.337" height="25.765" transform="translate(668.541 983.852)" fill="#df692c"/>
      <path id="_Path_" data-name=" Path " d="M669.451,996.741a16.358,16.358,0,0,1,6.258-12.88,16.385,16.385,0,1,0,0,25.765A16.36,16.36,0,0,1,669.451,996.741Z" fill="#ca2e2b"/>
      <path id="Trazado_1167" data-name="Trazado 1167" d="M702.221,996.741a16.384,16.384,0,0,1-26.512,12.88,16.387,16.387,0,0,0,0-25.765,16.386,16.386,0,0,1,26.512,12.885Z" fill="#dc9240"/>
      <path id="Trazado_1168" data-name="Trazado 1168" d="M700.646,1006.886v-.528h.214v-.1h-.533v.11h.214v.528Zm1.051,0v-.637h-.141l-.191.455-.191-.455h-.169v.637h.1v-.478l.177.414h.123l.178-.414v.483Z" fill="#dc9240"/>
    </g>
  </g>
</svg>
