<svg xmlns="http://www.w3.org/2000/svg" xmlns:xlink="http://www.w3.org/1999/xlink" width="59.345" height="19.206" viewBox="0 0 59.345 19.206">
  <defs>
    <linearGradient id="linear-gradient" x1="0.299" y1="-0.779" x2="0.548" y2="1.421" gradientUnits="objectBoundingBox">
      <stop offset="0" stop-color="#223a8c"/>
      <stop offset="1" stop-color="#171d69"/>
    </linearGradient>
    <linearGradient id="linear-gradient-2" x1="0.449" y1="-0.57" x2="0.639" y2="1.63" xlink:href="#linear-gradient"/>
    <linearGradient id="linear-gradient-3" x1="0.34" y1="-0.665" x2="0.634" y2="1.465" xlink:href="#linear-gradient"/>
    <linearGradient id="linear-gradient-4" x1="0.247" y1="-0.642" x2="0.735" y2="1.559" xlink:href="#linear-gradient"/>
  </defs>
  <g id="Grupo_1144" data-name="Grupo 1144" transform="translate(-1128.976 -987.137)">
    <path id="Trazado_1169" data-name="Trazado 1169" d="M1188.321,1006.026h-4.47l-.592-2.792h-6.13l-.97,2.792h-5.065c.034-.087.06-.159.089-.23q1.633-3.91,3.266-7.82l3.685-8.826a3.863,3.863,0,0,1,.535-.947,1.951,1.951,0,0,1,1.434-.757c.147-.011.295-.018.443-.018h3.737c.154,0,.156,0,.188.155q.354,1.685.707,3.37.576,2.752,1.151,5.5.6,2.888,1.205,5.774.384,1.834.766,3.671C1188.307,1005.934,1188.311,1005.968,1188.321,1006.026Zm-9.78-6.608h3.968l-1.467-6.843-.036,0Z" fill="url(#linear-gradient)"/>
    <path id="Trazado_1170" data-name="Trazado 1170" d="M1151.531,987.43l-7.8,18.594h-5.078c-.072-.273-.143-.541-.213-.81q-1.812-6.97-3.624-13.941c-.049-.186-.108-.371-.171-.553a1.952,1.952,0,0,0-.838-1.043,7.408,7.408,0,0,0-1.233-.578,20.018,20.018,0,0,0-3.509-1.036.761.761,0,0,1-.094-.034c.014-.094.028-.188.043-.282s.033-.189.053-.3c.079,0,.156-.013.233-.013h6.536c.421,0,.842,0,1.263,0a2.557,2.557,0,0,1,1.015.193,2.1,2.1,0,0,1,1.282,1.594c.331,1.684.644,3.371.965,5.057q.452,2.37.906,4.739c.051.268.1.536.152.8.01.053.025.106.046.194.038-.087.063-.142.085-.2l4.831-12.189a.744.744,0,0,0,.03-.079.136.136,0,0,1,.161-.116.805.805,0,0,0,.085,0h4.869Z" fill="url(#linear-gradient-2)"/>
    <path id="Trazado_1171" data-name="Trazado 1171" d="M1172.25,987.969l-.854,3.934-.207-.086a9.75,9.75,0,0,0-2.652-.731,6.842,6.842,0,0,0-1.668-.04,3.724,3.724,0,0,0-1.337.376,1.9,1.9,0,0,0-.62.5,1.032,1.032,0,0,0-.016,1.35,2.386,2.386,0,0,0,.5.482c.345.239.706.457,1.072.664.618.35,1.25.675,1.865,1.03a7.7,7.7,0,0,1,1.8,1.4,4.222,4.222,0,0,1,1.176,2.431,5.614,5.614,0,0,1-1.483,4.653,6.919,6.919,0,0,1-2.574,1.69,10.418,10.418,0,0,1-2.489.623,12.7,12.7,0,0,1-2.213.091,15,15,0,0,1-4.708-.948c-.058-.022-.115-.048-.189-.079l.87-4.065c.053.021.094.033.132.053a10.279,10.279,0,0,0,3.344,1.068,8.381,8.381,0,0,0,1.719.072,4,4,0,0,0,1.419-.336,2.322,2.322,0,0,0,.813-.58,1.28,1.28,0,0,0,.014-1.766.97.97,0,0,0-.116-.125,7.672,7.672,0,0,0-.712-.554c-.468-.29-.952-.556-1.435-.821a17.957,17.957,0,0,1-1.942-1.169,5.917,5.917,0,0,1-1.385-1.354,3.936,3.936,0,0,1-.737-2.284,5.493,5.493,0,0,1,2.643-4.869,8.474,8.474,0,0,1,2.938-1.189,11.925,11.925,0,0,1,3.392-.211,12.969,12.969,0,0,1,3.38.69C1172.076,987.892,1172.157,987.93,1172.25,987.969Z" fill="url(#linear-gradient-3)"/>
    <path id="Trazado_1172" data-name="Trazado 1172" d="M1153.534,987.431c1.609,0,3.2,0,4.82,0l-3.946,18.593h-4.833Z" fill="url(#linear-gradient-4)"/>
  </g>
</svg>
