<svg xmlns="http://www.w3.org/2000/svg" width="94.268" height="89.236" viewBox="0 0 94.268 89.236">
  <g id="Grupo_1218" data-name="Grupo 1218" transform="translate(1.062 1)">
    <path id="Trazado_153" data-name="Trazado 153" d="M-835.742,1589.4h-36.79v-4.785s0-6.625-7.361-6.625h-13.988s-5.521,0-5.521,6.625v4.785" transform="translate(905.107 -1514.683)" fill="none" stroke="#fff" stroke-miterlimit="10" stroke-width="2"/>
    <path id="Trazado_154" data-name="Trazado 154" d="M-882.838,1572.84v-58.158h47.483l17.668,17.3V1589.4h-5.548" transform="translate(905.107 -1514.683)" fill="none" stroke="#fff" stroke-miterlimit="10" stroke-width="2"/>
    <rect id="Rectángulo_70" data-name="Rectángulo 70" width="46.379" height="6.626" rx="2.222" transform="translate(31.471 23.189)" fill="none" stroke="#fff" stroke-miterlimit="10" stroke-width="2"/>
    <line id="Línea_20" data-name="Línea 20" x2="29.447" transform="translate(31.471 35.336)" fill="none" stroke="#fff" stroke-miterlimit="10" stroke-width="2"/>
    <line id="Línea_21" data-name="Línea 21" x2="20.981" transform="translate(31.655 41.594)" fill="none" stroke="#fff" stroke-miterlimit="10" stroke-width="2"/>
    <line id="Línea_22" data-name="Línea 22" x2="29.447" transform="translate(31.655 47.115)" fill="none" stroke="#fff" stroke-miterlimit="10" stroke-width="2"/>
    <line id="Línea_23" data-name="Línea 23" x2="29.447" transform="translate(31.655 52.268)" fill="none" stroke="#fff" stroke-miterlimit="10" stroke-width="2"/>
    <circle id="Elipse_25" data-name="Elipse 25" cx="6.994" cy="6.994" r="6.994" transform="translate(68.648 64.047)" fill="none" stroke="#fff" stroke-miterlimit="10" stroke-width="2"/>
    <path id="Trazado_155" data-name="Trazado 155" d="M-817.5,1531.983h-17.852v-17.116" transform="translate(905.107 -1514.683)" fill="none" stroke="#fff" stroke-miterlimit="10" stroke-width="2"/>
    <path id="Trazado_156" data-name="Trazado 156" d="M-832.664,1517.317H-812.9v47.793" transform="translate(905.107 -1514.683)" fill="none" stroke="#fff" stroke-miterlimit="10" stroke-width="2"/>
    <path id="Trazado_157" data-name="Trazado 157" d="M-828.976,1581.635s3.191-.3,3.559,3.381" transform="translate(905.107 -1514.683)" fill="none" stroke="#fff" stroke-miterlimit="10" stroke-width="2"/>
    <path id="Trazado_158" data-name="Trazado 158" d="M-833.587,1591.372v8.338l4.489-2.945,3.681,2.945v-8.286" transform="translate(905.107 -1514.683)" fill="none" stroke="#fff" stroke-miterlimit="10" stroke-width="2"/>
    <path id="Trazado_159" data-name="Trazado 159" d="M-904.187,1534.928s8.466,1.472,12.147,9.57a14.55,14.55,0,0,0-.467,4.989s1.517.427,2.27-.329a.329.329,0,0,1,.564.158c.4,2.091,1.336,7.882-.159,10.273,0,0-8.834.736-13.987-13.619,0,0,2.577,0,3.681-1.1,0,0-1.84-2.945-4.785-3.313A11.714,11.714,0,0,1-904.187,1534.928Z" transform="translate(905.107 -1514.683)" fill="none" stroke="#fff" stroke-miterlimit="10" stroke-width="2"/>
    <path id="Trazado_160" data-name="Trazado 160" d="M-897.193,1547.442s9.57,9.2,13.619,36.809" transform="translate(905.107 -1514.683)" fill="none" stroke="#fff" stroke-miterlimit="10" stroke-width="2"/>
    <path id="Trazado_161" data-name="Trazado 161" d="M-892.64,1577.994v-4.417h13.115v4.417" transform="translate(905.107 -1514.683)" fill="none" stroke="#fff" stroke-miterlimit="10" stroke-width="2"/>
    <line id="Línea_24" data-name="Línea 24" x2="30.919" transform="translate(2.024 74.721)" fill="none" stroke="#fff" stroke-miterlimit="10" stroke-width="2"/>
    <path id="Trazado_162" data-name="Trazado 162" d="M-896.334,1575.512s-6.013.273-6.013,5.794v4.417" transform="translate(905.107 -1514.683)" fill="none" stroke="#fff" stroke-miterlimit="10" stroke-width="2"/>
    <path id="Rectángulo_71" data-name="Rectángulo 71" d="M0,0H30.551a0,0,0,0,1,0,0V.95a1.995,1.995,0,0,1-1.995,1.995H1.995A1.995,1.995,0,0,1,0,.95V0A0,0,0,0,1,0,0Z" transform="translate(2.024 74.721)" fill="none" stroke="#fff" stroke-miterlimit="10" stroke-width="2"/>
    <line id="Línea_25" data-name="Línea 25" x1="60.662" transform="translate(10.858 82.542)" fill="none" stroke="#fff" stroke-miterlimit="10" stroke-width="2"/>
    <line id="Línea_26" data-name="Línea 26" x2="20.613" transform="translate(7.914 87.236)" fill="none" stroke="#fff" stroke-miterlimit="10" stroke-width="2"/>
    <line id="Línea_27" data-name="Línea 27" x2="41.594" transform="translate(45.826 87.236)" fill="none" stroke="#fff" stroke-miterlimit="10" stroke-width="2"/>
  </g>
</svg>
