<svg xmlns="http://www.w3.org/2000/svg" width="78.268" height="74.726" viewBox="0 0 78.268 74.726">
  <g id="Grupo_1217" data-name="Grupo 1217" transform="translate(1 1)">
    <g id="Grupo_192" data-name="Grupo 192">
      <path id="Trazado_146" data-name="Trazado 146" d="M-1226.551,1587.04h-76.268v-62.562a6.079,6.079,0,0,1,6.079-6.079h64.11a6.079,6.079,0,0,1,6.079,6.079Z" transform="translate(1302.819 -1518.399)" fill="none" stroke="#fff" stroke-miterlimit="10" stroke-width="2"/>
      <path id="Trazado_147" data-name="Trazado 147" d="M-1302.819,1587.04v5.085h5.72s3.178-2.542,5.085-2.542a5.263,5.263,0,0,0,4.182-2.543" transform="translate(1302.819 -1518.399)" fill="#fff"/>
      <path id="Trazado_148" data-name="Trazado 148" d="M-1226.818,1587.04v5.085h-5.72s-3.177-2.542-5.084-2.542a5.263,5.263,0,0,1-4.182-2.543" transform="translate(1302.819 -1518.399)" fill="#fff"/>
      <line id="Línea_19" data-name="Línea 19" y2="18.505" transform="translate(66.099 24.974)" fill="none" stroke="#fff" stroke-miterlimit="10" stroke-width="2"/>
      <path id="Trazado_149" data-name="Trazado 149" d="M-1236.72,1568.927v7.686a1.528,1.528,0,0,1-1.529,1.529h-52.872a1.529,1.529,0,0,1-1.529-1.529v-47.787a1.53,1.53,0,0,1,1.529-1.529h52.872a1.529,1.529,0,0,1,1.529,1.529v7.369" transform="translate(1302.819 -1518.399)" fill="none" stroke="#fff" stroke-miterlimit="10" stroke-width="2"/>
      <rect id="Rectángulo_67" data-name="Rectángulo 67" width="9.533" height="6.991" rx="2.195" transform="translate(61.015 17.796)" fill="#fff"/>
      <rect id="Rectángulo_68" data-name="Rectángulo 68" width="9.533" height="6.991" rx="2.195" transform="translate(61.015 43.219)" fill="#fff"/>
      <circle id="Elipse_21" data-name="Elipse 21" cx="13.347" cy="13.347" r="13.347" transform="translate(24.787 21.609)" fill="none" stroke="#fff" stroke-miterlimit="10" stroke-width="2"/>
      <circle id="Elipse_22" data-name="Elipse 22" cx="5.085" cy="5.085" r="5.085" transform="translate(33.05 29.872)" fill="none" stroke="#fff" stroke-miterlimit="10" stroke-width="2"/>
      <rect id="Rectángulo_69" data-name="Rectángulo 69" width="3.178" height="24.152" rx="1.589" transform="translate(13.712 20.974)" fill="#fff"/>
    </g>
  </g>
</svg>
