<svg xmlns="http://www.w3.org/2000/svg" width="21.481" height="21.208" viewBox="0 0 21.481 21.208">
  <g id="Grupo_1202" data-name="Grupo 1202" transform="translate(-1178.059 -99.004)">
    <rect id="Rectángulo_49" data-name="Rectángulo 49" width="5" height="6.618" transform="translate(1186.567 113.594)" fill="#32bb72" opacity="0.49"/>
    <path id="Trazado_135" data-name="Trazado 135" d="M1199.411,108.956l-9.338-9.338a.426.426,0,0,0-.13-.086.992.992,0,0,0-1.753,0,.438.438,0,0,0-.13.086l-9.873,9.873a.438.438,0,0,0,0,.619l.8.795a.437.437,0,0,0,.619,0l.966-.965v9.269a1,1,0,0,0,1,1h5V114.5a.9.9,0,0,1,.9-.9h3.194a.9.9,0,0,1,.9.9v5.715h5a1,1,0,0,0,1-1V109.94l.429.43a.439.439,0,0,0,.62,0l.8-.8A.438.438,0,0,0,1199.411,108.956Z" fill="#32bb72"/>
  </g>
</svg>
