<svg xmlns="http://www.w3.org/2000/svg" xmlns:xlink="http://www.w3.org/1999/xlink" width="285.165" height="79.592" viewBox="0 0 285.165 79.592">
  <defs>
    <linearGradient id="linear-gradient" x1="0.797" y1="0.5" x2="-0.247" y2="0.5" gradientUnits="objectBoundingBox">
      <stop offset="0" stop-color="#76d45d"/>
      <stop offset="0.313" stop-color="#46b773"/>
      <stop offset="0.612" stop-color="#209f86"/>
      <stop offset="0.851" stop-color="#089191"/>
      <stop offset="1" stop-color="#008c96"/>
    </linearGradient>
  </defs>
  <g id="Grupo_1201" data-name="Grupo 1201" transform="translate(-119.065 -72.193)">
    <path id="Trazado_136" data-name="Trazado 136" d="M263.97,72.193H120.529a1.429,1.429,0,0,0-1.464,1.391v75.4a1.429,1.429,0,0,0,1.464,1.392h145.2a1.429,1.429,0,0,0,1.464-1.392V75.254a3.148,3.148,0,0,0-3.221-3.061Z" fill="#0572e8"/>
    <g id="Grupo_157" data-name="Grupo 157">
      <path id="Trazado_137" data-name="Trazado 137" d="M181.524,121.984c-1.316,6.483-7.283,11.031-14.074,11.5-.71.049-2.024.082-2.024.082H137.411c-.251,0-.36-.265-.2-.489l5.9-8.312a.43.43,0,0,1,.338-.184h19.592a6.477,6.477,0,0,0,6.079-5.062,3.927,3.927,0,0,0-3.974-4.862h-9.782a.263.263,0,0,1-.263-.185l-2.072-6.812a.415.415,0,0,1,.4-.489H165.7a6.478,6.478,0,0,0,6.08-5.063,3.926,3.926,0,0,0-3.974-4.86h-17.7a.262.262,0,0,1-.263-.185l-2.532-8.311a.415.415,0,0,1,.4-.489H175.6c6.469,0,10.825,5.292,9.5,11.761a14.98,14.98,0,0,1-5.924,8.906,15.263,15.263,0,0,1-3.451,1.895,0,0,0,0,0,0,.008,9.071,9.071,0,0,1,2.753,1.541A9.612,9.612,0,0,1,181.524,121.984Z" fill="#fff"/>
      <path id="Trazado_138" data-name="Trazado 138" d="M149.172,110.983,133.1,133.6c-.014.021-.043.013-.039-.01l9.182-45.235c0-.023.037-.03.043-.01l6.889,22.617A.021.021,0,0,1,149.172,110.983Z" fill="url(#linear-gradient)"/>
    </g>
    <path id="Trazado_139" data-name="Trazado 139" d="M236.366,119.266a.178.178,0,0,1,.048-.235l14.466-13.668c.184-.174.013-.379-.317-.38l-9.653-.033a.648.648,0,0,0-.429.144l-8.706,8.152-5.337-8.152a.442.442,0,0,0-.369-.144l-9.667.033c-.33,0-.586.206-.474.38l8.816,13.668a.177.177,0,0,1-.049.235L210.23,132.934c-.184.174-.013.379.317.38l9.653.032a.647.647,0,0,0,.429-.143l8.706-8.152,5.337,8.152a.44.44,0,0,0,.369.143l9.667-.032c.33,0,.586-.206.474-.38Z" fill="#fff"/>
    <path id="Trazado_140" data-name="Trazado 140" d="M225.106,88.334H193.723l-9.044,44.638a.337.337,0,0,0,.468.374l5.812-.062a5.5,5.5,0,0,0,5.332-4.409l2.794-13.842a.4.4,0,0,1,.39-.319h7.5a2.079,2.079,0,0,0,1.854-1.138l4.283-8.434h-6.5c-2.777,0-5.028.534-5.028-2.243,0-.1,0-.194.008-.29a5.025,5.025,0,0,1,5.02-4.739h12.378a2.078,2.078,0,0,0,1.854-1.138Z" fill="#fff"/>
    <g id="Grupo_159" data-name="Grupo 159">
      <g id="Grupo_158" data-name="Grupo 158">
        <path id="Trazado_141" data-name="Trazado 141" d="M277.376,120.855l6.23-44.311q6.42-.642,17.853-.643,10.338,0,14.064,3.34t2.568,12.266q-1.155,8.413-4.912,11.431t-12.619,3.018a65.162,65.162,0,0,1-7.129-.45l-2.183,15.349Zm17.34-24.724h4.623q2.633,0,3.565-.964t1.445-4.688q.384-2.76-.257-3.757t-2.954-1h-4.945Z" fill="#fff"/>
        <path id="Trazado_142" data-name="Trazado 142" d="M318.347,120.855l6.23-44.311Q331,75.9,342.494,75.9q9.7,0,14,3.179T359.769,89.9a13.085,13.085,0,0,1-2.794,6.9q-2.216,2.6-7.224,3.114l-.065.45q5.265.771,5.844,7.128l1.67,13.358H342.815l-1.156-13.422a3.532,3.532,0,0,0-.578-2.28,2.994,2.994,0,0,0-1.991-.481h-4.88l-2.248,16.183Zm17.275-26.009h4.817q2.824,0,3.917-.963t1.541-4.11q.321-2.312-.417-3.179t-3.115-.867h-5.458Z" fill="#fff"/>
        <path id="Trazado_143" data-name="Trazado 143" d="M385.264,75.645a38.392,38.392,0,0,1,7.77.674,16.537,16.537,0,0,1,5.716,2.312,9.8,9.8,0,0,1,3.692,4.335,23.164,23.164,0,0,1,1.638,6.71,35.678,35.678,0,0,1-.449,9.537,50.5,50.5,0,0,1-2.569,11.238,17.17,17.17,0,0,1-4.5,6.872,15.653,15.653,0,0,1-6.486,3.468,36.5,36.5,0,0,1-9.119.963q-7.9,0-12.105-2.087a11.069,11.069,0,0,1-5.716-7.225q-1.509-5.138-.224-14.257a54.986,54.986,0,0,1,2.568-11.142,17.1,17.1,0,0,1,4.4-6.871,15.566,15.566,0,0,1,6.39-3.532A34.343,34.343,0,0,1,385.264,75.645ZM389.342,88.3q-.74-2.313-4.207-2.312a5.225,5.225,0,0,0-4.912,2.472q-1.446,2.474-2.73,10.757-1.155,7.643-.417,9.922t4.206,2.28q3.6,0,5.009-2.473t2.7-10.757Q390.079,90.609,389.342,88.3Z" fill="#fff"/>
      </g>
      <text id="Limited" transform="translate(275.098 146.785)" fill="#d4e6ff" font-size="23.725" font-family="Helvetica" letter-spacing="0.29em"><tspan x="0" y="0">Limited</tspan></text>
    </g>
  </g>
</svg>
