<svg xmlns="http://www.w3.org/2000/svg" width="155.383" height="27.249" viewBox="0 0 155.383 27.249">
  <g id="Grupo_1222" data-name="Grupo 1222" transform="translate(-8079.417 -1371.752)">
    <path id="Trazado_848" data-name="Trazado 848" d="M8146.927,1389.959v-5.675a3.374,3.374,0,0,0-3.564-3.6,3.51,3.51,0,0,0-3.182,1.612,3.328,3.328,0,0,0-2.993-1.612,3,3,0,0,0-2.649,1.347v-1.135h-1.971v9.066h1.99v-5.021a2.117,2.117,0,0,1,2.218-2.406c1.347,0,1.971.851,1.971,2.387v5.04h1.979v-5.021a2.134,2.134,0,0,1,2.217-2.406c1.309,0,1.99.851,1.99,2.387v5.04Zm29.448-9.058h-3.22v-2.747h-1.99v2.747h-1.839v1.8h1.839v4.128c0,2.1.814,3.356,3.144,3.356a4.632,4.632,0,0,0,2.464-.7l-.568-1.687a3.639,3.639,0,0,1-1.744.51c-.984,0-1.309-.6-1.309-1.513V1382.7h3.219Zm16.811-.227A2.673,2.673,0,0,0,8190.8,1382v-1.1h-1.952v9.058h1.971v-5.078c0-1.513.644-2.33,1.934-2.33a3.2,3.2,0,0,1,1.233.227l.605-1.858A4.232,4.232,0,0,0,8193.186,1380.674Zm-25.415.946a6.769,6.769,0,0,0-3.7-.946c-2.293,0-3.784,1.1-3.784,2.9,0,1.48,1.1,2.388,3.125,2.671l.927.133c1.079.151,1.593.435,1.593.946,0,.7-.719,1.1-2.066,1.1a4.835,4.835,0,0,1-3.027-.946l-.9,1.532a6.536,6.536,0,0,0,3.923,1.177c2.615,0,4.132-1.233,4.132-2.955,0-1.593-1.2-2.425-3.163-2.709l-.927-.133c-.851-.113-1.536-.283-1.536-.889,0-.662.643-1.059,1.725-1.059a5.832,5.832,0,0,1,2.823.776Zm52.79-.946a2.672,2.672,0,0,0-2.388,1.328v-1.1h-1.952v9.058h1.972v-5.078c0-1.513.643-2.33,1.934-2.33a3.2,3.2,0,0,1,1.233.227l.6-1.858A4.221,4.221,0,0,0,8220.561,1380.674Zm-25.385,4.756a4.577,4.577,0,0,0,4.832,4.756,4.74,4.74,0,0,0,3.258-1.082l-.945-1.593a3.982,3.982,0,0,1-2.369.813,2.9,2.9,0,0,1,0-5.8,3.983,3.983,0,0,1,2.369.813l.945-1.593a4.75,4.75,0,0,0-3.258-1.082,4.577,4.577,0,0,0-4.832,4.756Zm18.457,0v-4.54h-1.971v1.1a3.437,3.437,0,0,0-2.861-1.328,4.761,4.761,0,0,0,0,9.512,3.437,3.437,0,0,0,2.861-1.328v1.1h1.971Zm-7.333,0a2.742,2.742,0,1,1,2.747,2.9A2.715,2.715,0,0,1,8206.3,1385.43Zm-23.784-4.756a4.76,4.76,0,0,0,.133,9.512,5.506,5.506,0,0,0,3.715-1.271l-.965-1.461a4.317,4.317,0,0,1-2.648.946,2.512,2.512,0,0,1-2.709-2.217h6.727c.019-.246.038-.492.038-.757,0-2.822-1.763-4.756-4.3-4.756Zm-.038,1.763a2.248,2.248,0,0,1,2.293,2.2h-4.695a2.329,2.329,0,0,1,2.406-2.2Zm49.434,2.993v-8.169h-1.972V1382a3.436,3.436,0,0,0-2.86-1.328,4.761,4.761,0,0,0,0,9.512,3.436,3.436,0,0,0,2.86-1.328v1.1h1.972Zm2.3,3.693a.572.572,0,0,1,.228.045.6.6,0,0,1,.185.125.6.6,0,0,1,.125.182.554.554,0,0,1,0,.446.6.6,0,0,1-.125.182.6.6,0,0,1-.185.125.572.572,0,0,1-.228.045.587.587,0,0,1-.545-.352.57.57,0,0,1,0-.446.583.583,0,0,1,.552-.352Zm0,1.021a.412.412,0,0,0,.174-.034.447.447,0,0,0,.141-.73.455.455,0,0,0-.141-.095.444.444,0,0,0-.174-.034.467.467,0,0,0-.178.034.45.45,0,0,0-.237.591.483.483,0,0,0,.093.14.464.464,0,0,0,.145.094.436.436,0,0,0,.185.034Zm.034-.719a.25.25,0,0,1,.159.046.15.15,0,0,1,.057.125.144.144,0,0,1-.046.109.209.209,0,0,1-.125.053l.174.2h-.136l-.163-.2h-.053v.2H8234v-.53Zm-.133.1v.144h.133a.148.148,0,0,0,.072,0,.068.068,0,0,0,0-.106.128.128,0,0,0-.072,0Zm-9.531-4.094a2.742,2.742,0,1,1,2.747,2.9A2.715,2.715,0,0,1,8224.586,1385.43Zm-66.554,0v-4.54h-1.971v1.1a3.435,3.435,0,0,0-2.849-1.317,4.761,4.761,0,0,0,0,9.512,3.434,3.434,0,0,0,2.86-1.328v1.1h1.971Zm-7.333,0a2.742,2.742,0,1,1,2.747,2.9,2.715,2.715,0,0,1-2.747-2.9Z" fill="#fff"/>
    <g id="_Group_" data-name=" Group ">
      <rect id="Rectángulo_600" data-name="Rectángulo 600" width="11.918" height="21.419" transform="translate(8095.496 1374.662)" fill="#ee6106"/>
      <path id="_Path_" data-name=" Path " d="M8096.253,1385.377a13.6,13.6,0,0,1,5.2-10.708,13.621,13.621,0,1,0,0,21.419A13.6,13.6,0,0,1,8096.253,1385.377Z" fill="#da0d1e"/>
      <path id="Trazado_849" data-name="Trazado 849" d="M8123.5,1385.377a13.621,13.621,0,0,1-22.04,10.708,13.622,13.622,0,0,0,0-21.42,13.622,13.622,0,0,1,22.04,10.712Z" fill="#e78e26"/>
      <path id="Trazado_850" data-name="Trazado 850" d="M8122.186,1393.811v-.439h.178v-.087h-.443v.091h.178v.439Zm.874,0v-.53h-.117l-.159.378-.159-.378h-.14v.53h.079v-.4l.148.345h.1l.148-.345v.4Z" fill="#e78e26"/>
    </g>
  </g>
</svg>
