<svg xmlns="http://www.w3.org/2000/svg" xmlns:xlink="http://www.w3.org/1999/xlink" width="104.908" height="33.952" viewBox="0 0 104.908 33.952">
  <defs>
    <linearGradient id="linear-gradient" x1="0.299" y1="-0.779" x2="0.548" y2="1.421" gradientUnits="objectBoundingBox">
      <stop offset="0" stop-color="#1f3790"/>
      <stop offset="1" stop-color="#19196d"/>
    </linearGradient>
    <linearGradient id="linear-gradient-2" x1="0.449" y1="-0.57" x2="0.639" y2="1.63" xlink:href="#linear-gradient"/>
    <linearGradient id="linear-gradient-3" x1="0.34" y1="-0.665" x2="0.634" y2="1.465" xlink:href="#linear-gradient"/>
    <linearGradient id="linear-gradient-4" x1="0.247" y1="-0.642" x2="0.735" y2="1.559" xlink:href="#linear-gradient"/>
  </defs>
  <g id="Grupo_1221" data-name="Grupo 1221" transform="translate(-8092.082 -1495)">
    <path id="Trazado_851" data-name="Trazado 851" d="M8196.99,1528.392h-7.9q-.521-2.463-1.047-4.936h-10.835l-1.716,4.937h-8.952c.059-.154.1-.282.157-.408q2.886-6.912,5.773-13.823,3.257-7.8,6.514-15.6a6.806,6.806,0,0,1,.946-1.674,3.447,3.447,0,0,1,2.534-1.338c.261-.019.522-.031.783-.032q3.183,0,6.366,0c.08,0,.161,0,.241,0,.272.005.275,0,.332.273q.625,2.979,1.25,5.957,1.019,4.866,2.035,9.733,1.066,5.1,2.131,10.206l1.354,6.489C8196.965,1528.23,8196.973,1528.289,8196.99,1528.392Zm-17.288-11.681h7.015l-2.594-12.1-.064,0C8182.612,1508.628,8181.165,1512.647,8179.7,1516.711Z" fill="url(#linear-gradient)"/>
    <path id="Trazado_852" data-name="Trazado 852" d="M8131.954,1495.519q-6.915,16.494-13.78,32.869H8109.2c-.126-.482-.253-.956-.376-1.43q-3.2-12.322-6.407-24.645c-.086-.33-.191-.656-.3-.979a3.452,3.452,0,0,0-1.481-1.843,13.072,13.072,0,0,0-2.179-1.022,35.394,35.394,0,0,0-6.2-1.831,1.348,1.348,0,0,1-.167-.06c.025-.167.049-.333.076-.5s.058-.336.093-.535c.14-.008.276-.023.412-.023h11.555c.744,0,1.489,0,2.233,0a4.505,4.505,0,0,1,1.794.342,3.7,3.7,0,0,1,2.266,2.817c.585,2.977,1.138,5.96,1.706,8.94q.8,4.188,1.6,8.377c.09.473.177.948.268,1.421.018.1.044.187.082.343.066-.154.111-.251.15-.35q4.271-10.774,8.539-21.548a1.131,1.131,0,0,0,.054-.141.24.24,0,0,1,.285-.2c.05.005.1,0,.151,0h8.606Z" fill="url(#linear-gradient-2)"/>
    <path id="Trazado_853" data-name="Trazado 853" d="M8168.581,1496.471c-.5,2.325-1,4.626-1.509,6.956-.149-.063-.258-.107-.366-.154a17.235,17.235,0,0,0-4.689-1.292,12.069,12.069,0,0,0-2.948-.07,6.591,6.591,0,0,0-2.364.664,3.355,3.355,0,0,0-1.1.882,1.824,1.824,0,0,0-.028,2.385,4.211,4.211,0,0,0,.887.852c.609.423,1.248.808,1.894,1.174,1.092.62,2.211,1.193,3.3,1.821a13.562,13.562,0,0,1,3.183,2.468,7.451,7.451,0,0,1,2.079,4.3,9.921,9.921,0,0,1-2.621,8.226,12.2,12.2,0,0,1-4.55,2.987,18.436,18.436,0,0,1-4.4,1.1,22.677,22.677,0,0,1-3.913.161,26.5,26.5,0,0,1-8.322-1.677c-.1-.038-.2-.084-.333-.139l1.537-7.187c.093.038.167.06.233.095a18.19,18.19,0,0,0,5.912,1.888,14.786,14.786,0,0,0,3.039.126,7.058,7.058,0,0,0,2.509-.593,4.091,4.091,0,0,0,1.436-1.026,2.261,2.261,0,0,0,.025-3.121,1.52,1.52,0,0,0-.206-.22,13.179,13.179,0,0,0-1.257-.98c-.828-.513-1.684-.983-2.538-1.451a31.66,31.66,0,0,1-3.432-2.068,10.39,10.39,0,0,1-2.448-2.392,6.959,6.959,0,0,1-1.3-4.039,9.714,9.714,0,0,1,4.672-8.607,14.991,14.991,0,0,1,5.194-2.1,21,21,0,0,1,6-.373,22.93,22.93,0,0,1,5.975,1.219C8168.273,1496.336,8168.416,1496.4,8168.581,1496.471Z" fill="url(#linear-gradient-3)"/>
    <path id="Trazado_854" data-name="Trazado 854" d="M8135.5,1495.52c2.844,0,5.662,0,8.521,0-2.332,10.99-4.652,21.922-6.976,32.869H8128.5Q8132,1511.943,8135.5,1495.52Z" fill="url(#linear-gradient-4)"/>
  </g>
</svg>
