<svg xmlns="http://www.w3.org/2000/svg" width="91.458" height="122.149" viewBox="0 0 91.458 122.149">
  <g id="Grupo_1217" data-name="Grupo 1217" transform="translate(-395.616 -3097.547)">
    <path id="Trazado_105" data-name="Trazado 105" d="M440.005,3219.7c-4.148-2.267-8.508-4.221-12.408-6.854-20.472-13.822-30.956-33.292-31.825-57.88-.324-9.175-.033-18.371-.088-27.557-.014-2.266.8-3.774,3.008-4.521,18.587-5.993,41.2-24.456,41.854-24.931a1.646,1.646,0,0,1,2.164,0,108.151,108.151,0,0,0,39.659,24.349c4.4,1.564,4.676,1.862,4.635,6.59-.089,10.182.428,20.42-.455,30.535-2.335,26.729-15.984,46.044-39.874,58.174-1.332.677-2.644,1.4-3.965,2.095Zm1.211-117.414a127.993,127.993,0,0,1-40.252,23.861,2.321,2.321,0,0,0-1.191,1.659c-.153,1.868-.056,6.484-.056,8.531,4.6,0,8.732,0,12.87,0,3.416.005,5.233.577,5.215,2.2-.021,1.855-1.708,2.109-5.046,2.119-4.223.013-8.446,0-12.857,0v10.14c1.817,0,3.53-.076,5.235.018,2.282.126,3.488.165,3.488,1.788s-1.369,1.943-3.561,1.955c-1.689.01-3.378,0-5.048,0a79.645,79.645,0,0,0,1.147,12.754q7.486,33.516,38.5,48.338a3.84,3.84,0,0,0,2.9.168c23.776-11.308,37.436-30.065,40.045-56.25,1.01-10.137.306-20.44.513-30.665.039-1.937-.774-2.665-2.413-3.267a121.4,121.4,0,0,1-28.8-15.159C448.3,3107.909,444.868,3105.095,441.216,3102.282Z" fill="#42ffff"/>
    <path id="Trazado_106" data-name="Trazado 106" d="M436.426,3168.649c.86-.812,1.519-1.4,2.146-2.029q11.472-11.445,22.938-22.9c.509-.508,1-1.035,1.543-1.51,1.643-1.447,3.942-1.576,5.042-.142a3.361,3.361,0,0,1-.372,4.846q-14.225,14.232-28.459,28.453c-1.8,1.79-3.7,1.7-5.454-.039q-6.147-6.075-12.2-12.238c-1.511-1.54-1.885-3.4-.312-5.042,1.635-1.712,3.466-1.2,4.985.308C429.658,3161.714,432.971,3165.136,436.426,3168.649Z" fill="#42ffff"/>
  </g>
</svg>
