<svg xmlns="http://www.w3.org/2000/svg" width="85.717" height="129.906" viewBox="0 0 85.717 129.906">
  <path id="Trazado_1333" data-name="Trazado 1333" d="M1020.471,2866.109h-6.009v-14.375a1.064,1.064,0,0,0-2.129,0v14.375h-4.945a8.376,8.376,0,0,0-8.366,8.366v6.284a8.352,8.352,0,0,0-6.768-3.469h-5.477v-13.843a1.064,1.064,0,1,0-2.129,0v13.843h-5.477a8.375,8.375,0,0,0-8.366,8.365v5.091a8.34,8.34,0,0,0-6.236-2.808h-5.477v-13.843a1.064,1.064,0,0,0-2.129,0v13.843h-5.477a8.375,8.375,0,0,0-8.366,8.365v38.639a8.376,8.376,0,0,0,8.366,8.366h5.477v13.842a1.064,1.064,0,1,0,2.129,0v-13.842h5.477a8.337,8.337,0,0,0,6.236-2.809v5.091a8.376,8.376,0,0,0,8.366,8.366h5.477V2967.8a1.064,1.064,0,1,0,2.129,0v-13.842h5.477a8.352,8.352,0,0,0,6.768-3.469v6.284a8.375,8.375,0,0,0,8.366,8.365h4.945v14.375a1.064,1.064,0,1,0,2.129,0v-14.375h6.009a8.375,8.375,0,0,0,8.366-8.365v-82.3A8.376,8.376,0,0,0,1020.471,2866.109Zm-55.9,75.069H951.486a6.242,6.242,0,0,1-6.236-6.236V2896.3a6.243,6.243,0,0,1,6.236-6.236h13.083a6.243,6.243,0,0,1,6.236,6.236v38.639A6.242,6.242,0,0,1,964.569,2941.178Zm33.921,4.412a6.242,6.242,0,0,1-6.236,6.236H979.171a6.242,6.242,0,0,1-6.236-6.236v-59.935a6.243,6.243,0,0,1,6.236-6.236h13.083a6.243,6.243,0,0,1,6.236,6.236Zm28.217,11.181a6.243,6.243,0,0,1-6.236,6.236h-13.083a6.243,6.243,0,0,1-6.236-6.236v-82.3a6.242,6.242,0,0,1,6.236-6.236h13.083a6.242,6.242,0,0,1,6.236,6.236Z" transform="translate(-943.12 -2850.67)" fill="#42ffff"/>
</svg>
