<svg xmlns="http://www.w3.org/2000/svg" width="99.972" height="99.392" viewBox="0 0 99.972 99.392">
  <path id="Trazado_1334" data-name="Trazado 1334" d="M1034.041,3160.438c-1.624,7.847-3.855,15.418-8.422,22.2-16.37,24.3-50.2,29.409-72.68,10.835-.733-.6-1.5-1.292-2.244-1.894a.758.758,0,0,1-.1-1.094l.438-.5a.639.639,0,0,1,.827-.154l15.465,9.141a.654.654,0,0,0,.943-.331c2.774-7.334,1.537-10.815-4.551-14.5-7.243-4.386-8.817-8.2-6.844-16.534.172-.724.3-1.457.463-2.267a.651.651,0,0,0-.331-.7c-6.654-3.553-13.688-6.519-18.112-13.913a.643.643,0,0,0-1.194.3c-.615,11.875,2.054,21.9,8.52,31a41.94,41.94,0,0,1,2.335,3.786.8.8,0,0,1-.165,1l-.61.538a.636.636,0,0,1-.8-.081,21.958,21.958,0,0,1-2.326-2.485c-22.529-31.013-5.607-72.342,32.344-79.03a58.192,58.192,0,0,1,15.282.113,48.612,48.612,0,0,1,22.517,9.85l0,0a.607.607,0,0,1,.159.757,6.683,6.683,0,0,1-.761,1.2,1.127,1.127,0,0,1-1.454.212c-2.4-1.5-4.544-3.71-7.37-4.531a.642.642,0,0,0-.708.98,9.975,9.975,0,0,1,1.275,2.232c1.635,4.594,4.021,8.993.927,14.135-3.211,5.334-1.662,10.72,1.169,15.848,3.23,5.852,3.622,6.175,9.247,3.578,4.016-1.855,8.015.166,8.822,4.516a34.172,34.172,0,0,1,.441,8.3c-.248,3.921-.88,7.817-1.51,12.24a.641.641,0,0,0,1.18.427,6.4,6.4,0,0,0,.486-.909c7.329-17.306,5.611-33.573-5.633-48.749-.783-1.056-1.5-2.092-2.188-3.2a.628.628,0,0,1,.127-.8l.841-.726a.633.633,0,0,1,.82,0,12.013,12.013,0,0,1,1.872,2.053,39.135,39.135,0,0,1,5.356,8.048C1035.568,3144.746,1034.807,3153.748,1034.041,3160.438ZM986.8,3199.777a.641.641,0,0,0,.462,1.088c12.282-.129,22.425-4.979,30.89-13.6a3.463,3.463,0,0,0,1.021-1.6c1.606-9.014,3.74-17.987,4.522-27.076.6-6.912-1.223-7.481-7.48-4.656-1.708.771-4.582,1.028-5.965.1-6.5-4.368-9.727-16.268-6.531-23.4a12.8,12.8,0,0,0,.937-8.4c-1.848-9.247-8.034-14.322-17.806-13.7a.636.636,0,0,0-.587.555c-.054.424-.11.862-.159,1.3-.729,6.538-1.946,7.953-8.184,9.829a4.7,4.7,0,0,0-1.932,1.525c-3.293,3.836-6.019,8.42-9.982,11.328a13.131,13.131,0,0,0-4.99,6.7c-.515,1.391-1.847,2.48-2.96,3.65a.641.641,0,0,1-.941-.009c-.951-1.055-1.894-2.119-2.875-3.145-.628-.657-1.3-1.27-1.968-1.889a.64.64,0,0,0-.944.082c-.84,1.095-2,2.264-1.807,3.123.839,3.679,1.5,7.869,3.744,10.64,2.911,3.6,7.8,6.2,12.448,4.769,6.93-2.142,11.861.418,16.543,4.665,3.952,3.584,7.728,7.208,13.526,7.6,1.566.1,3.124,1.2,4.572,2.038,5.977,3.456,6.676,7.468,1.965,12.5C997.247,3189.2,991.995,3194.462,986.8,3199.777Zm-15.2-.707a.644.644,0,0,0,.43.814c7.382,2.212,12.107.407,16.266-5.085a87.812,87.812,0,0,1,9.42-10.621c6.628-6.3,6.069-9.3-2.685-12.17a1.45,1.45,0,0,0-.376-.1c-6.086-.257-10.038-4.261-14.19-7.982-1.532-1.373-3.157-2.946-5.025-3.564a14.609,14.609,0,0,0-7.367-.756c-5.353,1.191-14.143-1.295-17.585-5.68a7.7,7.7,0,0,1-1.108-2.407c-.808-2.522-1.389-5.128-2.35-7.588-1.189-3.042.4-7.813,3.425-8.829,3.455-1.162,5.324.841,6.485,3.83h0a.634.634,0,0,0,1.18,0c.94-2.359,1.588-4.694,3.049-6.277,3.249-3.518,7.143-6.44,10.741-9.64.458-.408,1.091-1.016,1.068-1.5-.151-3.2,1.854-3.767,4.417-4.148,4.521-.673,6.436-3.817,5.34-8.588a.647.647,0,0,0-.658-.5c-3.956.171-7.837-.158-10.471,4.376-3.413,5.873-4.432,5.907-9.767,1.733a.642.642,0,0,0-.714-.055,44.964,44.964,0,0,0-18.791,19.946c-4.472,9.295-1.981,17.255,6.757,22.689,2.193,1.364,4.478,2.6,6.79,3.751,5.078,2.538,5.033,2.488,3.8,7.886-.915,4-1.815,8.647,2.436,10.891C970.372,3183.852,974.706,3189.616,971.6,3199.07Z" transform="translate(-934.529 -3105.293)" fill="#42ffff"/>
</svg>
