<svg xmlns="http://www.w3.org/2000/svg" width="59.387" height="62.504" viewBox="0 0 59.387 62.504">
  <g id="Grupo_1221" data-name="Grupo 1221" transform="translate(-853.683 -4423.645)">
    <g id="Grupo_30" data-name="Grupo 30">
      <path id="Trazado_30" data-name="Trazado 30" d="M873.479,4482.844v-1.055c.593,0,1.327-3.317,1.383-7.593l1.055.015C875.883,4476.806,875.576,4482.844,873.479,4482.844Z" fill="#42ffff"/>
    </g>
    <g id="Grupo_31" data-name="Grupo 31">
      <path id="Trazado_31" data-name="Trazado 31" d="M892.517,4482.844c-2.1,0-2.4-6.038-2.438-8.633l1.055-.015c.058,4.276.791,7.593,1.383,7.593Z" fill="#42ffff"/>
    </g>
    <g id="Grupo_32" data-name="Grupo 32">
      <path id="Trazado_32" data-name="Trazado 32" d="M898.947,4486.149h-31.1v-2.879a1.483,1.483,0,0,1,1.482-1.481h28.141a1.483,1.483,0,0,1,1.481,1.481Zm-30.049-1.055h28.994v-1.824a.426.426,0,0,0-.426-.426H869.325a.426.426,0,0,0-.427.426Z" fill="#42ffff"/>
    </g>
    <g id="Grupo_33" data-name="Grupo 33">
      <path id="Trazado_33" data-name="Trazado 33" d="M904.73,4486.149H857.253a.527.527,0,1,1,0-1.055H904.73a.527.527,0,0,1,0,1.055Z" fill="#42ffff"/>
    </g>
    <g id="Grupo_34" data-name="Grupo 34">
      <path id="Trazado_34" data-name="Trazado 34" d="M909.087,4468.871H857.7a.527.527,0,0,1-.528-.527v-40.336a4.368,4.368,0,0,1,4.363-4.363h43.712a4.368,4.368,0,0,1,4.363,4.363v40.336A.527.527,0,0,1,909.087,4468.871Zm-50.856-1.055h50.328v-39.808a3.312,3.312,0,0,0-3.308-3.308H861.539a3.312,3.312,0,0,0-3.308,3.308Z" fill="#42ffff"/>
    </g>
    <g id="Grupo_35" data-name="Grupo 35">
      <path id="Trazado_35" data-name="Trazado 35" d="M909.087,4431.156H857.7a.527.527,0,1,1,0-1.055h51.383a.527.527,0,0,1,0,1.055Z" fill="#42ffff"/>
    </g>
    <rect id="Rectángulo_19" data-name="Rectángulo 19" width="17.729" height="20.433" rx="2.412" transform="translate(864.164 4434.539)" fill="#42ffff"/>
    <g id="Grupo_36" data-name="Grupo 36">
      <path id="Trazado_36" data-name="Trazado 36" d="M899.171,4436.268H886.25a.528.528,0,1,1,0-1.055h12.921a.528.528,0,0,1,0,1.055Z" fill="#42ffff"/>
    </g>
    <g id="Grupo_37" data-name="Grupo 37">
      <path id="Trazado_37" data-name="Trazado 37" d="M901.274,4441.076H886.25a.528.528,0,1,1,0-1.055h15.024a.528.528,0,1,1,0,1.055Z" fill="#42ffff"/>
    </g>
    <g id="Grupo_38" data-name="Grupo 38">
      <path id="Trazado_38" data-name="Trazado 38" d="M899.171,4445.283H886.25a.528.528,0,1,1,0-1.055h12.921a.528.528,0,0,1,0,1.055Z" fill="#42ffff"/>
    </g>
    <g id="Grupo_39" data-name="Grupo 39">
      <path id="Trazado_39" data-name="Trazado 39" d="M901.274,4450.091H886.25a.527.527,0,1,1,0-1.055h15.024a.527.527,0,1,1,0,1.055Z" fill="#42ffff"/>
    </g>
    <g id="Grupo_40" data-name="Grupo 40">
      <path id="Trazado_40" data-name="Trazado 40" d="M893.612,4454.6H886.4a.528.528,0,0,1,0-1.055h7.212a.528.528,0,0,1,0,1.055Z" fill="#42ffff"/>
    </g>
    <g id="Grupo_41" data-name="Grupo 41">
      <path id="Trazado_41" data-name="Trazado 41" d="M900.222,4454.6h-4.507a.528.528,0,0,1,0-1.055h4.507a.528.528,0,1,1,0,1.055Z" fill="#42ffff"/>
    </g>
    <g id="Grupo_42" data-name="Grupo 42">
      <path id="Trazado_42" data-name="Trazado 42" d="M884.9,4459.1H864.465a.527.527,0,1,1,0-1.054H884.9a.527.527,0,0,1,0,1.054Z" fill="#42ffff"/>
    </g>
    <g id="Grupo_43" data-name="Grupo 43">
      <path id="Trazado_43" data-name="Trazado 43" d="M902.025,4459.1H886.1a.527.527,0,1,1,0-1.054h15.925a.527.527,0,1,1,0,1.054Z" fill="#42ffff"/>
    </g>
    <g id="Grupo_44" data-name="Grupo 44">
      <path id="Trazado_44" data-name="Trazado 44" d="M899.321,4463.913H864.465a.528.528,0,1,1,0-1.055h34.856a.528.528,0,0,1,0,1.055Z" fill="#42ffff"/>
    </g>
    <g id="Grupo_45" data-name="Grupo 45">
      <path id="Trazado_45" data-name="Trazado 45" d="M910.739,4474.731h-55.59a1.233,1.233,0,0,1-.948-.425,3.714,3.714,0,0,1-.48-2.538v-36.027c0-1.93,1.29-2.159,1.345-2.168l.083-.006H857.7v1.055h-2.488c-.082.035-.441.238-.441,1.119l0,36.124a2.977,2.977,0,0,0,.221,1.743.183.183,0,0,0,.157.068h55.59c.209,0,1.276-.1,1.276-1.576v-36.359c0-.1-.029-.975-.675-.975h-2.253v-1.055h2.253a1.854,1.854,0,0,1,1.73,2.03V4472.1A2.381,2.381,0,0,1,910.739,4474.731Z" fill="#42ffff"/>
    </g>
    <circle id="Elipse_2" data-name="Elipse 2" cx="0.901" cy="0.901" r="0.901" transform="translate(900.523 4470.598)" fill="#42ffff"/>
    <circle id="Elipse_3" data-name="Elipse 3" cx="0.901" cy="0.901" r="0.901" transform="translate(904.279 4470.748)" fill="#42ffff"/>
    <circle id="Elipse_4" data-name="Elipse 4" cx="0.901" cy="0.901" r="0.901" transform="translate(907.885 4470.748)" fill="#42ffff"/>
    <path id="Trazado_46" data-name="Trazado 46" d="M909.087,4430.483H858c0-3.486-.07-6.838,6.31-6.311H903.13c5.807.473,5.957,2.667,5.957,5.957Z" fill="#42ffff"/>
  </g>
</svg>
