<svg xmlns="http://www.w3.org/2000/svg" width="78.111" height="66.005" viewBox="0 0 78.111 66.005">
  <g id="Grupo_1223" data-name="Grupo 1223" transform="translate(-469.3 -4564.655)">
    <g id="Grupo_66" data-name="Grupo 66">
      <path id="Trazado_61" data-name="Trazado 61" d="M478.761,4600.8a.485.485,0,0,1-.343-.143l-8.975-8.975a.485.485,0,1,1,.686-.686l8.632,8.632,21.146-21.146-13-13a.485.485,0,1,1,.686-.686l13.342,13.342a.484.484,0,0,1,0,.686L479.1,4600.657A.483.483,0,0,1,478.761,4600.8Z" fill="#42ffff"/>
    </g>
    <g id="Grupo_67" data-name="Grupo 67">
      <path id="Trazado_62" data-name="Trazado 62" d="M519.515,4581.934H497.627a.485.485,0,1,1,0-.97h21.888a.485.485,0,0,1,0,.97Z" fill="#42ffff"/>
    </g>
    <g id="Grupo_68" data-name="Grupo 68">
      <path id="Trazado_63" data-name="Trazado 63" d="M538.679,4601.042a.479.479,0,0,1-.343-.142l-21.59-21.59a.484.484,0,0,1,0-.686l13.827-13.827a.485.485,0,0,1,.686.686l-13.484,13.484,20.9,20.9,7.9-7.905a.485.485,0,0,1,.686.686l-8.247,8.248A.482.482,0,0,1,538.679,4601.042Z" fill="#42ffff"/>
    </g>
    <g id="Grupo_69" data-name="Grupo 69">
      <path id="Trazado_64" data-name="Trazado 64" d="M479.974,4590.854a.486.486,0,0,1-.343-.142l-3.4-3.4a.485.485,0,1,1,.686-.686l3.4,3.4a.485.485,0,0,1-.343.828Z" fill="#42ffff"/>
    </g>
    <g id="Grupo_70" data-name="Grupo 70">
      <path id="Trazado_65" data-name="Trazado 65" d="M537.709,4590.854a.486.486,0,0,1-.32-.851l3.881-3.4a.485.485,0,1,1,.639.731l-3.881,3.4A.486.486,0,0,1,537.709,4590.854Z" fill="#32bb72"/>
    </g>
    <g id="Grupo_71" data-name="Grupo 71">
      <path id="Trazado_66" data-name="Trazado 66" d="M526.262,4616.3a4.725,4.725,0,0,1-2.966-1.328L512.622,4604.3a.485.485,0,0,1,.686-.686l10.674,10.674a3.757,3.757,0,0,0,2.389,1.041,2.43,2.43,0,0,0,1.744-1.005c1.659-2.029-.367-4.116-.455-4.2L512.7,4595.158a2.431,2.431,0,0,1-.707-1.707v-5.023h-2.72l-7.138,6.662a2.886,2.886,0,0,1-1.35.7,3.407,3.407,0,0,1-3.2-1.192c-2.5-2.5-.506-4.547-.485-4.567l8.733-8.733a.485.485,0,0,1,.686.686l-8.733,8.733c-.134.138-1.283,1.427.485,3.2s3.057.62,3.2.483l7.287-6.8a.484.484,0,0,1,.331-.13h3.4a.485.485,0,0,1,.485.485v5.508a1.454,1.454,0,0,0,.423,1.021l14.96,14.96c.952.96,2.283,3.344.518,5.5a3.351,3.351,0,0,1-2.451,1.36C526.364,4616.3,526.313,4616.3,526.262,4616.3Z" fill="#42ffff"/>
    </g>
    <g id="Grupo_72" data-name="Grupo 72">
      <path id="Trazado_67" data-name="Trazado 67" d="M523.875,4623.667a5.375,5.375,0,0,1-3.481-1.41l-12.624-12.624a.485.485,0,1,1,.686-.686l12.615,12.614c.079.074,2.208,2.029,4.5.655a2.885,2.885,0,0,0,1.469-1.9,3.51,3.51,0,0,0-.694-2.685,21.362,21.362,0,0,0-3.238-2.86.485.485,0,1,1,.574-.782,21.59,21.59,0,0,1,3.448,3.069,4.493,4.493,0,0,1,.861,3.451,3.86,3.86,0,0,1-1.921,2.535A4.207,4.207,0,0,1,523.875,4623.667Z" fill="#42ffff"/>
    </g>
    <g id="Grupo_73" data-name="Grupo 73">
      <path id="Trazado_68" data-name="Trazado 68" d="M517.24,4627.177a7.708,7.708,0,0,1-2.508-.454.482.482,0,0,1-.163-.1l-12.614-12.129a.485.485,0,0,1,.673-.7l12.538,12.056c.492.166,2.939.9,4.248-.406a3.467,3.467,0,0,0,.853-3.386.485.485,0,0,1,.921-.305,4.442,4.442,0,0,1-1.088,4.377A3.927,3.927,0,0,1,517.24,4627.177Z" fill="#42ffff"/>
    </g>
    <g id="Grupo_74" data-name="Grupo 74">
      <path id="Trazado_69" data-name="Trazado 69" d="M511.48,4630.313a5.041,5.041,0,0,1-2.927-1.046,4.061,4.061,0,0,1-.5-.433l-20.513-20.513a4.259,4.259,0,0,1-1.256-3.032v-.6a3.323,3.323,0,0,0-1.117-2.484l-4.377-3.88a.485.485,0,1,1,.643-.726l4.378,3.881a4.292,4.292,0,0,1,1.443,3.209v.6a3.3,3.3,0,0,0,.972,2.346l20.512,20.512a3.1,3.1,0,0,0,.381.33c1.876,1.337,3.453.9,4.234.119.654-.654.581-2.251.5-2.81a.485.485,0,1,1,.96-.143c.038.255.34,2.528-.771,3.639A3.612,3.612,0,0,1,511.48,4630.313Z" fill="#42ffff"/>
    </g>
    <g id="Grupo_75" data-name="Grupo 75">
      <path id="Trazado_70" data-name="Trazado 70" d="M515.529,4597.784a.484.484,0,0,1-.343-.142.5.5,0,0,1-.113-.519c.118-.314.347-.33.9-.368,1.236-.084,5-.34,5-2.263a.486.486,0,0,1,.971,0c0,2.829-4.443,3.132-5.9,3.232-.14.009-.25.015-.323.023A.482.482,0,0,1,515.529,4597.784Z" fill="#42ffff"/>
    </g>
    <g id="Grupo_76" data-name="Grupo 76">
      <path id="Trazado_71" data-name="Trazado 71" d="M528.005,4610.26a.485.485,0,0,1-.326-.844l4.524-4.113a1.785,1.785,0,0,0,.583-1.444l-.045-.684a2.288,2.288,0,0,1,.666-1.77l3.06-3.06a.485.485,0,0,1,.686.686l-3.06,3.061a1.318,1.318,0,0,0-.384,1.02l.045.683a2.752,2.752,0,0,1-.9,2.227l-4.524,4.112A.482.482,0,0,1,528.005,4610.26Z" fill="#32bb72"/>
    </g>
    <g id="Grupo_77" data-name="Grupo 77">
      <path id="Trazado_72" data-name="Trazado 72" d="M489.938,4615.862a4.422,4.422,0,0,1-3.03-1.378c-1.513-1.513-1.828-3.66-.7-4.785a3.361,3.361,0,0,1,3.411-.617.485.485,0,0,1-.362.9,2.394,2.394,0,0,0-2.363.4c-.734.735-.412,2.3.7,3.413s2.679,1.437,3.414.7a2.808,2.808,0,0,0,.392-2.391.485.485,0,0,1,.921-.306,3.723,3.723,0,0,1-.627,3.383A2.428,2.428,0,0,1,489.938,4615.862Z" fill="#42ffff"/>
    </g>
    <g id="Grupo_78" data-name="Grupo 78">
      <path id="Trazado_73" data-name="Trazado 73" d="M494.789,4620.714a4.428,4.428,0,0,1-3.029-1.378c-1.513-1.513-1.829-3.66-.7-4.786a3.36,3.36,0,0,1,3.41-.616.485.485,0,0,1-.362.9,2.392,2.392,0,0,0-2.362.4c-.735.735-.413,2.3.7,3.414s2.679,1.437,3.414.7a2.812,2.812,0,0,0,.392-2.391.485.485,0,1,1,.921-.306,3.724,3.724,0,0,1-.627,3.383A2.429,2.429,0,0,1,494.789,4620.714Z" fill="#42ffff"/>
    </g>
    <g id="Grupo_79" data-name="Grupo 79">
      <path id="Trazado_74" data-name="Trazado 74" d="M499.883,4625.808a4.424,4.424,0,0,1-3.029-1.378c-1.513-1.513-1.829-3.66-.7-4.785a3.363,3.363,0,0,1,3.411-.617.485.485,0,1,1-.363.9,2.388,2.388,0,0,0-2.362.4c-.735.734-.412,2.3.7,3.413s2.679,1.437,3.414.7a2.808,2.808,0,0,0,.392-2.391.485.485,0,0,1,.921-.306,3.723,3.723,0,0,1-.627,3.383A2.43,2.43,0,0,1,499.883,4625.808Z" fill="#42ffff"/>
    </g>
    <g id="Grupo_80" data-name="Grupo 80">
      <path id="Trazado_75" data-name="Trazado 75" d="M504.735,4630.66a4.426,4.426,0,0,1-3.029-1.378c-1.513-1.513-1.829-3.66-.7-4.786a3.363,3.363,0,0,1,3.411-.616.485.485,0,1,1-.362.9,2.393,2.393,0,0,0-2.362.4c-.735.735-.413,2.3.7,3.414s2.678,1.437,3.413.7a2.808,2.808,0,0,0,.393-2.39.485.485,0,1,1,.92-.306,3.718,3.718,0,0,1-.626,3.382A2.432,2.432,0,0,1,504.735,4630.66Z" fill="#42ffff"/>
    </g>
  </g>
</svg>
