<svg xmlns="http://www.w3.org/2000/svg" width="49.604" height="79.496" viewBox="0 0 49.604 79.496">
  <g id="Grupo_1220" data-name="Grupo 1220" transform="translate(-486.316 -4409.436)">
    <rect id="Rectángulo_837" data-name="Rectángulo 837" width="7.001" height="62.004" transform="translate(493.916 4421.927)" fill="#42ffff"/>
    <rect id="Rectángulo_838" data-name="Rectángulo 838" width="7.001" height="53.004" transform="translate(503.917 4430.928)" fill="#42ffff"/>
    <rect id="Rectángulo_839" data-name="Rectángulo 839" width="7.001" height="43.003" transform="translate(513.918 4440.928)" fill="#42ffff"/>
    <rect id="Rectángulo_840" data-name="Rectángulo 840" width="7.001" height="24.002" transform="translate(523.919 4459.93)" fill="#42ffff"/>
    <g id="Grupo_1218" data-name="Grupo 1218" transform="translate(0.009 -0.718)">
      <g id="Grupo_13" data-name="Grupo 13">
        <path id="Trazado_14" data-name="Trazado 14" d="M488.407,4420.362a.5.5,0,0,1-.5-.5v-3.5a.5.5,0,0,1,1,0v3.5A.5.5,0,0,1,488.407,4420.362Z" fill="#42ffff"/>
      </g>
      <g id="Grupo_14" data-name="Grupo 14">
        <path id="Trazado_15" data-name="Trazado 15" d="M488.407,4478.839a.5.5,0,0,1-.5-.5v-7.309a.5.5,0,0,1,1,0v7.309A.5.5,0,0,1,488.407,4478.839Zm0-14.619a.5.5,0,0,1-.5-.5v-7.31a.5.5,0,0,1,1,0v7.31A.5.5,0,0,1,488.407,4464.22Zm0-14.619a.5.5,0,0,1-.5-.5v-7.31a.5.5,0,0,1,1,0v7.31A.5.5,0,0,1,488.407,4449.6Zm0-14.62a.5.5,0,0,1-.5-.5v-7.309a.5.5,0,0,1,1,0v7.309A.5.5,0,0,1,488.407,4434.981Z" fill="#42ffff"/>
      </g>
      <g id="Grupo_15" data-name="Grupo 15">
        <path id="Trazado_16" data-name="Trazado 16" d="M491.907,4489.65h-3.5a.5.5,0,0,1-.5-.5v-3.5a.5.5,0,0,1,1,0v3h3a.5.5,0,0,1,0,1Z" fill="#42ffff"/>
      </g>
      <g id="Grupo_16" data-name="Grupo 16">
        <path id="Trazado_17" data-name="Trazado 17" d="M523.91,4489.65h-8a.5.5,0,0,1,0-1h8a.5.5,0,0,1,0,1Zm-16,0h-8a.5.5,0,0,1,0-1h8a.5.5,0,1,1,0,1Z" fill="#42ffff"/>
      </g>
      <g id="Grupo_17" data-name="Grupo 17">
        <path id="Trazado_18" data-name="Trazado 18" d="M535.411,4489.65h-3.5a.5.5,0,0,1,0-1h3v-3a.5.5,0,0,1,1,0v3.5A.5.5,0,0,1,535.411,4489.65Z" fill="#42ffff"/>
      </g>
      <g id="Grupo_18" data-name="Grupo 18">
        <path id="Trazado_19" data-name="Trazado 19" d="M535.411,4480.549a.5.5,0,0,1-.5-.5v-5.6a.5.5,0,0,1,1,0v5.6A.5.5,0,0,1,535.411,4480.549Zm0-11.2a.5.5,0,0,1-.5-.5v-5.6a.5.5,0,0,1,1,0v5.6A.5.5,0,0,1,535.411,4469.348Z" fill="#42ffff"/>
      </g>
      <g id="Grupo_19" data-name="Grupo 19">
        <path id="Trazado_20" data-name="Trazado 20" d="M535.411,4458.147a.5.5,0,0,1-.5-.5v-3h-3a.5.5,0,0,1,0-1h3.5a.5.5,0,0,1,.5.5v3.5A.5.5,0,0,1,535.411,4458.147Z" fill="#42ffff"/>
      </g>
      <g id="Grupo_20" data-name="Grupo 20">
        <path id="Trazado_21" data-name="Trazado 21" d="M527.91,4454.647h-3.5a.5.5,0,0,1-.5-.5v-3.5a.5.5,0,0,1,1,0v3h3a.5.5,0,0,1,0,1Z" fill="#42ffff"/>
      </g>
      <g id="Grupo_21" data-name="Grupo 21">
        <path id="Trazado_22" data-name="Trazado 22" d="M524.41,4447.48a.5.5,0,0,1-.5-.5v-3.667a.5.5,0,0,1,1,0v3.667A.5.5,0,0,1,524.41,4447.48Z" fill="#42ffff"/>
      </g>
      <g id="Grupo_22" data-name="Grupo 22">
        <path id="Trazado_23" data-name="Trazado 23" d="M524.41,4440.146a.5.5,0,0,1-.5-.5v-3h-3a.5.5,0,0,1,0-1h3.5a.5.5,0,0,1,.5.5v3.5A.5.5,0,0,1,524.41,4440.146Z" fill="#42ffff"/>
      </g>
      <g id="Grupo_23" data-name="Grupo 23">
        <path id="Trazado_24" data-name="Trazado 24" d="M517.909,4436.646h-3.5a.5.5,0,0,1-.5-.5v-3.5a.5.5,0,0,1,1,0v3h3a.5.5,0,0,1,0,1Z" fill="#42ffff"/>
      </g>
      <g id="Grupo_24" data-name="Grupo 24">
        <path id="Trazado_25" data-name="Trazado 25" d="M514.409,4428.145a.5.5,0,0,1-.5-.5v-3h-3a.5.5,0,0,1,0-1h3.5a.5.5,0,0,1,.5.5v3.5A.5.5,0,0,1,514.409,4428.145Z" fill="#42ffff"/>
      </g>
      <g id="Grupo_25" data-name="Grupo 25">
        <path id="Trazado_26" data-name="Trazado 26" d="M507.908,4424.645h-3.5a.5.5,0,0,1-.5-.5v-3.5a.5.5,0,0,1,1,0v3h3a.5.5,0,0,1,0,1Z" fill="#42ffff"/>
      </g>
      <g id="Grupo_26" data-name="Grupo 26">
        <path id="Trazado_27" data-name="Trazado 27" d="M504.408,4418.144a.5.5,0,0,1-.5-.5v-3h-3a.5.5,0,0,1,0-1h3.5a.5.5,0,0,1,.5.5v3.5A.5.5,0,0,1,504.408,4418.144Z" fill="#42ffff"/>
      </g>
      <g id="Grupo_27" data-name="Grupo 27">
        <path id="Trazado_28" data-name="Trazado 28" d="M497.908,4414.644h-3.5a.5.5,0,0,1,0-1h3.5a.5.5,0,0,1,0,1Z" fill="#42ffff"/>
      </g>
    </g>
    <g id="Grupo_1219" data-name="Grupo 1219" transform="translate(0.009 -0.718)">
      <path id="Trazado_29" data-name="Trazado 29" d="M490.008,4413.144a.5.5,0,0,1-.391-.187l-1.21-1.513-1.209,1.513a.5.5,0,1,1-.781-.625l1.6-2a.517.517,0,0,1,.781,0l1.6,2a.5.5,0,0,1-.39.812Z" fill="#42ffff"/>
    </g>
  </g>
</svg>
