<svg xmlns="http://www.w3.org/2000/svg" width="77.544" height="83.748" viewBox="0 0 77.544 83.748">
  <g id="Grupo_1226" data-name="Grupo 1226" transform="translate(-1167.937 -4548.913)">
    <g id="Grupo_49" data-name="Grupo 49">
      <g id="Grupo_47" data-name="Grupo 47">
        <path id="Trazado_47" data-name="Trazado 47" d="M1221.073,4632.66h-3.341a2.135,2.135,0,0,1-2.132-2.132v-1.962a.975.975,0,0,0-.616-.909l-3.067-1.226a.973.973,0,0,0-.983.151l-1.865,1.526a2.127,2.127,0,0,1-2.749-.042l-5.314-4.62a2.133,2.133,0,0,1-.172-3.05l1.788-1.951a.983.983,0,0,0,.154-1.1l-1.376-2.753a.975.975,0,0,0-.876-.542H1198.8a2.133,2.133,0,0,1-2.132-2.131v-7.01a2.134,2.134,0,0,1,2.132-2.132h1.647a.976.976,0,0,0,.905-.606l1.545-3.752a.982.982,0,0,0-.133-.973l-.934-1.2a2.131,2.131,0,0,1,.095-2.731l3.768-4.212a2.132,2.132,0,0,1,2.8-.331l2.335,1.616a.976.976,0,0,0,1.018.059l3.236-1.726a.976.976,0,0,0,.519-.864V4586.3a2.134,2.134,0,0,1,2.132-2.132h3.341v1.153h-3.341a.98.98,0,0,0-.979.979v1.755a2.131,2.131,0,0,1-1.129,1.882l-3.236,1.725a2.124,2.124,0,0,1-2.217-.128l-2.335-1.616a.982.982,0,0,0-1.287.152l-3.768,4.212a.976.976,0,0,0-.043,1.253l.934,1.2a2.138,2.138,0,0,1,.288,2.121l-1.545,3.752a2.124,2.124,0,0,1-1.971,1.32H1198.8a.98.98,0,0,0-.979.979v7.01a.98.98,0,0,0,.979.978h1.727a2.121,2.121,0,0,1,1.907,1.179l1.377,2.753a2.145,2.145,0,0,1-.336,2.394l-1.788,1.951a.979.979,0,0,0,.079,1.4l5.314,4.621a.976.976,0,0,0,1.262.019l1.865-1.526a2.127,2.127,0,0,1,2.142-.329l3.067,1.226a2.123,2.123,0,0,1,1.34,1.98v1.962a.98.98,0,0,0,.979.979h3.341Z" fill="#42ffff"/>
      </g>
      <g id="Grupo_48" data-name="Grupo 48">
        <path id="Trazado_48" data-name="Trazado 48" d="M1224.414,4632.66h-3.341v-1.153h3.341a.98.98,0,0,0,.979-.979v-1.962a2.123,2.123,0,0,1,1.34-1.98l3.068-1.226a2.123,2.123,0,0,1,2.141.33l1.865,1.525a.975.975,0,0,0,1.262-.019l5.314-4.621a.979.979,0,0,0,.079-1.4l-1.788-1.951a2.145,2.145,0,0,1-.336-2.394l1.377-2.753a2.12,2.12,0,0,1,1.907-1.179h1.727a.98.98,0,0,0,.979-.978v-7.01a.98.98,0,0,0-.979-.979H1241.7a2.124,2.124,0,0,1-1.971-1.32l-1.545-3.752a2.138,2.138,0,0,1,.288-2.121l.935-1.2a.978.978,0,0,0-.044-1.253l-3.768-4.212a.981.981,0,0,0-1.287-.152l-2.335,1.616a2.127,2.127,0,0,1-2.217.129l-3.236-1.727a2.128,2.128,0,0,1-1.129-1.881V4586.3a.98.98,0,0,0-.979-.979h-3.341v-1.153h3.341a2.135,2.135,0,0,1,2.133,2.132v1.755a.975.975,0,0,0,.518.864l3.236,1.726a.976.976,0,0,0,1.018-.059l2.335-1.616a2.135,2.135,0,0,1,2.8.331l3.769,4.212a2.132,2.132,0,0,1,.094,2.731l-.934,1.2a.982.982,0,0,0-.133.973l1.545,3.752a.976.976,0,0,0,.905.606h1.647a2.134,2.134,0,0,1,2.132,2.132v7.01a2.133,2.133,0,0,1-2.132,2.131h-1.727a.975.975,0,0,0-.876.542l-1.376,2.753a.983.983,0,0,0,.154,1.1l1.788,1.951a2.133,2.133,0,0,1-.172,3.05l-5.314,4.62a2.129,2.129,0,0,1-2.749.042l-1.865-1.526a.975.975,0,0,0-.983-.151l-3.067,1.226a.974.974,0,0,0-.615.909v1.962A2.136,2.136,0,0,1,1224.414,4632.66Z" fill="#42ffff"/>
      </g>
    </g>
    <g id="Grupo_50" data-name="Grupo 50">
      <path id="Trazado_49" data-name="Trazado 49" d="M1220.91,4623.318a14.9,14.9,0,1,1,14.9-14.9A14.921,14.921,0,0,1,1220.91,4623.318Zm0-28.076a13.173,13.173,0,1,0,13.173,13.173A13.187,13.187,0,0,0,1220.91,4595.242Z" fill="#42ffff"/>
    </g>
    <g id="Grupo_51" data-name="Grupo 51">
      <path id="Trazado_50" data-name="Trazado 50" d="M1220.91,4623.318a.843.843,0,0,1-.264-.042c-.087-.028-8.763-2.942-8.763-14.861s8.676-14.834,8.763-14.862a.865.865,0,0,1,1.129.824v28.076a.866.866,0,0,1-.865.865Zm-.865-27.6c-2.114,1.154-6.432,4.513-6.432,12.7s4.317,11.546,6.432,12.7Z" fill="#42ffff"/>
    </g>
    <g id="Grupo_52" data-name="Grupo 52">
      <path id="Trazado_51" data-name="Trazado 51" d="M1221.152,4623.283l-.484-1.661c.291-.087,7.212-2.3,7.212-13.207s-6.921-13.12-7.216-13.209l.488-1.66c.345.1,8.458,2.608,8.458,14.869S1221.5,4623.182,1221.152,4623.283Z" fill="#42ffff"/>
    </g>
    <g id="Grupo_53" data-name="Grupo 53">
      <rect id="Rectángulo_20" data-name="Rectángulo 20" width="25.296" height="1.73" transform="translate(1208.387 4601.535)" fill="#42ffff"/>
    </g>
    <g id="Grupo_54" data-name="Grupo 54">
      <rect id="Rectángulo_21" data-name="Rectángulo 21" width="28.075" height="1.73" transform="translate(1206.872 4607.412)" fill="#42ffff"/>
    </g>
    <g id="Grupo_55" data-name="Grupo 55">
      <rect id="Rectángulo_22" data-name="Rectángulo 22" width="25.296" height="1.73" transform="translate(1208.387 4613.614)" fill="#42ffff"/>
    </g>
    <g id="Grupo_56" data-name="Grupo 56">
      <path id="Trazado_52" data-name="Trazado 52" d="M1197.242,4622.866h-28.729a.577.577,0,0,1-.576-.577v-46.357a3.529,3.529,0,0,1,3.841-3.514h61.048c.035,0,3.514.051,3.514,4.494v8.487a.576.576,0,1,1-1.153,0v-8.487c0-3.3-2.265-3.341-2.361-3.341h-61.048a2.407,2.407,0,0,0-2.688,2.361v45.781h28.152a.577.577,0,0,1,0,1.153Z" fill="#42ffff"/>
    </g>
    <g id="Grupo_57" data-name="Grupo 57">
      <path id="Trazado_53" data-name="Trazado 53" d="M1235.764,4581.492h-67.251a.577.577,0,0,1,0-1.153h67.251a.577.577,0,0,1,0,1.153Z" fill="#42ffff"/>
    </g>
    <rect id="Rectángulo_23" data-name="Rectángulo 23" width="17.302" height="13.385" transform="translate(1175.042 4587.358)" fill="#42ffff"/>
    <g id="Grupo_58" data-name="Grupo 58">
      <path id="Trazado_54" data-name="Trazado 54" d="M1192.508,4605.727h-17.3a.576.576,0,1,1,0-1.153h17.3a.576.576,0,0,1,0,1.153Z" fill="#42ffff"/>
    </g>
    <g id="Grupo_59" data-name="Grupo 59">
      <path id="Trazado_55" data-name="Trazado 55" d="M1192.508,4611.277h-17.3a.576.576,0,1,1,0-1.153h17.3a.576.576,0,0,1,0,1.153Z" fill="#42ffff"/>
    </g>
    <g id="Grupo_60" data-name="Grupo 60">
      <path id="Trazado_56" data-name="Trazado 56" d="M1183.041,4616.173h-7.835a.576.576,0,1,1,0-1.153h7.835a.576.576,0,0,1,0,1.153Z" fill="#42ffff"/>
    </g>
    <g id="Grupo_61" data-name="Grupo 61">
      <path id="Trazado_57" data-name="Trazado 57" d="M1192.345,4616.01h-7.835a.576.576,0,1,1,0-1.153h7.835a.576.576,0,0,1,0,1.153Z" fill="#42ffff"/>
    </g>
    <g id="Grupo_62" data-name="Grupo 62">
      <path id="Trazado_58" data-name="Trazado 58" d="M1212.836,4570.959a.577.577,0,0,1-.577-.577v-2.567a1.92,1.92,0,0,1,.4-1.451,2.621,2.621,0,0,1,2.137-.8h3.8c.277-.127.822-.451.909-.859.079-.373-.254-.8-.547-1.1-1.912-1.911-16.051-12.9-16.194-13.01a1.122,1.122,0,0,0-1.524-.048l-.055.048c-.143.111-14.357,11.1-16.268,13.01-.294.294-.627.723-.546,1.1.089.414.649.738.907.857h3.8a2.621,2.621,0,0,1,2.137.8,1.918,1.918,0,0,1,.4,1.451v2.567a.576.576,0,1,1-1.153,0l.012-2.725h0a.784.784,0,0,0-.155-.57,1.622,1.622,0,0,0-1.238-.372h-4.022l-.1-.037a2.788,2.788,0,0,1-1.716-1.729,2.347,2.347,0,0,1,.858-2.156c1.94-1.94,15.473-12.408,16.352-13.087a2.279,2.279,0,0,1,3.01-.025c.592.46,14.347,11.15,16.309,13.112a2.347,2.347,0,0,1,.858,2.156,2.788,2.788,0,0,1-1.716,1.729l-.1.037H1214.8a1.622,1.622,0,0,0-1.238.372.783.783,0,0,0-.154.579l.01.1v2.611A.577.577,0,0,1,1212.836,4570.959Z" fill="#42ffff"/>
    </g>
    <g id="Grupo_63" data-name="Grupo 63">
      <path id="Trazado_59" data-name="Trazado 59" d="M1219.114,4558.227a.58.58,0,0,1-.369-.133l-9.793-8.162a.577.577,0,0,1,.738-.886l9.793,8.162a.576.576,0,0,1-.369,1.019Z" fill="#42ffff"/>
    </g>
    <circle id="Elipse_5" data-name="Elipse 5" cx="0.979" cy="0.979" r="0.979" transform="translate(1220.42 4558.957)" fill="#42ffff"/>
    <circle id="Elipse_6" data-name="Elipse 6" cx="0.979" cy="0.979" r="0.979" transform="translate(1194.14 4626.697)" fill="#42ffff"/>
    <circle id="Elipse_7" data-name="Elipse 7" cx="1.306" cy="1.306" r="1.306" transform="translate(1172.594 4575.769)" fill="#42ffff"/>
    <circle id="Elipse_8" data-name="Elipse 8" cx="1.306" cy="1.306" r="1.306" transform="translate(1177.164 4575.769)" fill="#42ffff"/>
    <circle id="Elipse_9" data-name="Elipse 9" cx="1.306" cy="1.306" r="1.306" transform="translate(1181.408 4575.769)" fill="#42ffff"/>
    <g id="Grupo_64" data-name="Grupo 64">
      <path id="Trazado_60" data-name="Trazado 60" d="M1191.692,4628.089h-18.608a.576.576,0,1,1,0-1.153h18.608a.576.576,0,0,1,0,1.153Z" fill="#42ffff"/>
    </g>
  </g>
</svg>
