<svg xmlns="http://www.w3.org/2000/svg" width="70.006" height="70.006" viewBox="0 0 70.006 70.006">
  <g id="Grupo_1224" data-name="Grupo 1224" transform="translate(-854.933 -4551.654)">
    <g id="Grupo_84" data-name="Grupo 84">
      <path id="Trazado_78" data-name="Trazado 78" d="M880.664,4583.875a.519.519,0,0,1-.066,0c-.069-.01-6.888-1.058-6.888-7.414s6.819-7.4,6.888-7.413a.464.464,0,0,1,.132.918c-.249.036-6.093.95-6.093,6.5s5.844,6.46,6.093,6.5a.464.464,0,0,1-.066.923Z" fill="#42ffff"/>
    </g>
    <g id="Grupo_85" data-name="Grupo 85">
      <path id="Trazado_79" data-name="Trazado 79" d="M899.208,4583.875a.463.463,0,0,1-.061-.923c.267-.036,6.552-.951,6.552-6.5s-5.844-6.459-6.093-6.5a.464.464,0,0,1,.132-.918c.068.01,6.888,1.058,6.888,7.413s-7.283,7.4-7.356,7.414A.45.45,0,0,1,899.208,4583.875Z" fill="#42ffff"/>
    </g>
    <g id="Grupo_87" data-name="Grupo 87">
      <path id="Trazado_81" data-name="Trazado 81" d="M891.192,4586.433a2.471,2.471,0,0,1-1.677-.615,2.528,2.528,0,0,1-.738-1.943.7.7,0,0,1,1.391,0,1.226,1.226,0,0,0,.294.925,1.249,1.249,0,0,0,.876.237l.068,0h11.511a1.887,1.887,0,0,0,1.909-1.661l0-3.439a.7.7,0,0,1,1.391,0v3.4a1.529,1.529,0,0,1-.029.3,3.24,3.24,0,0,1-3.274,2.787H891.406C891.335,4586.43,891.263,4586.433,891.192,4586.433Z" fill="#42ffff"/>
    </g>
    <g id="Grupo_88" data-name="Grupo 88">
      <path id="Trazado_82" data-name="Trazado 82" d="M862.388,4607.956a.458.458,0,0,1-.3-.112.464.464,0,0,1-.049-.654c.179-.208,4.394-5.1,5.782-6.489,1.2-1.2,9.722-3.4,14.7-4.6a.417.417,0,0,0,.319-.408v-7.287a.464.464,0,1,1,.927,0v7.287a1.341,1.341,0,0,1-1.028,1.309c-7.938,1.92-13.536,3.629-14.26,4.353-1.363,1.362-5.691,6.387-5.734,6.438A.463.463,0,0,1,862.388,4607.956Z" fill="#42ffff"/>
    </g>
    <g id="Grupo_89" data-name="Grupo 89">
      <path id="Trazado_83" data-name="Trazado 83" d="M917.124,4607.784a51.315,51.315,0,0,0-5.7-5.935c-2.432-2.027-12.129-4.5-13.9-4.937l-4.134,4.961a1.519,1.519,0,0,1-1.168.547h-4.416a1.779,1.779,0,0,1-1.415-.707l-3.781-5.042.742-.556,3.781,5.041a.842.842,0,0,0,.673.336h4.416a.591.591,0,0,0,.456-.213l4.5-5.4.28.067c.478.114,11.728,2.834,14.561,5.194a51.249,51.249,0,0,1,5.822,6.065Z" fill="#42ffff"/>
    </g>
    <g id="Grupo_90" data-name="Grupo 90">
      <path id="Trazado_84" data-name="Trazado 84" d="M896.8,4597.32a.464.464,0,0,1-.464-.464v-8.808a.464.464,0,0,1,.928,0v8.808A.464.464,0,0,1,896.8,4597.32Z" fill="#42ffff"/>
    </g>
    <g id="Grupo_1224-2" data-name="Grupo 1224">
      <g id="Grupo_82" data-name="Grupo 82">
        <path id="Trazado_76" data-name="Trazado 76" d="M889.88,4621.66a.464.464,0,0,1,0-.927h.045a34.5,34.5,0,0,0,5.286-.4.464.464,0,1,1,.143.916,35.47,35.47,0,0,1-5.418.417Zm-5.4-.429a.47.47,0,0,1-.073-.006,34.94,34.94,0,0,1-5.339-1.286.463.463,0,0,1,.288-.881,33.987,33.987,0,0,0,5.2,1.251.464.464,0,0,1-.072.922ZM900.554,4620a.464.464,0,0,1-.142-.905,33.9,33.9,0,0,0,4.944-2.04.464.464,0,0,1,.42.827,34.857,34.857,0,0,1-5.079,2.1A.492.492,0,0,1,900.554,4620Zm-26.345-2.118a.472.472,0,0,1-.211-.051,35.038,35.038,0,0,1-4.674-2.879.463.463,0,1,1,.546-.748,34.2,34.2,0,0,0,4.55,2.8.464.464,0,0,1-.211.877Zm35.981-2.778a.463.463,0,0,1-.272-.839,34.38,34.38,0,0,0,4.07-3.467.463.463,0,1,1,.654.656,35.215,35.215,0,0,1-4.18,3.562A.459.459,0,0,1,910.19,4615.1Zm-44.707-3.588a.461.461,0,0,1-.328-.137,35.38,35.38,0,0,1-3.564-4.178.464.464,0,1,1,.751-.545,34.4,34.4,0,0,0,3.469,4.069.464.464,0,0,1-.328.791Zm52.36-4.038a.456.456,0,0,1-.273-.09.463.463,0,0,1-.1-.648,34.158,34.158,0,0,0,2.8-4.548.464.464,0,1,1,.825.423,35.148,35.148,0,0,1-2.881,4.672A.462.462,0,0,1,917.843,4607.475Zm-58.707-4.709a.463.463,0,0,1-.413-.253,35.022,35.022,0,0,1-2.1-5.078.464.464,0,0,1,.883-.285,33.934,33.934,0,0,0,2.042,4.942.464.464,0,0,1-.413.674Zm63.636-4.9a.477.477,0,0,1-.144-.023.465.465,0,0,1-.3-.585,33.88,33.88,0,0,0,1.255-5.2.464.464,0,0,1,.916.146,34.991,34.991,0,0,1-1.289,5.338A.464.464,0,0,1,922.772,4597.863Zm-66.961-5.378a.464.464,0,0,1-.458-.392,35.318,35.318,0,0,1-.42-5.436.48.48,0,0,1,.464-.482.448.448,0,0,1,.464.445v.037a34.488,34.488,0,0,0,.408,5.293.464.464,0,0,1-.386.53A.623.623,0,0,1,855.811,4592.485Zm68.664-5.29a.463.463,0,0,1-.463-.464v-.074a34.447,34.447,0,0,0-.415-5.33.464.464,0,1,1,.916-.144,35.317,35.317,0,0,1,.426,5.474v.074A.464.464,0,0,1,924.475,4587.195Zm-68.652-5.513a.418.418,0,0,1-.073-.006.462.462,0,0,1-.385-.53,34.735,34.735,0,0,1,1.283-5.34.464.464,0,1,1,.882.287,33.881,33.881,0,0,0-1.249,5.2A.465.465,0,0,1,855.823,4581.682Zm66.972-5.233a.464.464,0,0,1-.441-.32,34,34,0,0,0-2.048-4.941.464.464,0,1,1,.826-.421,34.927,34.927,0,0,1,2.1,5.075.464.464,0,0,1-.3.585A.47.47,0,0,1,922.795,4576.449Zm-63.627-5.039a.465.465,0,0,1-.412-.675,35.033,35.033,0,0,1,2.876-4.675.464.464,0,1,1,.75.546,34.23,34.23,0,0,0-2.8,4.551A.463.463,0,0,1,859.168,4571.41Zm58.716-4.588a.463.463,0,0,1-.375-.191,34.436,34.436,0,0,0-3.474-4.065.463.463,0,0,1,.656-.655,35.222,35.222,0,0,1,3.568,4.175.463.463,0,0,1-.375.736Zm-52.353-4.142a.464.464,0,0,1-.328-.792,35.44,35.44,0,0,1,4.177-3.565.464.464,0,0,1,.545.75,34.494,34.494,0,0,0-4.067,3.472A.463.463,0,0,1,865.531,4562.68Zm44.714-3.5a.463.463,0,0,1-.273-.088,34.155,34.155,0,0,0-4.553-2.8.464.464,0,0,1,.422-.826,35.213,35.213,0,0,1,4.677,2.874.463.463,0,0,1-.273.838Zm-35.971-2.851a.464.464,0,0,1-.211-.877,34.939,34.939,0,0,1,5.077-2.1.464.464,0,1,1,.286.882,34.045,34.045,0,0,0-4.942,2.045A.463.463,0,0,1,874.274,4556.329Zm26.352-2.062a.462.462,0,0,1-.144-.023,34,34,0,0,0-5.2-1.246.464.464,0,0,1,.145-.916,35.051,35.051,0,0,1,5.34,1.28.464.464,0,0,1-.143.905ZM884.552,4553a.464.464,0,0,1-.071-.922,35.429,35.429,0,0,1,5.455-.422.472.472,0,0,1,.473.464.456.456,0,0,1-.454.463v-.464l0,.464a34.529,34.529,0,0,0-5.327.412A.626.626,0,0,1,884.552,4553Z" fill="#42ffff"/>
      </g>
      <g id="Grupo_83" data-name="Grupo 83">
        <path id="Trazado_77" data-name="Trazado 77" d="M889.473,4592.22c-8.421,0-9.935-12.04-10.2-15.73-.375-5.258,1.953-6.82,2.971-7.247a.432.432,0,0,0,.273-.394v-1.53a1.348,1.348,0,0,1,2.018-1.171l4.963,2.836a.42.42,0,0,0,.208.056h6.72a2.946,2.946,0,0,1,2.231.952c1.689,1.8,1.5,5.587,1.478,6.013C900.129,4586.315,896.243,4592.22,889.473,4592.22Zm-5.6-25.324a.429.429,0,0,0-.214.059.412.412,0,0,0-.209.364v1.53a1.359,1.359,0,0,1-.842,1.249c-.834.35-2.738,1.667-2.405,6.326.249,3.488,1.654,14.869,9.274,14.869,6.181,0,9.73-5.568,9.735-15.276l0-.071c.01-.152.219-3.779-1.228-5.319a2.028,2.028,0,0,0-1.555-.66h-6.72a1.356,1.356,0,0,1-.668-.177l-4.963-2.837A.417.417,0,0,0,883.869,4566.9Z" fill="#42ffff"/>
      </g>
      <g id="Grupo_86" data-name="Grupo 86">
        <path id="Trazado_80" data-name="Trazado 80" d="M904.772,4572.285a.464.464,0,0,1-.464-.464c0-10.843-9.586-11.93-10.679-12.018a.407.407,0,0,0-.311.108.421.421,0,0,0-.137.313v1.906a1.007,1.007,0,0,1-.472.856,1.017,1.017,0,0,1-.981.06c-4.819-2.293-7.72-1.9-7.749-1.893-7.4.871-7.488,10.57-7.488,10.668a.464.464,0,1,1-.927,0c0-.106.095-10.623,8.291-11.587.111-.019,3.164-.456,8.271,1.974a.089.089,0,0,0,.088,0,.082.082,0,0,0,.04-.073v-1.906a1.361,1.361,0,0,1,.435-1,1.343,1.343,0,0,1,1.014-.35c1.181.1,11.532,1.268,11.532,12.942A.464.464,0,0,1,904.772,4572.285Z" fill="#42ffff"/>
      </g>
      <path id="Trazado_85" data-name="Trazado 85" d="M882.518,4596.393l-14.372,4.636-5.563,6.49s11.59,12.054,19.472,12.518,15.792,2.291,28.99-6.041c.217.014,6.244-6.94,6.244-6.94s-6.264-6.1-8.7-7.222-11.24-3.441-11.24-3.441l-3.787,4.688-1.313.875-5.563-.464Z" fill="#42ffff"/>
    </g>
    <circle id="Elipse_10" data-name="Elipse 10" cx="0.927" cy="0.927" r="0.927" transform="translate(889.009 4606.592)" fill="#42ffff"/>
    <circle id="Elipse_11" data-name="Elipse 11" cx="0.927" cy="0.927" r="0.927" transform="translate(889.009 4609.837)" fill="#42ffff"/>
    <circle id="Elipse_12" data-name="Elipse 12" cx="0.927" cy="0.927" r="0.927" transform="translate(889.009 4613.083)" fill="#42ffff"/>
    <g id="Grupo_91" data-name="Grupo 91">
      <path id="Trazado_86" data-name="Trazado 86" d="M904.076,4609.606h-5.563a.464.464,0,1,1,0-.928h5.563a.464.464,0,1,1,0,.928Z" fill="#42ffff"/>
    </g>
  </g>
</svg>
