<svg xmlns="http://www.w3.org/2000/svg" xmlns:xlink="http://www.w3.org/1999/xlink" width="102.006" height="97.007" viewBox="0 0 102.006 97.007">
  <defs>
    <linearGradient id="linear-gradient" x1="0.486" y1="1.012" x2="0.513" y2="-0.012" gradientUnits="objectBoundingBox">
      <stop offset="0" stop-color="#4f6abd"/>
      <stop offset="1" stop-color="#59badf"/>
    </linearGradient>
  </defs>
  <g id="Grupo_1206" data-name="Grupo 1206" transform="translate(-1363.384 -1386.985)">
    <path id="Trazado_1286" data-name="Trazado 1286" d="M1466.279,1373.024a5.756,5.756,0,0,0-1.188-1.271v-13.4h0v-.027a6.1,6.1,0,0,0-.094-1.03c-.011-.062-.023-.122-.036-.183a5.906,5.906,0,0,0-.235-.825c-.035-.1-.072-.19-.112-.282a5.207,5.207,0,0,0-4.731-3.3h-20.216a5.209,5.209,0,0,0-4.732,3.3,5.959,5.959,0,0,0-.383,1.29,6.219,6.219,0,0,0-.093,1.03v.027h0v38.672c-.933-1.066-1.864-2.135-2.806-3.192v-35.48h0v-.027a6.128,6.128,0,0,0-.094-1.03,5.852,5.852,0,0,0-.383-1.29,5.207,5.207,0,0,0-4.731-3.3h-20.216a5.209,5.209,0,0,0-4.732,3.3,5.9,5.9,0,0,0-.382,1.29,6.115,6.115,0,0,0-.094,1.03v.027h0v46.216c-.277-.243-.554-.483-.831-.726-.724-.635-1.448-1.271-2.176-1.9v-43.589a5.678,5.678,0,0,0-3.184-5.2c-.08-.038-.165-.066-.247-.1s-.153-.065-.231-.092a4.83,4.83,0,0,0-1.548-.254h-20.215a5.447,5.447,0,0,0-5.209,5.646v59.832a5.307,5.307,0,0,0-.476.472,5.723,5.723,0,0,0-.646.905,6.022,6.022,0,0,0-.858,2.686,6.321,6.321,0,0,0,.294,2.488,5.934,5.934,0,0,0,1.46,2.44c.071.07.151.124.226.189v16.7a5.447,5.447,0,0,0,5.209,5.646H1392.8a5.447,5.447,0,0,0,5.21-5.646v-36.041q1.509,1.316,3.007,2.646v33.4a6.054,6.054,0,0,0,.106,1.136,5.95,5.95,0,0,0,.3,1.059,5.288,5.288,0,0,0,4.268,3.422,4.924,4.924,0,0,0,.531.029h20.216a4.924,4.924,0,0,0,.531-.029,5.289,5.289,0,0,0,4.268-3.422,5.95,5.95,0,0,0,.3-1.059,6.148,6.148,0,0,0,.106-1.136v-43.351q1.4,1.609,2.806,3.217v40.134a6.065,6.065,0,0,0,.106,1.136,5.869,5.869,0,0,0,.3,1.059,5.287,5.287,0,0,0,4.267,3.422,4.954,4.954,0,0,0,.532.029h20.216a4.934,4.934,0,0,0,.531-.029,5.5,5.5,0,0,0,4.678-5.617v-62.712a5.777,5.777,0,0,0,.71-.634,5.574,5.574,0,0,0,.6-.75,5.807,5.807,0,0,0,.8-1.828,6.451,6.451,0,0,0,.18-1.806A6.333,6.333,0,0,0,1466.279,1373.024Z" transform="translate(-1.991 34.282)" fill="#264395"/>
    <path id="Trazado_1287" data-name="Trazado 1287" d="M1465.091,1371.752v-13.4a5.447,5.447,0,0,0-5.21-5.646h-20.215a5.447,5.447,0,0,0-5.209,5.646v38.671c-.933-1.065-1.864-2.134-2.806-3.191v-35.48a5.447,5.447,0,0,0-5.209-5.646h-20.216a5.447,5.447,0,0,0-5.209,5.646v46.216q-1.5-1.317-3.007-2.627v-43.589a5.447,5.447,0,0,0-5.21-5.646h-20.215a5.447,5.447,0,0,0-5.209,5.646v59.832a5.813,5.813,0,0,0-1.572,2.282,6.349,6.349,0,0,0,1.346,6.709c.071.07.152.124.226.189v16.7a5.447,5.447,0,0,0,5.209,5.646H1392.8a5.447,5.447,0,0,0,5.21-5.646v-36.042q1.508,1.317,3.007,2.647v33.4a5.447,5.447,0,0,0,5.209,5.646h20.216a5.447,5.447,0,0,0,5.209-5.646v-43.351q1.4,1.609,2.806,3.217v40.134a5.447,5.447,0,0,0,5.209,5.646h20.215a5.447,5.447,0,0,0,5.21-5.646v-62.712a5.663,5.663,0,0,0,2.1-3.212A6.267,6.267,0,0,0,1465.091,1371.752Zm-94.715-13.4a2.31,2.31,0,0,1,2.209-2.394H1392.8a2.31,2.31,0,0,1,2.209,2.394v36.313a5.983,5.983,0,0,0-1.515-1.212,4.909,4.909,0,0,0-5.774.445,5.728,5.728,0,0,0-2.128,5.972,2.664,2.664,0,0,1-.708,2.584c-3.8,4.507-7.537,9.071-11.368,13.543a2.778,2.778,0,0,1-2.018.832,6.59,6.59,0,0,0-1.122.051Zm24.633,85.715a2.31,2.31,0,0,1-2.209,2.394h-20.215a2.31,2.31,0,0,1-2.209-2.394V1428.7a5.086,5.086,0,0,0,3.2-.746c2.145-1.332,3.073-3.762,2.673-6.55a3.055,3.055,0,0,1,.507-2.088c3.539-4.367,7.162-8.653,10.739-12.985.931-1.128,1.886-2.146,2.886-2.146.512,0,1.705.212,2.284.2a2.459,2.459,0,0,1,1.544.329c.27.23.536.466.8.7Zm9.008-85.715a2.31,2.31,0,0,1,2.209-2.394h20.216a2.31,2.31,0,0,1,2.209,2.394V1386.1a5.688,5.688,0,0,0-1.355-.9,5.262,5.262,0,0,0-6.1,1.27,6.109,6.109,0,0,0-1.089,6.593,2.344,2.344,0,0,1-.169,2.37c-2.465,4.626-4.9,9.27-7.349,13.908a3.38,3.38,0,0,1-4.982,1.008q-1.8-1.575-3.59-3.16Zm24.634,85.715a2.31,2.31,0,0,1-2.209,2.394h-20.216a2.31,2.31,0,0,1-2.209-2.394v-30.719c.225.2.454.4.679.6a2.352,2.352,0,0,1,.6,1.711,6.282,6.282,0,0,0,2.781,6.342,5.161,5.161,0,0,0,6.3-.751,6.439,6.439,0,0,0,1.434-6.848,2.346,2.346,0,0,1,.018-1.573q4-7.751,8.114-15.439c.432-.813,3.574-1.416,4.124-.791.2.223.391.45.588.673Zm8.806-85.715a2.31,2.31,0,0,1,2.209-2.394h20.215a2.31,2.31,0,0,1,2.21,2.394v12.261a5.136,5.136,0,0,0-3.649,1.31,6.087,6.087,0,0,0-1.632,6.9,2.152,2.152,0,0,1-.192,2.2q-6.819,11.3-13.6,22.637c-.934,1.553-1.374,1.6-2.553.252q-1.51-1.725-3.011-3.456Zm24.634,85.715a2.31,2.31,0,0,1-2.21,2.394h-20.215a2.31,2.31,0,0,1-2.209-2.394v-29.255a6.1,6.1,0,0,0,.448.5,5.235,5.235,0,0,0,6.85.307c2.145-1.7,2.735-4.492,1.7-7.486a2.527,2.527,0,0,1,.232-1.821q6.777-11.437,13.67-22.791a2.375,2.375,0,0,1,1.616-.977c.039,0,.075-.014.114-.019Z" transform="translate(-1.991 34.282)" fill="url(#linear-gradient)"/>
  </g>
</svg>
