<svg xmlns="http://www.w3.org/2000/svg" xmlns:xlink="http://www.w3.org/1999/xlink" width="94.789" height="97.049" viewBox="0 0 94.789 97.049">
  <defs>
    <linearGradient id="linear-gradient" x1="-0.362" y1="1.589" x2="1.382" y2="-0.793" gradientUnits="objectBoundingBox">
      <stop offset="0" stop-color="#4f6abd"/>
      <stop offset="1" stop-color="#59badf"/>
    </linearGradient>
    <linearGradient id="linear-gradient-2" x1="-0.149" y1="2.255" x2="1.214" y2="-1.369" xlink:href="#linear-gradient"/>
  </defs>
  <g id="Grupo_1205" data-name="Grupo 1205" transform="translate(-1006.575 -1356.707)">
    <path id="Trazado_1285" data-name="Trazado 1285" d="M1094.347,1364.526a11.021,11.021,0,0,0-4.451-8.983,14.832,14.832,0,0,0-9.583-3.118q-33.43.021-66.861.017a18.144,18.144,0,0,0-2.971.243c-5.264.884-11.08,5.154-10.911,12.7.22,9.848.055,19.7.055,29.556,0,8.265.025,16.531-.011,24.8a11.349,11.349,0,0,0,5.484,10,15.1,15.1,0,0,0,8.6,2.4q14.391,0,28.781,0h1.422v11.321h-1.167q-9.3,0-18.6,0c-1.181,0-2.363-.033-3.542.019a2.988,2.988,0,0,0,.006,5.975c.4.021.811.013,1.217.013h35.313c4.464,0,8.929.007,13.394-.005a3.008,3.008,0,1,0-.023-5.995c-6.384-.017-12.768-.006-19.151-.007h-1.332v-11.32h1.763c9.446,0,18.893.017,28.339-.021a19.9,19.9,0,0,0,4.166-.44c5.971-1.309,10.025-5.971,10.039-11.7C1094.375,1401.5,1094.347,1383.012,1094.347,1364.526Z" transform="translate(7.009 4.282)" fill="#264395"/>
    <g id="Grupo_1204" data-name="Grupo 1204" transform="translate(7.009 4.282)">
      <path id="Trazado_89" data-name="Trazado 89" d="M1094.348,1364.526a11.022,11.022,0,0,0-4.452-8.983,14.832,14.832,0,0,0-9.583-3.118q-33.43.021-66.861.017a18.126,18.126,0,0,0-2.971.243c-5.264.884-11.08,5.154-10.911,12.7.22,9.848.054,19.7.054,29.556,0,8.265.026,16.531-.01,24.8a11.349,11.349,0,0,0,5.484,10,15.1,15.1,0,0,0,8.6,2.4q14.391,0,28.782,0h1.421v11.321h-1.167q-9.3,0-18.6,0c-1.181,0-2.363-.033-3.542.019a2.988,2.988,0,0,0,.006,5.975c.4.021.811.013,1.217.013h35.312c4.465,0,8.93.007,13.4-.005a3.008,3.008,0,1,0-.023-5.995c-6.384-.017-12.767-.006-19.151-.007h-1.332v-11.32h1.763c9.446,0,18.892.017,28.338-.021a19.891,19.891,0,0,0,4.167-.44c5.971-1.309,10.025-5.971,10.039-11.7C1094.375,1401.5,1094.347,1383.012,1094.348,1364.526Zm-5.263,55.869c0,3.228-2.446,5.695-6.125,6.2a18.567,18.567,0,0,1-2.472.159q-33.662.012-67.323.007a9.855,9.855,0,0,1-5.395-1.336,5.66,5.66,0,0,1-2.913-5.114q.043-28.023,0-56.046a5.655,5.655,0,0,1,2.9-5.121,9.444,9.444,0,0,1,5.16-1.341q17.028.015,34.056.005,17.085,0,34.169,0a9.194,9.194,0,0,1,5.336,1.508,5.5,5.5,0,0,1,2.628,4.812Q1089.069,1392.258,1089.085,1420.4Z" fill="url(#linear-gradient)"/>
      <path id="Trazado_90" data-name="Trazado 90" d="M1079.1,1371.257a3.716,3.716,0,0,0-4.433.215,3.666,3.666,0,0,0-1.122,4.379,1.28,1.28,0,0,1-.133,1.394q-4.689,7.173-9.352,14.366c-.642.985-.945,1.015-1.756.16-2.032-2.141-4.041-4.3-6.093-6.424a2.21,2.21,0,0,1-.724-1.837,3.621,3.621,0,0,0-2.243-3.606,3.834,3.834,0,0,0-4.2.806,3.654,3.654,0,0,0-.749,4.185,1.393,1.393,0,0,1-.116,1.5c-1.7,2.936-3.372,5.883-5.055,8.826a2.439,2.439,0,0,1-3.427.64c-2.323-1.878-4.631-3.776-6.967-5.637a1.631,1.631,0,0,1-.736-1.559,3.505,3.505,0,0,0-2-3.533,3.6,3.6,0,0,0-3.972.283,3.492,3.492,0,0,0-1.464,3.79,1.607,1.607,0,0,1-.486,1.64c-2.612,2.86-5.185,5.757-7.82,8.595a1.989,1.989,0,0,1-1.388.527,3.863,3.863,0,0,0-3.916,2.309,3.776,3.776,0,0,0,5.343,4.756,3.859,3.859,0,0,0,1.839-4.158,1.822,1.822,0,0,1,.348-1.325c2.434-2.771,4.927-5.491,7.387-8.24.64-.717,1.195-1.476,2.372-1.064.333.116.785-.164,1.184-.168a1.8,1.8,0,0,1,1.062.208q3.645,2.883,7.216,5.858a1.426,1.426,0,0,1,.413,1.085,3.872,3.872,0,0,0,1.912,4.025,3.778,3.778,0,0,0,4.331-.476,3.863,3.863,0,0,0,.987-4.346,1.377,1.377,0,0,1,.012-1c1.836-3.28,3.7-6.542,5.581-9.8.3-.516,2.458-.9,2.836-.5,2.085,2.185,4.152,4.387,6.224,6.582-.1.2-.156.337-.22.465a3.789,3.789,0,0,0,5.478,5.019,3.874,3.874,0,0,0,1.172-4.751,1.5,1.5,0,0,1,.159-1.156q4.662-7.257,9.4-14.464a1.663,1.663,0,0,1,1.112-.62,3.879,3.879,0,0,0,3.589-2.791A3.812,3.812,0,0,0,1079.1,1371.257Z" fill="url(#linear-gradient-2)"/>
    </g>
  </g>
</svg>
