<svg xmlns="http://www.w3.org/2000/svg" xmlns:xlink="http://www.w3.org/1999/xlink" width="107.008" height="105.152" viewBox="0 0 107.008 105.152">
  <defs>
    <linearGradient id="linear-gradient" y1="0.5" x2="1" y2="0.5" gradientUnits="objectBoundingBox">
      <stop offset="0" stop-color="#4f6abd"/>
      <stop offset="1" stop-color="#59badf"/>
    </linearGradient>
    <linearGradient id="linear-gradient-3" x1="0" y1="0.5" x2="1" y2="0.5" xlink:href="#linear-gradient"/>
    <linearGradient id="linear-gradient-4" x1="0" y1="0.5" x2="1" y2="0.5" xlink:href="#linear-gradient"/>
    <linearGradient id="linear-gradient-5" x1="0" y1="0.5" x2="1" y2="0.5" xlink:href="#linear-gradient"/>
    <linearGradient id="linear-gradient-6" x1="0" y1="0.5" x2="1" y2="0.5" xlink:href="#linear-gradient"/>
  </defs>
  <g id="Grupo_1207" data-name="Grupo 1207" transform="translate(-1372.375 -1599.721)">
    <path id="Trazado_3" data-name="Trazado 3" d="M1466.718,1645.84a5.975,5.975,0,0,0,2.165-4.6v-5.494a5.99,5.99,0,0,0-5.982-5.982H1421.05v-2.356a10.988,10.988,0,1,0-9.937.2l-.063,1.993-42.193.158a5.989,5.989,0,0,0-5.982,5.982v5.494a5.972,5.972,0,0,0,2.165,4.6,8.084,8.084,0,0,0-2.665,5.993v51.926a8.123,8.123,0,0,0,8.114,8.114h90.78a8.123,8.123,0,0,0,8.114-8.114v-51.926A8.081,8.081,0,0,0,1466.718,1645.84Z" transform="translate(10 -7)" fill="#264395"/>
    <g id="Grupo_106" data-name="Grupo 106" transform="translate(10 -7)">
      <path id="Trazado_93" data-name="Trazado 93" d="M1466.718,1645.839a5.972,5.972,0,0,0,2.165-4.6v-5.494a5.989,5.989,0,0,0-5.982-5.982H1421.05v-2.356a10.988,10.988,0,1,0-9.937.2l-.063,1.993-42.193.158a5.989,5.989,0,0,0-5.982,5.982v5.494a5.971,5.971,0,0,0,2.165,4.6,8.085,8.085,0,0,0-2.665,5.994v51.926a8.123,8.123,0,0,0,8.114,8.114h90.78a8.123,8.123,0,0,0,8.114-8.114v-51.926A8.085,8.085,0,0,0,1466.718,1645.839Zm-100.843-4.6v-5.494a2.987,2.987,0,0,1,2.987-2.982l43.647-.164a1.5,1.5,0,0,0,1.494-1.452l.142-4.467a1.5,1.5,0,0,0-.989-1.458,7.989,7.989,0,1,1,6.116-.28l-.019,0a1.5,1.5,0,0,0-1.2,1.471v4.846a1.5,1.5,0,0,0,1.5,1.5H1462.9a2.986,2.986,0,0,1,2.982,2.982v5.494a2.977,2.977,0,0,1-2.176,2.857,8.091,8.091,0,0,0-2.438-.375h-90.78a8.091,8.091,0,0,0-2.438.375A2.977,2.977,0,0,1,1365.875,1641.238Zm99.508,62.521a4.119,4.119,0,0,1-4.114,4.114h-90.78a4.119,4.119,0,0,1-4.114-4.114v-51.926a4.118,4.118,0,0,1,4.114-4.113h90.78a4.118,4.118,0,0,1,4.114,4.113Z" fill="url(#linear-gradient)"/>
      <path id="Trazado_94" data-name="Trazado 94" d="M1451.382,1655.725a5.006,5.006,0,0,0-5,5,4.941,4.941,0,0,0,.23,1.419L1440,1665.3a4.987,4.987,0,0,0-8.624,3.426,5.022,5.022,0,0,0,.1,1l-7.541,3.6a5.026,5.026,0,1,0,.818,1.826l7.516-3.59a4.995,4.995,0,0,0,9.107-2.84,4.922,4.922,0,0,0-.322-1.713l6.5-3.1a4.99,4.99,0,1,0,3.824-8.183Zm-31.5,23.5a3,3,0,1,1,3-3A3,3,0,0,1,1419.879,1679.226Zm16.5-7.5a3,3,0,1,1,3-3A3,3,0,0,1,1436.38,1671.726Zm15-8a3,3,0,1,1,3-3A3,3,0,0,1,1451.382,1663.725Z" fill="url(#linear-gradient)"/>
      <path id="Trazado_95" data-name="Trazado 95" d="M1408.378,1661.725h-32a1,1,0,0,0,0,2h32a1,1,0,1,0,0-2Z" fill="url(#linear-gradient-3)"/>
      <path id="Trazado_96" data-name="Trazado 96" d="M1408.378,1669.726h-32a1,1,0,0,0,0,2h32a1,1,0,1,0,0-2Z" fill="url(#linear-gradient-4)"/>
      <path id="Trazado_97" data-name="Trazado 97" d="M1408.378,1694.728h-32a1,1,0,0,0,0,2h32a1,1,0,1,0,0-2Z" fill="url(#linear-gradient-5)"/>
      <path id="Trazado_98" data-name="Trazado 98" d="M1376.376,1679.726h22a1,1,0,0,0,0-2h-22a1,1,0,0,0,0,2Z" fill="url(#linear-gradient-6)"/>
      <path id="Trazado_99" data-name="Trazado 99" d="M1376.376,1687.727h22a1,1,0,0,0,0-2h-22a1,1,0,0,0,0,2Z" fill="url(#linear-gradient)"/>
    </g>
  </g>
</svg>
