<svg xmlns="http://www.w3.org/2000/svg" xmlns:xlink="http://www.w3.org/1999/xlink" width="102.007" height="94.913" viewBox="0 0 102.007 94.913">
  <defs>
    <linearGradient id="linear-gradient" x1="0.49" y1="1.012" x2="0.517" y2="0.004" gradientUnits="objectBoundingBox">
      <stop offset="0" stop-color="#4f6abd"/>
      <stop offset="1" stop-color="#59badf"/>
    </linearGradient>
  </defs>
  <g id="Grupo_1206" data-name="Grupo 1206" transform="translate(-908.358 -1678.098)">
    <path id="Trazado_1287" data-name="Trazado 1287" d="M1082.978,1642.451h-1.272l-48.482-26.12a4.271,4.271,0,0,0-3.508-.252,4.539,4.539,0,0,0-2.638,2.633l-1.631,4.2-10.579-3.715a4.985,4.985,0,0,0-4.016.3,5.476,5.476,0,0,0-2.7,3.421l-5.323,19.585a11.386,11.386,0,0,0-10.479,11.332v45.522a11.391,11.391,0,0,0,11.378,11.378h79.251a11.391,11.391,0,0,0,11.378-11.378v-45.522A11.391,11.391,0,0,0,1082.978,1642.451Z" transform="translate(-83.991 62.282)" fill="#264395"/>
    <path id="Trazado_1288" data-name="Trazado 1288" d="M1082.978,1642.451h-1.272l-48.482-26.12a4.271,4.271,0,0,0-3.508-.252,4.542,4.542,0,0,0-2.638,2.633l-1.631,4.2-10.579-3.715a4.985,4.985,0,0,0-4.016.3,5.476,5.476,0,0,0-2.7,3.421l-5.323,19.585a11.386,11.386,0,0,0-10.479,11.332v45.522a11.391,11.391,0,0,0,11.378,11.378h79.251a11.391,11.391,0,0,0,11.378-11.378v-45.522A11.391,11.391,0,0,0,1082.978,1642.451Zm-53.1-22.653a1.514,1.514,0,0,1,.88-.9,1.262,1.262,0,0,1,1.048.077l32.89,17.72-36.413-12.789Zm-18.828,3.9a2.469,2.469,0,0,1,1.2-1.553,2.03,2.03,0,0,1,1.626-.123l58.161,20.428h-66.086Zm-14.7,46.254H1009.7c.751,0,1.313.451,1.313.855v11.443c0,.4-.562.856-1.313.856H996.349Zm94.007,29.4a7.386,7.386,0,0,1-7.378,7.377h-79.251a7.385,7.385,0,0,1-7.378-7.377v-12.244H1009.7a5.106,5.106,0,0,0,5.313-4.856v-11.443a5.106,5.106,0,0,0-5.313-4.855H996.349v-12.124a7.385,7.385,0,0,1,7.378-7.377h79.251a7.386,7.386,0,0,1,7.378,7.377Z" transform="translate(-83.991 62.282)" fill="url(#linear-gradient)"/>
  </g>
</svg>
