<svg id="Capa_1" data-name="Capa 1" xmlns="http://www.w3.org/2000/svg" viewBox="0 0 166.767 180.604"><defs><style>.cls-1{fill:none;stroke:#769ff8;stroke-miterlimit:10;stroke-width:2px;}</style></defs><title>iconos</title><path class="cls-1" d="M88.06,80.417H85.894v-7.9H82.805v7.9H80.834a1.51,1.51,0,0,0-1.511,1.51v34.257a1.511,1.511,0,0,0,1.511,1.511h1.971v7.9h3.244v-7.9H88.06a1.51,1.51,0,0,0,1.51-1.51V81.927A1.51,1.51,0,0,0,88.06,80.417Z"/><path class="cls-1" d="M103.066,71.663H100.9v-7.9H97.811v7.9H95.839a1.511,1.511,0,0,0-1.51,1.511v34.257a1.51,1.51,0,0,0,1.51,1.51h1.972v7.9h3.244v-7.9h2.011a1.51,1.51,0,0,0,1.51-1.51V73.174A1.51,1.51,0,0,0,103.066,71.663Z"/><path class="cls-1" d="M73.263,71.663H71.1v-7.9h-3.09v7.9H66.036a1.511,1.511,0,0,0-1.51,1.511v34.257a1.51,1.51,0,0,0,1.51,1.51h1.971v7.9h3.245v-7.9h2.011a1.51,1.51,0,0,0,1.51-1.51V73.174A1.51,1.51,0,0,0,73.263,71.663Z"/><path class="cls-1" d="M147.406,79.4l-18.057-4.852a48.275,48.275,0,0,0-1.931-4.792l9.635-16.022a4.42,4.42,0,0,0-.6-5.344l-9.21-9.558a4.419,4.419,0,0,0-5.318-.8l-16.374,9.037a48.179,48.179,0,0,0-6.405-2.726L94.288,26.279a4.42,4.42,0,0,0-4.268-3.272H76.747a4.419,4.419,0,0,0-4.268,3.272L67.626,44.337a48.269,48.269,0,0,0-4.792,1.93L46.812,36.633a4.42,4.42,0,0,0-5.344.6L31.91,46.447a4.422,4.422,0,0,0-.8,5.319l9.037,16.373a48.192,48.192,0,0,0-2.726,6.406L19.36,79.4a4.421,4.421,0,0,0-3.272,4.269V96.939a4.42,4.42,0,0,0,3.272,4.268l18.058,4.853a48.153,48.153,0,0,0,1.93,4.791l-9.634,16.022a4.421,4.421,0,0,0,.605,5.345l9.209,9.557a4.421,4.421,0,0,0,5.319.8l16.373-9.036a48.324,48.324,0,0,0,6.406,2.726l4.853,18.057a4.419,4.419,0,0,0,4.268,3.273H90.02a4.42,4.42,0,0,0,4.268-3.273l4.853-18.057a48.518,48.518,0,0,0,4.792-1.931l16.021,9.635a4.421,4.421,0,0,0,5.345-.605l9.557-9.21a4.421,4.421,0,0,0,.8-5.318l-9.037-16.374a48.311,48.311,0,0,0,2.726-6.405l18.057-4.853a4.42,4.42,0,0,0,3.273-4.268V83.666A4.421,4.421,0,0,0,147.406,79.4Z"/></svg>