<svg id="Capa_1" data-name="Capa 1" xmlns="http://www.w3.org/2000/svg" viewBox="0 0 166.767 180.604"><defs><style>.cls-1{fill:none;stroke:#769ff8;stroke-miterlimit:10;stroke-width:2px;}</style></defs><title>iconos</title><path class="cls-1" d="M52.259,62.433H48.481V48.658H43.094V62.433H39.656a2.634,2.634,0,0,0-2.635,2.634v59.748a2.635,2.635,0,0,0,2.635,2.635h3.438v13.775h5.658V127.45H52.26a2.634,2.634,0,0,0,2.634-2.634V65.067A2.634,2.634,0,0,0,52.259,62.433Z"/><path class="cls-1" d="M86.572,51.086H82.794V37.311H77.406V51.086H73.969a2.634,2.634,0,0,0-2.635,2.634v59.748a2.635,2.635,0,0,0,2.635,2.635h3.437v13.775h5.659V116.1h3.508a2.634,2.634,0,0,0,2.634-2.634V53.72A2.634,2.634,0,0,0,86.572,51.086Z"/><path class="cls-1" d="M114.879,40.775H111.1V27h-5.388V40.775h-3.438A2.635,2.635,0,0,0,99.64,43.41v59.748a2.635,2.635,0,0,0,2.635,2.635h3.438v13.774h5.659V105.793h3.507a2.634,2.634,0,0,0,2.634-2.634V43.409A2.634,2.634,0,0,0,114.879,40.775Z"/><polyline class="cls-1" points="22.753 110.881 70.359 102.552 103.486 84.113 134.722 105.935 154.611 106.488"/><path class="cls-1" d="M12.155,23.713V156.892H152.146"/></svg>