<svg id="Capa_1" data-name="Capa 1" xmlns="http://www.w3.org/2000/svg" viewBox="0 0 166.767 180.604"><defs><style>.cls-1{fill:none;stroke:#769ff8;stroke-miterlimit:10;stroke-width:2px;}</style></defs><title>iconos</title><path class="cls-1" d="M82.483,73.711H80.228V65.488H77.011v8.223H74.958a1.574,1.574,0,0,0-1.573,1.574v35.671a1.574,1.574,0,0,0,1.573,1.574h2.053v8.223H80.39V112.53h2.094a1.573,1.573,0,0,0,1.572-1.573V75.284A1.573,1.573,0,0,0,82.483,73.711Z"/><path class="cls-1" d="M103.756,57.948H100.1V48.561H94.887v9.387H91.56c-1.408,0-2.549.8-2.549,1.8v40.714c0,.991,1.141,1.8,2.549,1.8h3.327v9.386h5.475v-9.386h3.394c1.408,0,2.549-.8,2.549-1.8V59.743C106.305,58.751,105.163,57.948,103.756,57.948Z"/><path class="cls-1" d="M67.075,80.1H64.819V71.879H61.6V80.1H59.55a1.573,1.573,0,0,0-1.573,1.573v35.672a1.573,1.573,0,0,0,1.573,1.573H61.6v8.224h3.379v-8.224h2.094a1.572,1.572,0,0,0,1.572-1.572V81.676A1.573,1.573,0,0,0,67.075,80.1Z"/><path class="cls-1" d="M14.528,141.431H144.334a2.293,2.293,0,0,1,2.293,2.293v0a6.86,6.86,0,0,1-6.86,6.86H19.095a6.86,6.86,0,0,1-6.86-6.86v0a2.293,2.293,0,0,1,2.293-2.293Z"/><path class="cls-1" d="M38.222,38.214v-5.1a3.1,3.1,0,0,1,3.1-3.1H151.435a3.1,3.1,0,0,1,3.1,3.1v80.2a3.1,3.1,0,0,1-3.1,3.1H138.914"/><path class="cls-1" d="M134.377,48.561H24.262a3.1,3.1,0,0,0-3.1,3.1v80.2a3.1,3.1,0,0,0,3.1,3.1H134.377a3.1,3.1,0,0,0,3.1-3.1v-80.2A3.1,3.1,0,0,0,134.377,48.561Z"/></svg>