<svg id="Capa_1" data-name="Capa 1" xmlns="http://www.w3.org/2000/svg" viewBox="0 0 166.767 180.604"><defs><style>.cls-1{fill:none;stroke:#769ff8;stroke-miterlimit:10;stroke-width:2px;}</style></defs><title>iconos</title><path class="cls-1" d="M14.568,136.8H154.732a2.476,2.476,0,0,1,2.476,2.476v0a7.407,7.407,0,0,1-7.407,7.407H19.5a7.407,7.407,0,0,1-7.407-7.407v0a2.476,2.476,0,0,1,2.476-2.476Z"/><rect class="cls-1" x="21.734" y="36.518" width="125.59" height="93.289" rx="3.344"/><path class="cls-1" d="M104.311,81.742h-2.434V66.686h-.019a17.346,17.346,0,0,0-34.657,0h-.019V81.742H64.748a3.828,3.828,0,0,0-3.829,3.828v26.815a3.828,3.828,0,0,0,3.829,3.828h39.563a3.828,3.828,0,0,0,3.829-3.828V85.57A3.828,3.828,0,0,0,104.311,81.742Zm-29.3-13.1h.01a9.516,9.516,0,0,1,19.013,0h.01v13.1H75.013Z"/></svg>