<svg id="Capa_1" data-name="Capa 1" xmlns="http://www.w3.org/2000/svg" viewBox="0 0 166.767 180.604"><defs><style>.cls-1{fill:none;stroke:#769ff8;stroke-miterlimit:10;stroke-width:2px;}</style></defs><title>iconos</title><path class="cls-1" d="M109.472,121.76v-6.026a41.832,41.832,0,0,1,8.376-25.248A43.18,43.18,0,1,0,49,90.6,41.855,41.855,0,0,1,57.3,115.991v5.461"/><rect class="cls-1" x="57.299" y="125.556" width="52.169" height="10.98" rx="1.632"/><path class="cls-1" d="M99.952,142.312v7.549a4.183,4.183,0,0,1-2.548,3.85l-12.386,5.258a4.178,4.178,0,0,1-3.269,0l-12.387-5.258a4.184,4.184,0,0,1-2.548-3.85v-7.549"/><path class="cls-1" d="M87,51.145H84.831v-7.9h-3.09v7.9H79.77a1.511,1.511,0,0,0-1.51,1.511V86.913a1.511,1.511,0,0,0,1.51,1.511h1.971v7.9h3.245v-7.9H87a1.511,1.511,0,0,0,1.51-1.511V52.656A1.511,1.511,0,0,0,87,51.145Z"/><path class="cls-1" d="M100.861,42.392H98.7v-7.9H95.606v7.9H93.635A1.51,1.51,0,0,0,92.124,43.9V78.159a1.51,1.51,0,0,0,1.511,1.511h1.971v7.9H98.85v-7.9h2.011a1.51,1.51,0,0,0,1.51-1.51V43.9A1.51,1.51,0,0,0,100.861,42.392Z"/><path class="cls-1" d="M73.085,58.023H70.919v-7.9H67.83v7.9H65.859a1.51,1.51,0,0,0-1.511,1.511V93.79A1.51,1.51,0,0,0,65.859,95.3H67.83v7.9h3.244V95.3h2.011a1.51,1.51,0,0,0,1.51-1.51V59.534A1.51,1.51,0,0,0,73.085,58.023Z"/></svg>