<svg xmlns="http://www.w3.org/2000/svg" width="1346.445" height="166.646" viewBox="0 0 1346.445 166.646">
  <g id="Grupo_1035" data-name="Grupo 1035" transform="translate(-286.082 -5473.766)">
    <g id="Grupo_907" data-name="Grupo 907">
      <g id="Grupo_878" data-name="Grupo 878">
        <g id="Grupo_877" data-name="Grupo 877">
          <g id="Grupo_874" data-name="Grupo 874">
            <g id="Grupo_873" data-name="Grupo 873">
              <path id="Trazado_1039" data-name="Trazado 1039" d="M963.78,5603.328v11.037L950,5594.682l13.75,8.624Z" fill="#7396f8" opacity="0.21"/>
              <path id="Trazado_1040" data-name="Trazado 1040" d="M978.437,5594.682l-13.772,19.683v-11.037l.022-.022Z" fill="#7396f8" opacity="0.21"/>
              <path id="Trazado_1041" data-name="Trazado 1041" d="M979.146,5588.183l-14.48,8.347v-14.546Z" fill="#7396f8" opacity="0.21"/>
              <path id="Trazado_1042" data-name="Trazado 1042" d="M963.769,5581.984v14.546l-14.48-8.347Z" fill="#7396f8" opacity="0.21"/>
              <path id="Trazado_1043" data-name="Trazado 1043" d="M963.769,5563.584v17.425l-14.192,6.078Z" fill="#7396f8" opacity="0.21"/>
              <path id="Trazado_1044" data-name="Trazado 1044" d="M964.666,5563.584l14.192,23.5-14.192-6.078Z" fill="#7396f8" opacity="0.21"/>
              <path id="Trazado_1045" data-name="Trazado 1045" d="M963.78,5614.365v-11.037l-.033-.023L950,5594.682Zm14.657-19.683-13.749,8.623-.022.023v11.037Zm-14.214,7.871,17.458-10.96-17.458,24.964-17.469-24.964Z" fill="#7396f8"/>
              <path id="Trazado_1046" data-name="Trazado 1046" d="M963.769,5581.01v-17.425l-14.192,23.5Zm0,15.52v-14.546l-14.48,6.2Zm.9-15.52,14.192,6.077-14.192-23.5Zm14.48,7.173-14.48-6.2v14.546Zm-14.934-27.056,16.439,27.222-16.439,9.465-16.429-9.465Z" fill="#7396f8"/>
            </g>
          </g>
          <g id="Grupo_876" data-name="Grupo 876">
            <g id="Grupo_875" data-name="Grupo 875">
              <path id="Trazado_1047" data-name="Trazado 1047" d="M913.459,5640.411a4.537,4.537,0,0,1-3.54-1.4,5.62,5.62,0,0,1-1.27-3.919,6.106,6.106,0,0,1,1.227-3.99,4.046,4.046,0,0,1,3.305-1.5,3.568,3.568,0,0,1,2.9,1.284,5.3,5.3,0,0,1,1.064,3.488v.766h-7.5a4.922,4.922,0,0,0,1,3.277,3.524,3.524,0,0,0,2.812,1.131,8.714,8.714,0,0,0,1.566-.125,9.555,9.555,0,0,0,1.711-.536v.862a7.683,7.683,0,0,1-1.629.522A8.984,8.984,0,0,1,913.459,5640.411Zm-.278-9.964a3.117,3.117,0,0,0-2.414.991,4.676,4.676,0,0,0-1.064,2.86h6.439a4.54,4.54,0,0,0-.786-2.831A2.594,2.594,0,0,0,913.181,5630.447Z" fill="#7396f8"/>
              <path id="Trazado_1048" data-name="Trazado 1048" d="M926.618,5639.568a7.125,7.125,0,0,0,1.571-.153v.766a5.04,5.04,0,0,1-1.59.23,2.588,2.588,0,0,1-2.036-.738,3.419,3.419,0,0,1-.657-2.318v-6.726h-1.542v-.556l1.542-.431.479-2.357h.489v2.52h3.057v.824h-3.057v6.591a3.009,3.009,0,0,0,.422,1.773A1.53,1.53,0,0,0,926.618,5639.568Z" fill="#7396f8"/>
              <path id="Trazado_1049" data-name="Trazado 1049" d="M941.549,5640.219v-6.754a3.289,3.289,0,0,0-.661-2.285,2.666,2.666,0,0,0-2.05-.714,3.551,3.551,0,0,0-2.736.943,4.452,4.452,0,0,0-.867,3.062v5.748h-.948v-14.908h.948v4.743l-.048,1.332h.068a3.49,3.49,0,0,1,1.475-1.361,5.166,5.166,0,0,1,2.213-.422q3.546,0,3.545,3.8v6.812Z" fill="#7396f8"/>
              <path id="Trazado_1050" data-name="Trazado 1050" d="M953.913,5640.411a4.54,4.54,0,0,1-3.541-1.4,5.624,5.624,0,0,1-1.269-3.919,6.111,6.111,0,0,1,1.226-3.99,4.049,4.049,0,0,1,3.306-1.5,3.568,3.568,0,0,1,2.9,1.284,5.3,5.3,0,0,1,1.063,3.488v.766h-7.5a4.927,4.927,0,0,0,1,3.277,3.522,3.522,0,0,0,2.812,1.131,8.713,8.713,0,0,0,1.566-.125,9.555,9.555,0,0,0,1.711-.536v.862a7.682,7.682,0,0,1-1.629.522A8.992,8.992,0,0,1,953.913,5640.411Zm-.278-9.964a3.121,3.121,0,0,0-2.415.991,4.683,4.683,0,0,0-1.063,2.86h6.438a4.54,4.54,0,0,0-.785-2.831A2.593,2.593,0,0,0,953.635,5630.447Z" fill="#7396f8"/>
              <path id="Trazado_1051" data-name="Trazado 1051" d="M968.423,5629.6a8.124,8.124,0,0,1,1.418.135l-.182.91a5.541,5.541,0,0,0-1.351-.163,2.625,2.625,0,0,0-2.185,1.13,4.613,4.613,0,0,0-.853,2.856v5.748h-.948v-10.414h.8l.1,1.878h.067a4.412,4.412,0,0,1,1.37-1.615A3.206,3.206,0,0,1,968.423,5629.6Z" fill="#7396f8"/>
              <path id="Trazado_1052" data-name="Trazado 1052" d="M980.01,5640.411a4.537,4.537,0,0,1-3.54-1.4,5.625,5.625,0,0,1-1.269-3.919,6.105,6.105,0,0,1,1.226-3.99,4.047,4.047,0,0,1,3.3-1.5,3.569,3.569,0,0,1,2.9,1.284,5.3,5.3,0,0,1,1.063,3.488v.766h-7.5a4.933,4.933,0,0,0,1,3.277,3.524,3.524,0,0,0,2.812,1.131,8.725,8.725,0,0,0,1.567-.125,9.574,9.574,0,0,0,1.71-.536v.862a7.665,7.665,0,0,1-1.629.522A8.977,8.977,0,0,1,980.01,5640.411Zm-.278-9.964a3.12,3.12,0,0,0-2.414.991,4.683,4.683,0,0,0-1.064,2.86h6.439a4.539,4.539,0,0,0-.786-2.831A2.591,2.591,0,0,0,979.732,5630.447Z" fill="#7396f8"/>
              <path id="Trazado_1053" data-name="Trazado 1053" d="M991.243,5629.805v6.745a3.293,3.293,0,0,0,.662,2.285,2.666,2.666,0,0,0,2.05.714,3.578,3.578,0,0,0,2.735-.939,4.394,4.394,0,0,0,.877-3.057v-5.748h.939v10.414h-.8l-.172-1.437h-.058a3.914,3.914,0,0,1-3.612,1.629q-3.555,0-3.554-3.8v-6.8Z" fill="#7396f8"/>
              <path id="Trazado_1054" data-name="Trazado 1054" d="M1018.851,5640.219v-6.831a3.4,3.4,0,0,0-.594-2.223,2.259,2.259,0,0,0-1.821-.7,2.972,2.972,0,0,0-2.366.881,4.157,4.157,0,0,0-.767,2.769v6.1h-.967V5633.1q0-2.635-2.415-2.635a2.843,2.843,0,0,0-2.385.953,4.962,4.962,0,0,0-.748,3.052v5.748h-.948v-10.414h.785l.2,1.427h.057a2.985,2.985,0,0,1,1.226-1.2,3.662,3.662,0,0,1,1.754-.427q2.461,0,3.162,1.85h.038a3.544,3.544,0,0,1,1.365-1.371,3.937,3.937,0,0,1,1.95-.479,3.341,3.341,0,0,1,2.558.911,4.128,4.128,0,0,1,.853,2.893v6.812Z" fill="#7396f8"/>
            </g>
          </g>
        </g>
      </g>
      <g id="Grupo_880" data-name="Grupo 880">
        <g id="Grupo_879" data-name="Grupo 879">
          <path id="Trazado_1055" data-name="Trazado 1055" d="M374.731,5614.794h-6.3l-.834-3.935h-8.639l-1.369,3.936h-7.138c.048-.123.084-.225.126-.325l4.6-11.021q2.6-6.221,5.194-12.441a5.476,5.476,0,0,1,.755-1.335,2.752,2.752,0,0,1,2.02-1.067c.208-.015.417-.025.625-.025q2.538,0,5.075,0h.192c.217,0,.22,0,.265.218q.5,2.375,1,4.749.813,3.88,1.624,7.76l1.7,8.138q.54,2.586,1.079,5.174C374.712,5614.665,374.718,5614.712,374.731,5614.794Zm-13.784-9.314h5.594l-2.069-9.645-.05,0Z" fill="#7396f8"/>
          <path id="Trazado_1056" data-name="Trazado 1056" d="M322.877,5588.583q-5.513,13.152-10.987,26.208h-7.157c-.1-.384-.2-.762-.3-1.141q-2.555-9.825-5.109-19.649c-.068-.263-.152-.523-.24-.781a2.753,2.753,0,0,0-1.181-1.469,10.466,10.466,0,0,0-1.738-.815,28.169,28.169,0,0,0-4.946-1.46,1.139,1.139,0,0,1-.133-.048c.02-.133.039-.265.061-.4s.046-.268.074-.426c.112-.007.22-.019.329-.019h9.213c.593,0,1.186,0,1.78,0a3.579,3.579,0,0,1,1.43.273,2.949,2.949,0,0,1,1.807,2.246c.466,2.373.907,4.752,1.36,7.128q.637,3.339,1.277,6.679c.072.377.142.756.214,1.133.015.075.036.149.066.274.052-.123.088-.2.119-.28q3.4-8.591,6.809-17.18a1.025,1.025,0,0,0,.043-.112.191.191,0,0,1,.227-.163c.039,0,.08,0,.12,0h6.862Z" fill="#7396f8"/>
          <path id="Trazado_1057" data-name="Trazado 1057" d="M352.08,5589.343l-1.2,5.546c-.119-.05-.206-.085-.292-.123a13.766,13.766,0,0,0-3.738-1.03,9.662,9.662,0,0,0-2.351-.056,5.229,5.229,0,0,0-1.884.53,2.666,2.666,0,0,0-.875.7,1.453,1.453,0,0,0-.022,1.9,3.353,3.353,0,0,0,.707.679c.485.337.995.644,1.51.936.87.494,1.762.951,2.629,1.452a10.842,10.842,0,0,1,2.538,1.968,5.939,5.939,0,0,1,1.657,3.426,7.9,7.9,0,0,1-2.09,6.558,9.728,9.728,0,0,1-3.627,2.382,14.685,14.685,0,0,1-3.509.878,17.916,17.916,0,0,1-3.119.129,21.158,21.158,0,0,1-6.636-1.337c-.082-.031-.161-.067-.266-.111l1.226-5.73c.074.03.133.048.186.076a14.543,14.543,0,0,0,4.714,1.5,11.829,11.829,0,0,0,2.423.1,5.652,5.652,0,0,0,2-.473,3.282,3.282,0,0,0,1.145-.818,1.8,1.8,0,0,0,.02-2.489,1.318,1.318,0,0,0-.164-.176,10.593,10.593,0,0,0-1-.781c-.66-.409-1.342-.783-2.023-1.157a25.082,25.082,0,0,1-2.736-1.649,8.3,8.3,0,0,1-1.953-1.907,5.55,5.55,0,0,1-1.039-3.22,7.743,7.743,0,0,1,3.725-6.862,11.951,11.951,0,0,1,4.141-1.676,16.707,16.707,0,0,1,4.782-.3,18.282,18.282,0,0,1,4.764.972C351.835,5589.235,351.949,5589.289,352.08,5589.343Z" fill="#7396f8"/>
          <path id="Trazado_1058" data-name="Trazado 1058" d="M325.7,5588.584c2.268,0,4.515,0,6.794,0l-5.562,26.207H320.12Z" fill="#7396f8"/>
        </g>
      </g>
      <g id="Grupo_891" data-name="Grupo 891">
        <g id="Grupo_890" data-name="Grupo 890">
          <g id="Grupo_884" data-name="Grupo 884">
            <g id="Grupo_883" data-name="Grupo 883">
              <g id="Grupo_882" data-name="Grupo 882">
                <g id="Grupo_881" data-name="Grupo 881">
                  <path id="Trazado_1059" data-name="Trazado 1059" d="M716.945,5624.9a5.291,5.291,0,0,1,2.337.479,4.627,4.627,0,0,1,1.633,1.295,5.384,5.384,0,0,1,.957,1.914,8.667,8.667,0,0,1,.31,2.366,9.636,9.636,0,0,1-2.675,6.687,9.176,9.176,0,0,1-2.928,2.027,8.954,8.954,0,0,1-3.661.747c-.169,0-.464-.005-.887-.015a12.657,12.657,0,0,1-1.45-.126,17.315,17.315,0,0,1-1.732-.338,8.764,8.764,0,0,1-1.731-.619l4.871-20.472,4.364-.675-1.746,7.264a6.792,6.792,0,0,1,1.127-.394A4.96,4.96,0,0,1,716.945,5624.9Zm-3.661,12.051a3.79,3.79,0,0,0,1.858-.479,4.892,4.892,0,0,0,1.507-1.281,6.429,6.429,0,0,0,1-1.816,6.2,6.2,0,0,0,.366-2.112,4.154,4.154,0,0,0-.451-2.111,1.767,1.767,0,0,0-1.661-.761,5.045,5.045,0,0,0-1.028.141,2.54,2.54,0,0,0-1.141.591l-1.858,7.715c.113.019.212.038.3.057a2.173,2.173,0,0,0,.267.042,3.369,3.369,0,0,0,.338.014Z" fill="#7396f8"/>
                  <path id="Trazado_1060" data-name="Trazado 1060" d="M728.518,5640.017h-4.167l3.519-14.812h4.2Zm2.027-16.614a2.581,2.581,0,0,1-1.577-.521,1.849,1.849,0,0,1-.7-1.591,2.622,2.622,0,0,1,.24-1.112,2.929,2.929,0,0,1,.633-.9,3.04,3.04,0,0,1,.916-.6,2.755,2.755,0,0,1,1.112-.225,2.588,2.588,0,0,1,1.576.52,1.85,1.85,0,0,1,.7,1.591,2.642,2.642,0,0,1-.24,1.113,2.956,2.956,0,0,1-.633.9,3.035,3.035,0,0,1-.916.606A2.775,2.775,0,0,1,730.545,5623.4Z" fill="#7396f8"/>
                  <path id="Trazado_1061" data-name="Trazado 1061" d="M737.387,5621.516l4.365-.675-1.07,4.364h4.674l-.844,3.436h-4.647l-1.239,5.181a6.9,6.9,0,0,0-.211,1.21,1.991,1.991,0,0,0,.141.972,1.305,1.305,0,0,0,.633.634,2.818,2.818,0,0,0,1.239.225,6.706,6.706,0,0,0,1.31-.126,9.75,9.75,0,0,0,1.281-.353l.31,3.21a15.025,15.025,0,0,1-1.831.535,10.562,10.562,0,0,1-2.337.225,6.422,6.422,0,0,1-3.012-.577,3.325,3.325,0,0,1-1.521-1.577,4.976,4.976,0,0,1-.394-2.294,14.631,14.631,0,0,1,.394-2.732Z" fill="#7396f8"/>
                  <path id="Trazado_1062" data-name="Trazado 1062" d="M746.538,5634.1a10.412,10.412,0,0,1,.619-3.6,8.882,8.882,0,0,1,1.774-2.956,8.32,8.32,0,0,1,2.8-2,8.959,8.959,0,0,1,3.675-.732,9.765,9.765,0,0,1,2.267.24,8.95,8.95,0,0,1,1.816.633l-1.436,3.266q-.564-.224-1.169-.408a5.162,5.162,0,0,0-1.478-.183,4.134,4.134,0,0,0-3.323,1.422,5.781,5.781,0,0,0-1.211,3.871,3.976,3.976,0,0,0,.62,2.324,2.6,2.6,0,0,0,2.281.887,7.258,7.258,0,0,0,1.576-.169,7.716,7.716,0,0,0,1.352-.422l.31,3.35a14.253,14.253,0,0,1-1.732.549,9.432,9.432,0,0,1-2.295.24,7.645,7.645,0,0,1-2.956-.507,5.61,5.61,0,0,1-2-1.365,5.176,5.176,0,0,1-1.14-2.014A8.246,8.246,0,0,1,746.538,5634.1Z" fill="#7396f8"/>
                  <path id="Trazado_1063" data-name="Trazado 1063" d="M766.249,5640.411a6.779,6.779,0,0,1-2.59-.451,4.785,4.785,0,0,1-1.817-1.267,5.478,5.478,0,0,1-1.084-1.929,7.845,7.845,0,0,1-.366-2.464,10.884,10.884,0,0,1,.549-3.379,9.694,9.694,0,0,1,1.619-3.041,8.653,8.653,0,0,1,2.619-2.21,7.2,7.2,0,0,1,3.548-.859,6.814,6.814,0,0,1,2.577.451,4.781,4.781,0,0,1,1.83,1.267,5.48,5.48,0,0,1,1.084,1.929,7.844,7.844,0,0,1,.366,2.463,11.154,11.154,0,0,1-.535,3.379,9.774,9.774,0,0,1-1.577,3.041,8.267,8.267,0,0,1-2.6,2.211A7.393,7.393,0,0,1,766.249,5640.411Zm2.084-12.052a2.627,2.627,0,0,0-1.633.535,4.573,4.573,0,0,0-1.183,1.352,6.649,6.649,0,0,0-.718,1.787,7.7,7.7,0,0,0-.239,1.845,4.449,4.449,0,0,0,.45,2.211,1.727,1.727,0,0,0,1.633.774,2.62,2.62,0,0,0,1.634-.536,4.579,4.579,0,0,0,1.182-1.35,6.675,6.675,0,0,0,.718-1.789,7.746,7.746,0,0,0,.239-1.845,4.449,4.449,0,0,0-.45-2.21A1.731,1.731,0,0,0,768.333,5628.359Z" fill="#7396f8"/>
                  <path id="Trazado_1064" data-name="Trazado 1064" d="M780.919,5640.017h-4.167l3.52-14.812h4.2Zm2.028-16.614a2.581,2.581,0,0,1-1.577-.521,1.849,1.849,0,0,1-.7-1.591,2.621,2.621,0,0,1,.239-1.112,2.949,2.949,0,0,1,.634-.9,3.048,3.048,0,0,1,.915-.6,2.758,2.758,0,0,1,1.112-.225,2.589,2.589,0,0,1,1.577.52,1.852,1.852,0,0,1,.7,1.591,2.641,2.641,0,0,1-.239,1.113,2.942,2.942,0,0,1-.634.9,3.043,3.043,0,0,1-.915.606A2.778,2.778,0,0,1,782.947,5623.4Z" fill="#7396f8"/>
                  <path id="Trazado_1065" data-name="Trazado 1065" d="M789.169,5625.881c.32-.094.671-.2,1.056-.323s.817-.235,1.3-.339,1.013-.187,1.6-.253a18.349,18.349,0,0,1,2.013-.1q3.323,0,4.562,1.914t.422,5.238l-1.915,8h-4.2l1.858-7.829q.17-.73.268-1.421a3.5,3.5,0,0,0-.014-1.211,1.433,1.433,0,0,0-.521-.845,2.01,2.01,0,0,0-1.253-.324,8.409,8.409,0,0,0-1.662.169l-2.731,11.461h-4.2Z" fill="#7396f8"/>
                </g>
              </g>
            </g>
          </g>
          <g id="Grupo_889" data-name="Grupo 889">
            <g id="Grupo_886" data-name="Grupo 886">
              <g id="Grupo_885" data-name="Grupo 885">
                <path id="Trazado_1066" data-name="Trazado 1066" d="M752.229,5561.133a25.425,25.425,0,1,1-25.425,25.424A25.421,25.421,0,0,1,752.229,5561.133Zm24.324,25.424a24.324,24.324,0,1,0-24.324,24.324A24.345,24.345,0,0,0,776.553,5586.557Z" fill="#7396f8"/>
                <circle id="Elipse_96" data-name="Elipse 96" cx="24.324" cy="24.324" r="24.324" transform="translate(727.905 5562.233)" fill="#7396f8" opacity="0.21"/>
              </g>
            </g>
            <g id="Grupo_888" data-name="Grupo 888">
              <g id="Grupo_887" data-name="Grupo 887">
                <path id="Trazado_1067" data-name="Trazado 1067" d="M760.825,5591.489a5,5,0,0,0-2.171-2.323,4.472,4.472,0,0,0,2.3-1.148,4.426,4.426,0,0,0,1.293-2.2,4.3,4.3,0,0,0-.024-2.3,4.8,4.8,0,0,0-2.763-3.14,16.573,16.573,0,0,0-2.067-.693l.892-3.559-2.794-.7-.888,3.541-1.817-.455.888-3.542-2.758-.692-.889,3.542-4.535-1.138-.77,3.07,1.828.458a1.314,1.314,0,0,1,.954,1.594l-2.446,9.753a1.313,1.313,0,0,1-1.594.954l-1.828-.458-.77,3.069,4.536,1.138-.838,3.341,2.758.692.838-3.341,1.817.456-.838,3.34,2.794.7.846-3.37c1.084.248,1.865.411,2.264.467a5.426,5.426,0,0,0,2.717-.248,5.08,5.08,0,0,0,2.075-1.5,5.665,5.665,0,0,0,1.2-2.3A4.577,4.577,0,0,0,760.825,5591.489Zm-6.862-9.422a26.543,26.543,0,0,1,2.614.722,2.195,2.195,0,0,1,1.242,1,2.081,2.081,0,0,1,.122,1.5,2,2,0,0,1-.908,1.3,2.526,2.526,0,0,1-1.669.284,18.365,18.365,0,0,1-2.169-.476l-2.165-.543,1.07-4.265Zm1.8,12.584a2.376,2.376,0,0,1-1.537.4,9.249,9.249,0,0,1-2.031-.39l-3.171-.8,1.238-4.932,2.731.685a8.355,8.355,0,0,1,2.684.953,2.345,2.345,0,0,1,.95,1.136,2.465,2.465,0,0,1,.052,1.512A2.334,2.334,0,0,1,755.762,5594.651Z" fill="#7396f8"/>
              </g>
            </g>
          </g>
        </g>
      </g>
      <g id="Grupo_893" data-name="Grupo 893">
        <g id="_Group_" data-name=" Group ">
          <g id="Grupo_892" data-name="Grupo 892">
            <path id="Trazado_1068" data-name="Trazado 1068" d="M546.939,5574.363a23.047,23.047,0,0,1-3.6,31.385,22.993,22.993,0,0,1,0-35.137v-.009A21.8,21.8,0,0,1,546.939,5574.363Z" fill="#7396f8"/>
            <path id="Trazado_1069" data-name="Trazado 1069" d="M589.073,5640.121l-.15-.171h-.043v.171h-.107v-.471H589a.2.2,0,0,1,.139.032.168.168,0,0,1,.054.118.116.116,0,0,1-.043.1.207.207,0,0,1-.107.054l.15.171Zm-.193-.257H589a.065.065,0,0,0,.064,0,.08.08,0,0,0,.022-.054.082.082,0,0,0-.022-.043.07.07,0,0,0-.064,0l-.118-.032Z" fill="#7396f8"/>
            <path id="Trazado_1070" data-name="Trazado 1070" d="M588.676,5640.175a.351.351,0,0,0,.129.086.4.4,0,0,0,.161.032h.011a.389.389,0,0,0,.15-.032.314.314,0,0,0,.118-.086.394.394,0,0,0,0-.568.3.3,0,0,0-.118-.086.418.418,0,0,0-.322,0,.411.411,0,0,0-.215.536A.482.482,0,0,0,588.676,5640.175Zm-.2-.086a.506.506,0,0,1,0-.4.538.538,0,0,1,.278-.278.5.5,0,0,1,.215-.043.426.426,0,0,1,.2.043.558.558,0,0,1,.171.107.584.584,0,0,1,.108.171.515.515,0,0,1,0,.4.591.591,0,0,1-.108.172.558.558,0,0,1-.171.107.443.443,0,0,1-.2.043A.54.54,0,0,1,588.473,5640.089Z" fill="#7396f8"/>
            <path id="Trazado_1071" data-name="Trazado 1071" d="M578.691,5572.618a25.176,25.176,0,0,1-35.349,35.35,25.176,25.176,0,0,0,0-39.586A25.177,25.177,0,0,1,578.691,5572.618Z" fill="#7396f8"/>
            <path id="Trazado_1072" data-name="Trazado 1072" d="M583.271,5602.777v.987h-.182v-.74l-.279.644h-.182l-.279-.644v.74h-.139v-.987h.257l.29.708.29-.708Z" fill="#7396f8"/>
            <path id="Trazado_1073" data-name="Trazado 1073" d="M581.984,5602.788v.161h-.332v.815h-.161v-.8h-.332v-.171Z" fill="#7396f8"/>
            <path id="Trazado_1074" data-name="Trazado 1074" d="M580.268,5636.035a2.476,2.476,0,1,0,2.488-2.617A2.456,2.456,0,0,0,580.268,5636.035Zm-1.845,0a4.1,4.1,0,0,1,4.1-4.29,3.089,3.089,0,0,1,2.585,1.191v-4.269h1.78v11.454H585.1v-1a3.07,3.07,0,0,1-2.585,1.2A4.1,4.1,0,0,1,578.423,5636.035Z" fill="#7396f8"/>
            <path id="Trazado_1075" data-name="Trazado 1075" d="M576.246,5633.44c-1.169,0-1.748.74-1.748,2.1v4.579h-1.781v-8.172h1.77v1a2.376,2.376,0,0,1,2.156-1.2,3.651,3.651,0,0,1,1.265.225l-.547,1.674A2.843,2.843,0,0,0,576.246,5633.44Z" fill="#7396f8"/>
            <path id="Trazado_1076" data-name="Trazado 1076" d="M568.706,5636.035a2.476,2.476,0,1,0-2.466,2.617A2.452,2.452,0,0,0,568.706,5636.035Zm1.673,0v4.076H568.6v-.987a3.091,3.091,0,0,1-2.574,1.2,4.3,4.3,0,0,1,0-8.591,3.094,3.094,0,0,1,2.574,1.2v-1h1.78Z" fill="#7396f8"/>
            <path id="Trazado_1077" data-name="Trazado 1077" d="M558.035,5638.652a3.574,3.574,0,0,0,2.134-.74l.858,1.437a4.274,4.274,0,0,1-2.949.987,4.3,4.3,0,1,1,0-8.6,4.332,4.332,0,0,1,2.949.976l-.858,1.438a3.633,3.633,0,0,0-2.134-.73,2.622,2.622,0,0,0,0,5.234Z" fill="#7396f8"/>
            <path id="Trazado_1078" data-name="Trazado 1078" d="M553.187,5631.97l-.547,1.674a2.789,2.789,0,0,0-1.1-.2c-1.17,0-1.749.74-1.749,2.1v4.579h-1.78v-8.172h1.759v1a2.4,2.4,0,0,1,2.156-1.2A3.61,3.61,0,0,1,553.187,5631.97Z" fill="#7396f8"/>
            <path id="Trazado_1079" data-name="Trazado 1079" d="M544.328,5635.317a2.033,2.033,0,0,0-2.07-1.985,2.1,2.1,0,0,0-2.166,1.985Zm-2.048-3.572c2.295,0,3.882,1.738,3.882,4.29,0,.236-.01.461-.032.687h-6.07a2.264,2.264,0,0,0,2.445,1.994,3.961,3.961,0,0,0,2.392-.847l.868,1.319a5.025,5.025,0,0,1-3.356,1.148,4.3,4.3,0,0,1-.129-8.591Z" fill="#7396f8"/>
            <path id="Trazado_1080" data-name="Trazado 1080" d="M543.342,5568.392a25.177,25.177,0,0,0,0,39.576,25.167,25.167,0,1,1,0-39.576Z" fill="#7396f8"/>
            <path id="Trazado_1081" data-name="Trazado 1081" d="M533.839,5637.269c0,.825.29,1.372,1.18,1.372a3.4,3.4,0,0,0,1.577-.461l.514,1.523a4.3,4.3,0,0,1-2.23.633c-2.1,0-2.832-1.137-2.832-3.035v-3.722h-1.662v-1.63h1.662v-2.478h1.791v2.478h2.907v1.63h-2.907Z" fill="#7396f8"/>
            <path id="Trazado_1082" data-name="Trazado 1082" d="M525.463,5640.336a5.98,5.98,0,0,1-3.55-1.062l.815-1.383a4.361,4.361,0,0,0,2.735.847c1.212,0,1.855-.365,1.855-1,0-.461-.461-.707-1.437-.847l-.836-.118c-1.824-.257-2.821-1.083-2.821-2.413,0-1.619,1.351-2.617,3.421-2.617a6.09,6.09,0,0,1,3.336.858l-.762,1.437a5.25,5.25,0,0,0-2.552-.7c-.976,0-1.555.354-1.555.955,0,.547.611.7,1.383.8l.837.118c1.78.257,2.853,1.008,2.853,2.445C529.185,5639.221,527.822,5640.336,525.463,5640.336Z" fill="#7396f8"/>
            <path id="Trazado_1083" data-name="Trazado 1083" d="M518.406,5632.936v-1h1.78v4.1l.011,4.086h-1.78v-.986a3.1,3.1,0,0,1-2.585,1.2,4.3,4.3,0,0,1,0-8.591A3.082,3.082,0,0,1,518.406,5632.936Zm.107,3.1a2.476,2.476,0,1,0-2.467,2.617A2.459,2.459,0,0,0,518.513,5636.035Z" fill="#7396f8"/>
            <path id="Trazado_1084" data-name="Trazado 1084" d="M501.364,5631.756a2.968,2.968,0,0,1,2.7,1.448,3.181,3.181,0,0,1,2.874-1.448,3.037,3.037,0,0,1,3.217,3.25v5.115h-1.8v-4.547c0-1.384-.612-2.156-1.792-2.156a1.932,1.932,0,0,0-2.005,2.177v4.526h-1.78v-4.547c0-1.384-.569-2.156-1.781-2.156a1.912,1.912,0,0,0-2.005,2.177v4.526H497.2v-8.183h1.78v1.03A2.658,2.658,0,0,1,501.364,5631.756Z" fill="#7396f8"/>
          </g>
        </g>
      </g>
      <g id="Grupo_896" data-name="Grupo 896">
        <g id="Grupo_894" data-name="Grupo 894">
          <path id="Trazado_1085" data-name="Trazado 1085" d="M1367.825,5585.677c.045-.19.091-.38.143-.57-.113.457-.2.816-.246,1.051.007-.036.014-.073.022-.108.013-.061.025-.124.039-.187S1367.81,5585.74,1367.825,5585.677Z" fill="#7396f8"/>
          <path id="Trazado_1086" data-name="Trazado 1086" d="M1409.015,5592.244c-1.479,4.248-6,5.455-11.185,9-4.132,2.827-7.365,9-13.094,9a15.208,15.208,0,0,1-11.352-4.759,28.041,28.041,0,0,0,10.762-.593,22.789,22.789,0,0,0,10.27-5.055l0,0c7.783-4.846,11.877-11.143,13.5-16.368A12.883,12.883,0,0,1,1409.015,5592.244Z" fill="#7396f8" opacity="0.66"/>
          <path id="Trazado_1087" data-name="Trazado 1087" d="M1367.656,5586.477a16.854,16.854,0,0,0-.1,5.767c.927,5.832,2.98,10.247,5.833,13.245-8.424-1.341-11.885-7.187-12.379-9.395-.869-3.878,1.534-7.093,3.334-12.255,1.414-4.058.733-9.522,4.4-12.705a15.591,15.591,0,0,1,9.212-3.9c-6.134,4.4-9.065,14.192-9.974,17.842l-.01.036c-.052.19-.1.38-.143.57-.015.062-.029.123-.042.186-.037.165-.073.33-.1.5a.291.291,0,0,0-.007.036.028.028,0,0,0,0,.015c0,.009,0,.019-.005.027l0,.006v0l0,.007Z" fill="#7396f8" opacity="0.35"/>
          <path id="Trazado_1088" data-name="Trazado 1088" d="M1392.111,5571.623l-.062-.041a19.265,19.265,0,0,0-24.071,13.489l-.01.036c-.018.071-.034.14-.05.206-.01.041-.02.079-.029.119-.067.278-.119.509-.157.681,0,.015-.007.03-.01.045s-.012.053-.016.077c-.011.049-.019.09-.027.124,0,.013,0,.025-.007.036l0,.015c0,.009,0,.019-.005.027l0,.006v0l0,.007,0,.023a16.854,16.854,0,0,0-.1,5.767c.927,5.832,2.98,10.247,5.833,13.245a28.041,28.041,0,0,0,10.762-.593,22.789,22.789,0,0,0,10.27-5.055l0,0C1403.463,5591.717,1401.153,5577.52,1392.111,5571.623Zm-7.443,28.8a12.616,12.616,0,1,1,12.617-12.616A12.615,12.615,0,0,1,1384.668,5600.427Z" fill="#7396f8"/>
          <path id="Trazado_1089" data-name="Trazado 1089" d="M1367.825,5585.677c.045-.19.091-.38.143-.57-.113.457-.2.816-.246,1.051-.006.027-.012.053-.016.077.011-.061.025-.124.038-.185s.025-.124.039-.187S1367.81,5585.74,1367.825,5585.677Z" fill="#7396f8"/>
          <path id="Trazado_1090" data-name="Trazado 1090" d="M1392.049,5571.582a19.265,19.265,0,0,0-24.071,13.489c.909-3.65,3.84-13.444,9.974-17.842C1382.134,5566.923,1386.886,5568.23,1392.049,5571.582Z" fill="#7396f8" opacity="0.43"/>
          <path id="Trazado_1091" data-name="Trazado 1091" d="M1407.919,5583.471c-1.9-4.1-6.035-8.582-14.317-11.414-.522-.179-1.041-.337-1.553-.475-5.163-3.352-9.915-4.659-14.1-4.353a11.1,11.1,0,0,1,6.716-2.2c4.106.043,6.686,3.643,9.821,4.5,6.653,1.822,11.048,2.046,13.23,4.774C1408.941,5575.835,1409.212,5579.313,1407.919,5583.471Z" fill="#7396f8" opacity="0.26"/>
          <path id="Trazado_1092" data-name="Trazado 1092" d="M1407.919,5583.471c-1.623,5.225-5.717,11.522-13.5,16.368,9.044-8.122,6.734-22.319-2.308-28.216l-.062-.041c.512.138,1.031.3,1.553.475C1401.884,5574.889,1406.014,5579.373,1407.919,5583.471Z" fill="#7396f8" opacity="0.43"/>
          <path id="Trazado_1093" data-name="Trazado 1093" d="M1367.66,5586.454l0-.011,0-.006" fill="#7396f8"/>
        </g>
        <g id="Grupo_895" data-name="Grupo 895">
          <path id="Trazado_1094" data-name="Trazado 1094" d="M1372.369,5625.819a6.481,6.481,0,0,1-2.139,5.236,9.151,9.151,0,0,1-6.085,1.813h-1.929v7.543h-4.5v-21.206h6.774a9.008,9.008,0,0,1,5.867,1.661A6.055,6.055,0,0,1,1372.369,5625.819Zm-10.153,3.365h1.479a4.928,4.928,0,0,0,3.1-.819,2.868,2.868,0,0,0,1.03-2.386,2.94,2.94,0,0,0-.863-2.335,4.042,4.042,0,0,0-2.7-.755h-2.045Z" fill="#7396f8"/>
          <path id="Trazado_1095" data-name="Trazado 1095" d="M1388.582,5640.411l-1.538-5.048h-7.731l-1.537,5.048h-4.845l7.485-21.293h5.5l7.513,21.293Zm-2.611-8.819q-2.133-6.861-2.4-7.76t-.384-1.421q-.479,1.855-2.741,9.181Z" fill="#7396f8"/>
          <path id="Trazado_1096" data-name="Trazado 1096" d="M1412.468,5640.411h-5.135l-4.932-8.021-4.931,8.021h-4.816l7.035-10.937-6.585-10.269h4.96l4.569,7.63,4.482-7.63h4.845l-6.658,10.516Z" fill="#7396f8"/>
        </g>
      </g>
      <g id="Grupo_900" data-name="Grupo 900">
        <g id="Grupo_899" data-name="Grupo 899">
          <g id="Grupo_897" data-name="Grupo 897">
            <circle id="Elipse_97" data-name="Elipse 97" cx="24.608" cy="24.608" r="24.608" transform="translate(1150.048 5562.953)" fill="#7396f8" opacity="0.21"/>
            <path id="Trazado_1097" data-name="Trazado 1097" d="M1177.533,5583.686v-3.262h8.948v-5.753h-23.649v5.753h8.948v3.262c-7.039.33-12.357,1.842-12.357,3.662s5.318,3.332,12.357,3.662v12h5.753v-12c7.039-.33,12.357-1.842,12.357-3.662S1184.572,5584.016,1177.533,5583.686Zm0,5.522c-.925.036-1.888.058-2.877.058s-1.951-.022-2.876-.058c-5.855-.247-10.227-1.225-10.227-2.393s4.372-2.145,10.227-2.392v4.167c.91.051,1.875.079,2.876.079s1.967-.028,2.877-.079v-4.167c5.855.247,10.226,1.225,10.226,2.392S1183.388,5588.961,1177.533,5589.208Z" fill="#7396f8"/>
          </g>
          <g id="Grupo_898" data-name="Grupo 898">
            <path id="Trazado_1098" data-name="Trazado 1098" d="M1134.7,5634.71v-5.939H1132.7v-3.25l2.252-.167.509-3.9h3.6v3.9h3.524v3.417h-3.524v5.887c0,1.666.756,2.335,1.9,2.335a4.349,4.349,0,0,0,1.4-.279l.687,3.164a10.379,10.379,0,0,1-3.267.533C1136.147,5640.411,1134.7,5638.117,1134.7,5634.71Z" fill="#7396f8"/>
            <path id="Trazado_1099" data-name="Trazado 1099" d="M1144.7,5632.71c0-4.77,3.4-7.712,6.935-7.712,4.188,0,6.262,3.044,6.262,7.056a9.8,9.8,0,0,1-.182,1.925h-8.8a3.547,3.547,0,0,0,3.814,3.112,6.137,6.137,0,0,0,3.179-.962l1.44,2.626a9.565,9.565,0,0,1-5.216,1.656C1147.944,5640.411,1144.7,5637.577,1144.7,5632.71Zm9.476-1.611c0-1.617-.7-2.781-2.443-2.781a2.918,2.918,0,0,0-2.861,2.781Z" fill="#7396f8"/>
            <path id="Trazado_1100" data-name="Trazado 1100" d="M1161.816,5634.71v-5.939h-2.008v-3.25l2.253-.167.509-3.9h3.6v3.9h3.524v3.417h-3.524v5.887c0,1.666.756,2.335,1.9,2.335a4.354,4.354,0,0,0,1.4-.279l.687,3.164a10.381,10.381,0,0,1-3.268.533C1163.26,5640.411,1161.816,5638.117,1161.816,5634.71Z" fill="#7396f8"/>
            <path id="Trazado_1101" data-name="Trazado 1101" d="M1173.2,5619.295h4.356v5.072l-.195,2.663A6.63,6.63,0,0,1,1181.9,5625c3.2,0,4.56,2.256,4.56,5.93v9.128H1182.1v-8.57c0-2.115-.568-2.777-1.826-2.777a3.735,3.735,0,0,0-2.722,1.428v9.919H1173.2Z" fill="#7396f8"/>
            <path id="Trazado_1102" data-name="Trazado 1102" d="M1189.886,5632.71c0-4.77,3.4-7.712,6.935-7.712,4.187,0,6.261,3.044,6.261,7.056a9.817,9.817,0,0,1-.181,1.925h-8.8a3.547,3.547,0,0,0,3.813,3.112,6.134,6.134,0,0,0,3.179-.962l1.441,2.626a9.568,9.568,0,0,1-5.216,1.656C1193.132,5640.411,1189.886,5637.577,1189.886,5632.71Zm9.475-1.611c0-1.617-.7-2.781-2.443-2.781a2.918,2.918,0,0,0-2.861,2.781Z" fill="#7396f8"/>
            <path id="Trazado_1103" data-name="Trazado 1103" d="M1206.711,5625.354h3.554l.314,2.569h.108a4.97,4.97,0,0,1,4.176-2.925,4.087,4.087,0,0,1,1.754.3l-.725,3.76a5.973,5.973,0,0,0-1.587-.237c-1.108,0-2.454.714-3.238,2.719v8.52h-4.356Z" fill="#7396f8"/>
          </g>
        </g>
        <circle id="Elipse_98" data-name="Elipse 98" cx="24.608" cy="24.608" r="24.608" transform="translate(1150.048 5562.953)" fill="none" stroke="#7396f8" stroke-miterlimit="10" stroke-width="1"/>
      </g>
      <g id="Grupo_906" data-name="Grupo 906">
        <g id="Grupo_901" data-name="Grupo 901">
          <path id="Trazado_1104" data-name="Trazado 1104" d="M1575.476,5633.243a4.312,4.312,0,0,1-1.108,3.2,4.44,4.44,0,0,1-3.235,1.1,4.622,4.622,0,0,1-3.348-1.09,4.215,4.215,0,0,1-1.108-3.178v-12.5h-3.139v12.351a7.229,7.229,0,0,0,1.965,5.336,7.474,7.474,0,0,0,5.492,1.957,7.79,7.79,0,0,0,5.564-1.937,6.986,6.986,0,0,0,2.056-5.306v-12.4h-3.139Z" fill="#7396f8"/>
          <path id="Trazado_1105" data-name="Trazado 1105" d="M1587.79,5629.012a14.569,14.569,0,0,1-2.468-1.082,2.855,2.855,0,0,1-1.016-.944,2.629,2.629,0,0,1-.285-1.315,1.91,1.91,0,0,1,.76-1.628,3.829,3.829,0,0,1,2.35-.627,10.966,10.966,0,0,1,4.235.916l.486.2,1-2.8-.428-.186a12.99,12.99,0,0,0-5.244-1.049,7.155,7.155,0,0,0-4.537,1.365,4.583,4.583,0,0,0-1.788,3.777,5.308,5.308,0,0,0,1.225,3.613,9.233,9.233,0,0,0,3.875,2.317,17.7,17.7,0,0,1,2.655,1.133,3.115,3.115,0,0,1,1.109.958,2.434,2.434,0,0,1,.307,1.3,2.168,2.168,0,0,1-.882,1.857,4.888,4.888,0,0,1-2.92.712,12.581,12.581,0,0,1-2.541-.266,12.747,12.747,0,0,1-2.372-.726l-.695-.293v3.131l.284.136a12.5,12.5,0,0,0,5.248.893,8.142,8.142,0,0,0,5.086-1.464,5,5,0,0,0,1.956-4.182,4.861,4.861,0,0,0-1.22-3.408A10.491,10.491,0,0,0,1587.79,5629.012Z" fill="#7396f8"/>
          <path id="Trazado_1106" data-name="Trazado 1106" d="M1601.419,5620.767h-6.136v19.392h5.6c3.215,0,5.726-.858,7.463-2.551s2.623-4.159,2.623-7.321a8.751,8.751,0,0,0-9.545-9.52Zm6.281,9.595a7,7,0,0,1-1.775,5.21,7.488,7.488,0,0,1-5.4,1.737h-2.1v-13.692h2.607a6.8,6.8,0,0,1,5.01,1.675A6.967,6.967,0,0,1,1607.7,5630.362Z" fill="#7396f8"/>
          <path id="Trazado_1107" data-name="Trazado 1107" d="M1617.3,5635.716a7.863,7.863,0,0,1-1.572-5.253,7.693,7.693,0,0,1,1.633-5.2,5.488,5.488,0,0,1,4.409-1.847,9.3,9.3,0,0,1,3.964.932l.444.209,1.345-2.727-.452-.22a11.943,11.943,0,0,0-5.276-1.107,9.83,9.83,0,0,0-4.974,1.224,8.166,8.166,0,0,0-3.267,3.506,11.613,11.613,0,0,0-1.115,5.205c0,3.141.785,5.61,2.335,7.341a8.5,8.5,0,0,0,6.644,2.632,14.05,14.05,0,0,0,4.893-.75l.324-.121v-2.88l-.635.178C1621.882,5637.992,1618.99,5637.684,1617.3,5635.716Z" fill="#7396f8"/>
        </g>
        <g id="Grupo_905" data-name="Grupo 905">
          <g id="Grupo_904" data-name="Grupo 904">
            <circle id="Elipse_99" data-name="Elipse 99" cx="24.368" cy="24.368" r="24.368" transform="translate(1571.162 5562.123)" fill="#7396f8" opacity="0.21"/>
            <g id="Grupo_902" data-name="Grupo 902">
              <path id="Trazado_1108" data-name="Trazado 1108" d="M1600.075,5592.359a5.546,5.546,0,0,1-3.088,1.477v1.177a1.264,1.264,0,0,1-2.128.9,1.2,1.2,0,0,1-.351-.9V5593.9a9.155,9.155,0,0,1-2.2-.475,7.332,7.332,0,0,1-1.869-.951,1.229,1.229,0,0,1-.465-.465,1.521,1.521,0,0,1,.186-1.559.931.931,0,0,1,.733-.393,2.062,2.062,0,0,1,.971.331,8.407,8.407,0,0,0,1.808.816,6.167,6.167,0,0,0,1.787.258,3.284,3.284,0,0,0,1.9-.465,1.512,1.512,0,0,0,.661-1.312,1.073,1.073,0,0,0-.382-.847,2.765,2.765,0,0,0-.94-.516q-.558-.186-1.612-.476a21.526,21.526,0,0,1-2.52-.785,4.245,4.245,0,0,1-1.705-1.239,3.416,3.416,0,0,1-.712-2.273,3.931,3.931,0,0,1,1.188-2.871,5.576,5.576,0,0,1,3.109-1.529v-1.178a1.2,1.2,0,0,1,.351-.9,1.235,1.235,0,0,1,2.128.9v1.137a7.744,7.744,0,0,1,3.491,1.4,1.257,1.257,0,0,1,.444.476,1.5,1.5,0,0,1-.185,1.549.936.936,0,0,1-.734.393,1.4,1.4,0,0,1-.423-.062,2.991,2.991,0,0,1-.548-.269,9.6,9.6,0,0,0-1.518-.806,4.436,4.436,0,0,0-1.643-.268,2.939,2.939,0,0,0-1.787.5,1.56,1.56,0,0,0-.671,1.322,1.22,1.22,0,0,0,.392.94,2.781,2.781,0,0,0,.992.568q.6.207,1.673.475a19.323,19.323,0,0,1,2.469.754,4.079,4.079,0,0,1,1.653,1.219,3.411,3.411,0,0,1,.692,2.242A3.832,3.832,0,0,1,1600.075,5592.359Z" fill="#7396f8"/>
            </g>
            <g id="Grupo_903" data-name="Grupo 903">
              <path id="Trazado_1109" data-name="Trazado 1109" d="M1614.2,5586.491a18.68,18.68,0,0,0-13.06-17.813.812.812,0,0,0-1.06.77v1.417a.8.8,0,0,0,.537.761,15.712,15.712,0,0,1,0,29.73.8.8,0,0,0-.537.761v1.418a.812.812,0,0,0,1.06.77A18.682,18.682,0,0,0,1614.2,5586.491Z" fill="#7396f8"/>
              <path id="Trazado_1110" data-name="Trazado 1110" d="M1579.816,5586.491a15.74,15.74,0,0,1,10.622-14.865.8.8,0,0,0,.538-.761v-1.417a.812.812,0,0,0-1.061-.77,18.679,18.679,0,0,0,0,35.627.812.812,0,0,0,1.061-.77v-1.418a.8.8,0,0,0-.538-.761A15.738,15.738,0,0,1,1579.816,5586.491Z" fill="#7396f8"/>
            </g>
          </g>
          <circle id="Elipse_100" data-name="Elipse 100" cx="24.368" cy="24.368" r="24.368" transform="translate(1571.162 5562.123)" fill="none" stroke="#7396f8" stroke-miterlimit="10" stroke-width="1"/>
        </g>
      </g>
    </g>
    <g id="Grupo_913" data-name="Grupo 913">
      <g id="Grupo_912" data-name="Grupo 912">
        <g id="Grupo_909" data-name="Grupo 909">
          <g id="Grupo_908" data-name="Grupo 908">
            <line id="Línea_47" data-name="Línea 47" x2="555.445" transform="translate(286.082 5489)" fill="none" stroke="#7396f8" stroke-miterlimit="10" stroke-width="1"/>
          </g>
        </g>
        <g id="Grupo_911" data-name="Grupo 911">
          <g id="Grupo_910" data-name="Grupo 910">
            <line id="Línea_48" data-name="Línea 48" x2="555.445" transform="translate(1077.082 5489)" fill="none" stroke="#7396f8" stroke-miterlimit="10" stroke-width="1"/>
          </g>
        </g>
      </g>
      <text id="Accepted_Here" data-name="Accepted Here" transform="translate(878.155 5491.766)" fill="#7396f8" font-size="24.002" font-family="Helvetica"><tspan x="0" y="0">Accepted Here</tspan></text>
    </g>
  </g>
</svg>
